<mxfile host="app.diagrams.net" agent="Mozilla/5.0 (Windows NT 10.0; Win64; x64) AppleWebKit/537.36 (KHTML, like Gecko) Chrome/134.0.0.0 Safari/537.36" version="26.1.0" pages="10">
  <diagram id="rcmUFcHJfHON9IJeP0KS" name="Página-2">
    <mxGraphModel dx="1434" dy="772" grid="1" gridSize="10" guides="1" tooltips="1" connect="1" arrows="1" fold="1" page="1" pageScale="1" pageWidth="827" pageHeight="1169" math="0" shadow="0">
      <root>
        <mxCell id="0" />
        <mxCell id="1" parent="0" />
        <mxCell id="bNDL6hAfMnc9oshUgrRK-1" value="recepcionista&amp;nbsp;" style="shape=umlActor;verticalLabelPosition=bottom;verticalAlign=top;html=1;outlineConnect=0;" vertex="1" parent="1">
          <mxGeometry y="180" width="80" height="160" as="geometry" />
        </mxCell>
        <mxCell id="bNDL6hAfMnc9oshUgrRK-4" value="" style="endArrow=classic;html=1;rounded=0;exitX=1;exitY=1;exitDx=0;exitDy=0;exitPerimeter=0;" edge="1" parent="1" source="bNDL6hAfMnc9oshUgrRK-1">
          <mxGeometry width="50" height="50" relative="1" as="geometry">
            <mxPoint x="390" y="420" as="sourcePoint" />
            <mxPoint x="250" y="470" as="targetPoint" />
            <Array as="points">
              <mxPoint x="130" y="340" />
              <mxPoint x="130" y="400" />
              <mxPoint x="130" y="470" />
            </Array>
          </mxGeometry>
        </mxCell>
        <mxCell id="bNDL6hAfMnc9oshUgrRK-5" value="" style="ellipse;whiteSpace=wrap;html=1;" vertex="1" parent="1">
          <mxGeometry x="274" y="420" width="140" height="100" as="geometry" />
        </mxCell>
        <mxCell id="bNDL6hAfMnc9oshUgrRK-8" value="gerenciar&lt;div&gt;disponibilidade de quartos&amp;nbsp;&lt;/div&gt;" style="text;strokeColor=none;fillColor=none;align=center;verticalAlign=middle;spacingLeft=4;spacingRight=4;overflow=hidden;points=[[0,0.5],[1,0.5]];portConstraint=eastwest;rotatable=0;whiteSpace=wrap;html=1;" vertex="1" parent="1">
          <mxGeometry x="289" y="445" width="110" height="50" as="geometry" />
        </mxCell>
        <mxCell id="bNDL6hAfMnc9oshUgrRK-10" value="" style="endArrow=classic;html=1;rounded=0;" edge="1" parent="1" source="bNDL6hAfMnc9oshUgrRK-1">
          <mxGeometry width="50" height="50" relative="1" as="geometry">
            <mxPoint x="90" y="290" as="sourcePoint" />
            <mxPoint x="260" y="200" as="targetPoint" />
            <Array as="points">
              <mxPoint x="120" y="260" />
              <mxPoint x="160" y="260" />
              <mxPoint x="160" y="200" />
              <mxPoint x="220" y="200" />
            </Array>
          </mxGeometry>
        </mxCell>
        <mxCell id="bNDL6hAfMnc9oshUgrRK-11" value="confirmar reserva&lt;div&gt;&lt;br&gt;&lt;/div&gt;" style="ellipse;whiteSpace=wrap;html=1;" vertex="1" parent="1">
          <mxGeometry x="270" y="160" width="120" height="80" as="geometry" />
        </mxCell>
      </root>
    </mxGraphModel>
  </diagram>
  <diagram id="VN__rpFVm-2vTKNZSUzD" name="Página-3">
    <mxGraphModel dx="1434" dy="772" grid="1" gridSize="10" guides="1" tooltips="1" connect="1" arrows="1" fold="1" page="1" pageScale="1" pageWidth="827" pageHeight="1169" math="0" shadow="0">
      <root>
        <mxCell id="0" />
        <mxCell id="1" parent="0" />
        <mxCell id="_-scXz6Y4NCwebIlh4o9-1" value="cliente&lt;div&gt;&lt;br&gt;&lt;/div&gt;" style="shape=umlActor;verticalLabelPosition=bottom;verticalAlign=top;html=1;outlineConnect=0;direction=east;" parent="1" vertex="1">
          <mxGeometry x="120" y="230" width="80" height="140" as="geometry" />
        </mxCell>
        <mxCell id="ZdS0W21fVEEKQZ1ESUZc-1" value="cancelar reserva&lt;div&gt;&lt;br&gt;&lt;/div&gt;" style="ellipse;whiteSpace=wrap;html=1;" parent="1" vertex="1">
          <mxGeometry x="330" y="160" width="120" height="80" as="geometry" />
        </mxCell>
        <mxCell id="ZdS0W21fVEEKQZ1ESUZc-2" value="fazer reserva" style="ellipse;whiteSpace=wrap;html=1;" parent="1" vertex="1">
          <mxGeometry x="330" y="400" width="120" height="80" as="geometry" />
        </mxCell>
        <mxCell id="ZdS0W21fVEEKQZ1ESUZc-3" value="" style="endArrow=classic;html=1;rounded=0;" parent="1" edge="1">
          <mxGeometry width="50" height="50" relative="1" as="geometry">
            <mxPoint x="160" y="410" as="sourcePoint" />
            <mxPoint x="320" y="440" as="targetPoint" />
            <Array as="points">
              <mxPoint x="160" y="440" />
            </Array>
          </mxGeometry>
        </mxCell>
        <mxCell id="ZdS0W21fVEEKQZ1ESUZc-4" value="" style="endArrow=classic;html=1;rounded=0;" parent="1" edge="1">
          <mxGeometry width="50" height="50" relative="1" as="geometry">
            <mxPoint x="210" y="300" as="sourcePoint" />
            <mxPoint x="320" y="200" as="targetPoint" />
            <Array as="points">
              <mxPoint x="280" y="300" />
              <mxPoint x="280" y="200" />
            </Array>
          </mxGeometry>
        </mxCell>
      </root>
    </mxGraphModel>
  </diagram>
  <diagram id="s5mtVVpcVAxRMjhbX57j" name="Página-4">
    <mxGraphModel dx="1434" dy="772" grid="1" gridSize="10" guides="1" tooltips="1" connect="1" arrows="1" fold="1" page="1" pageScale="1" pageWidth="827" pageHeight="1169" math="0" shadow="0">
      <root>
        <mxCell id="0" />
        <mxCell id="1" parent="0" />
        <mxCell id="vhd9956Y-A04Pjn9Z4b--2" value="Actor" style="shape=umlActor;verticalLabelPosition=bottom;verticalAlign=top;html=1;outlineConnect=0;" vertex="1" parent="1">
          <mxGeometry x="40" y="340" width="60" height="110" as="geometry" />
        </mxCell>
        <mxCell id="vhd9956Y-A04Pjn9Z4b--3" value="faturar pelo catalogo" style="ellipse;whiteSpace=wrap;html=1;align=center;" vertex="1" parent="1">
          <mxGeometry x="170" y="100" width="120" height="80" as="geometry" />
        </mxCell>
        <mxCell id="vhd9956Y-A04Pjn9Z4b--4" value="colocar item no carrinho" style="ellipse;whiteSpace=wrap;html=1;" vertex="1" parent="1">
          <mxGeometry x="170" y="230" width="120" height="80" as="geometry" />
        </mxCell>
        <mxCell id="vhd9956Y-A04Pjn9Z4b--5" value="informar endereço" style="ellipse;whiteSpace=wrap;html=1;" vertex="1" parent="1">
          <mxGeometry x="170" y="370" width="120" height="80" as="geometry" />
        </mxCell>
        <mxCell id="vhd9956Y-A04Pjn9Z4b--6" value="finalizar compra" style="ellipse;whiteSpace=wrap;html=1;" vertex="1" parent="1">
          <mxGeometry x="170" y="500" width="120" height="80" as="geometry" />
        </mxCell>
        <mxCell id="vhd9956Y-A04Pjn9Z4b--9" value="preencher dados do cartao&amp;nbsp;" style="ellipse;whiteSpace=wrap;html=1;" vertex="1" parent="1">
          <mxGeometry x="354" y="370" width="120" height="80" as="geometry" />
        </mxCell>
        <mxCell id="vhd9956Y-A04Pjn9Z4b--10" value="verificar dados&amp;nbsp; de cartão de credito" style="ellipse;whiteSpace=wrap;html=1;" vertex="1" parent="1">
          <mxGeometry x="540" y="370" width="120" height="80" as="geometry" />
        </mxCell>
        <mxCell id="vhd9956Y-A04Pjn9Z4b--11" value="faturar compra&amp;nbsp;" style="ellipse;whiteSpace=wrap;html=1;" vertex="1" parent="1">
          <mxGeometry x="550" y="500" width="120" height="80" as="geometry" />
        </mxCell>
        <mxCell id="vhd9956Y-A04Pjn9Z4b--12" value="enviar gmail" style="ellipse;whiteSpace=wrap;html=1;" vertex="1" parent="1">
          <mxGeometry x="550" y="610" width="120" height="80" as="geometry" />
        </mxCell>
        <mxCell id="vhd9956Y-A04Pjn9Z4b--14" value="" style="endArrow=none;dashed=1;html=1;rounded=0;exitX=1;exitY=0.5;exitDx=0;exitDy=0;" edge="1" parent="1" source="vhd9956Y-A04Pjn9Z4b--6">
          <mxGeometry width="50" height="50" relative="1" as="geometry">
            <mxPoint x="310.00000000000006" y="449.99999999999994" as="sourcePoint" />
            <mxPoint x="530" y="540" as="targetPoint" />
            <Array as="points">
              <mxPoint x="410" y="540" />
            </Array>
          </mxGeometry>
        </mxCell>
        <mxCell id="vhd9956Y-A04Pjn9Z4b--15" value="" style="endArrow=none;html=1;rounded=0;entryX=0;entryY=1;entryDx=0;entryDy=0;" edge="1" parent="1" target="vhd9956Y-A04Pjn9Z4b--3">
          <mxGeometry width="50" height="50" relative="1" as="geometry">
            <mxPoint x="80" y="320" as="sourcePoint" />
            <mxPoint x="120" y="290" as="targetPoint" />
          </mxGeometry>
        </mxCell>
        <mxCell id="vhd9956Y-A04Pjn9Z4b--16" value="" style="endArrow=none;html=1;rounded=0;entryX=-0.008;entryY=0.65;entryDx=0;entryDy=0;entryPerimeter=0;" edge="1" parent="1" target="vhd9956Y-A04Pjn9Z4b--4">
          <mxGeometry width="50" height="50" relative="1" as="geometry">
            <mxPoint x="100" y="350" as="sourcePoint" />
            <mxPoint x="150" y="300" as="targetPoint" />
          </mxGeometry>
        </mxCell>
        <mxCell id="vhd9956Y-A04Pjn9Z4b--17" value="" style="endArrow=none;html=1;rounded=0;exitX=0;exitY=0.5;exitDx=0;exitDy=0;" edge="1" parent="1" source="vhd9956Y-A04Pjn9Z4b--6">
          <mxGeometry width="50" height="50" relative="1" as="geometry">
            <mxPoint x="60" y="540" as="sourcePoint" />
            <mxPoint x="80" y="480" as="targetPoint" />
          </mxGeometry>
        </mxCell>
        <mxCell id="vhd9956Y-A04Pjn9Z4b--18" value="" style="endArrow=none;dashed=1;html=1;rounded=0;entryX=0.5;entryY=1;entryDx=0;entryDy=0;" edge="1" parent="1" target="vhd9956Y-A04Pjn9Z4b--5">
          <mxGeometry width="50" height="50" relative="1" as="geometry">
            <mxPoint x="230" y="490" as="sourcePoint" />
            <mxPoint x="270" y="450" as="targetPoint" />
          </mxGeometry>
        </mxCell>
        <mxCell id="vhd9956Y-A04Pjn9Z4b--19" value="" style="endArrow=none;dashed=1;html=1;rounded=0;" edge="1" parent="1">
          <mxGeometry width="50" height="50" relative="1" as="geometry">
            <mxPoint x="280" y="520" as="sourcePoint" />
            <mxPoint x="350" y="440" as="targetPoint" />
          </mxGeometry>
        </mxCell>
        <mxCell id="vhd9956Y-A04Pjn9Z4b--20" value="sistema&lt;div&gt;&lt;br&gt;&lt;/div&gt;" style="shape=umlActor;verticalLabelPosition=bottom;verticalAlign=top;html=1;outlineConnect=0;" vertex="1" parent="1">
          <mxGeometry x="760" y="380" width="60" height="100" as="geometry" />
        </mxCell>
        <mxCell id="vhd9956Y-A04Pjn9Z4b--23" value="" style="endArrow=none;html=1;rounded=0;" edge="1" parent="1" source="vhd9956Y-A04Pjn9Z4b--12">
          <mxGeometry width="50" height="50" relative="1" as="geometry">
            <mxPoint x="740" y="560" as="sourcePoint" />
            <mxPoint x="790" y="510" as="targetPoint" />
          </mxGeometry>
        </mxCell>
        <mxCell id="vhd9956Y-A04Pjn9Z4b--24" value="" style="endArrow=none;html=1;rounded=0;exitX=1;exitY=0;exitDx=0;exitDy=0;" edge="1" parent="1" source="vhd9956Y-A04Pjn9Z4b--11">
          <mxGeometry width="50" height="50" relative="1" as="geometry">
            <mxPoint x="730" y="490" as="sourcePoint" />
            <mxPoint x="780" y="440" as="targetPoint" />
          </mxGeometry>
        </mxCell>
        <mxCell id="vhd9956Y-A04Pjn9Z4b--25" value="" style="endArrow=none;html=1;rounded=0;" edge="1" parent="1" source="vhd9956Y-A04Pjn9Z4b--10" target="vhd9956Y-A04Pjn9Z4b--20">
          <mxGeometry width="50" height="50" relative="1" as="geometry">
            <mxPoint x="680" y="410" as="sourcePoint" />
            <mxPoint x="730" y="360" as="targetPoint" />
          </mxGeometry>
        </mxCell>
      </root>
    </mxGraphModel>
  </diagram>
  <diagram id="06FgwuD5gkMg6zV5d0-K" name="Página-5">
    <mxGraphModel dx="1434" dy="772" grid="1" gridSize="10" guides="1" tooltips="1" connect="1" arrows="1" fold="1" page="1" pageScale="1" pageWidth="827" pageHeight="1169" math="0" shadow="0">
      <root>
        <mxCell id="0" />
        <mxCell id="1" parent="0" />
        <mxCell id="6oItYedTOvzge1Q6KFRc-1" value="diretor&amp;nbsp;&lt;div&gt;&lt;br&gt;&lt;/div&gt;" style="shape=umlActor;verticalLabelPosition=bottom;verticalAlign=top;html=1;outlineConnect=0;" parent="1" vertex="1">
          <mxGeometry x="40" y="110" width="60" height="110" as="geometry" />
        </mxCell>
        <mxCell id="6oItYedTOvzge1Q6KFRc-2" value="funcionário&amp;nbsp;" style="shape=umlActor;verticalLabelPosition=bottom;verticalAlign=top;html=1;outlineConnect=0;" parent="1" vertex="1">
          <mxGeometry x="10" y="350" width="55" height="100" as="geometry" />
        </mxCell>
        <mxCell id="6oItYedTOvzge1Q6KFRc-3" value="cliente&lt;div&gt;&lt;br&gt;&lt;/div&gt;" style="shape=umlActor;verticalLabelPosition=bottom;verticalAlign=top;html=1;outlineConnect=0;" parent="1" vertex="1">
          <mxGeometry x="710" y="270" width="50" height="90" as="geometry" />
        </mxCell>
        <mxCell id="6oItYedTOvzge1Q6KFRc-4" value="criar usuários" style="ellipse;whiteSpace=wrap;html=1;" parent="1" vertex="1">
          <mxGeometry x="310" y="30" width="100" height="60" as="geometry" />
        </mxCell>
        <mxCell id="6oItYedTOvzge1Q6KFRc-5" value="editar números de quartos" style="ellipse;whiteSpace=wrap;html=1;" parent="1" vertex="1">
          <mxGeometry x="330" y="100" width="100" height="60" as="geometry" />
        </mxCell>
        <mxCell id="6oItYedTOvzge1Q6KFRc-6" value="visualizar relatórios&amp;nbsp;" style="ellipse;whiteSpace=wrap;html=1;" parent="1" vertex="1">
          <mxGeometry x="350" y="180" width="100" height="60" as="geometry" />
        </mxCell>
        <mxCell id="6oItYedTOvzge1Q6KFRc-7" value="check-Out Manual" style="ellipse;whiteSpace=wrap;html=1;" parent="1" vertex="1">
          <mxGeometry x="340" y="250" width="100" height="60" as="geometry" />
        </mxCell>
        <mxCell id="6oItYedTOvzge1Q6KFRc-8" value="Check-In" style="ellipse;whiteSpace=wrap;html=1;" parent="1" vertex="1">
          <mxGeometry x="364" y="450" width="100" height="60" as="geometry" />
        </mxCell>
        <mxCell id="6oItYedTOvzge1Q6KFRc-9" value="verificar quartos disponíveis e ocupados&amp;nbsp;" style="ellipse;whiteSpace=wrap;html=1;" parent="1" vertex="1">
          <mxGeometry x="330" y="380" width="100" height="60" as="geometry" />
        </mxCell>
        <mxCell id="6oItYedTOvzge1Q6KFRc-10" value="efetuar login&amp;nbsp;" style="ellipse;whiteSpace=wrap;html=1;" parent="1" vertex="1">
          <mxGeometry x="380" y="320" width="100" height="60" as="geometry" />
        </mxCell>
        <mxCell id="6oItYedTOvzge1Q6KFRc-11" value="realizar cadastro de cliente&amp;nbsp;" style="ellipse;whiteSpace=wrap;html=1;" parent="1" vertex="1">
          <mxGeometry x="364" y="600" width="100" height="60" as="geometry" />
        </mxCell>
        <mxCell id="6oItYedTOvzge1Q6KFRc-12" value="realizar reservas&amp;nbsp;" style="ellipse;whiteSpace=wrap;html=1;" parent="1" vertex="1">
          <mxGeometry x="330" y="530" width="100" height="60" as="geometry" />
        </mxCell>
        <mxCell id="vGw7BNF3ZzgoRQwsPUeZ-1" value="" style="endArrow=none;html=1;rounded=0;" edge="1" parent="1">
          <mxGeometry width="50" height="50" relative="1" as="geometry">
            <mxPoint x="480" y="610" as="sourcePoint" />
            <mxPoint x="750" y="430" as="targetPoint" />
          </mxGeometry>
        </mxCell>
        <mxCell id="vGw7BNF3ZzgoRQwsPUeZ-2" value="" style="endArrow=none;html=1;rounded=0;" edge="1" parent="1">
          <mxGeometry width="50" height="50" relative="1" as="geometry">
            <mxPoint x="440" y="540" as="sourcePoint" />
            <mxPoint x="710" y="390" as="targetPoint" />
          </mxGeometry>
        </mxCell>
        <mxCell id="vGw7BNF3ZzgoRQwsPUeZ-3" value="" style="endArrow=none;html=1;rounded=0;" edge="1" parent="1">
          <mxGeometry width="50" height="50" relative="1" as="geometry">
            <mxPoint x="470" y="450" as="sourcePoint" />
            <mxPoint x="700" y="330" as="targetPoint" />
          </mxGeometry>
        </mxCell>
        <mxCell id="vGw7BNF3ZzgoRQwsPUeZ-4" value="" style="endArrow=none;html=1;rounded=0;" edge="1" parent="1">
          <mxGeometry width="50" height="50" relative="1" as="geometry">
            <mxPoint x="450" y="400" as="sourcePoint" />
            <mxPoint x="690" y="310" as="targetPoint" />
          </mxGeometry>
        </mxCell>
        <mxCell id="vGw7BNF3ZzgoRQwsPUeZ-5" value="" style="endArrow=none;html=1;rounded=0;" edge="1" parent="1">
          <mxGeometry width="50" height="50" relative="1" as="geometry">
            <mxPoint x="490" y="320" as="sourcePoint" />
            <mxPoint x="680" y="300" as="targetPoint" />
          </mxGeometry>
        </mxCell>
        <mxCell id="vGw7BNF3ZzgoRQwsPUeZ-6" value="" style="endArrow=none;html=1;rounded=0;" edge="1" parent="1">
          <mxGeometry width="50" height="50" relative="1" as="geometry">
            <mxPoint x="460" y="280" as="sourcePoint" />
            <mxPoint x="700" y="270" as="targetPoint" />
          </mxGeometry>
        </mxCell>
        <mxCell id="vGw7BNF3ZzgoRQwsPUeZ-7" value="" style="endArrow=none;html=1;rounded=0;" edge="1" parent="1">
          <mxGeometry width="50" height="50" relative="1" as="geometry">
            <mxPoint x="470" y="210" as="sourcePoint" />
            <mxPoint x="720" y="250" as="targetPoint" />
          </mxGeometry>
        </mxCell>
        <mxCell id="vGw7BNF3ZzgoRQwsPUeZ-10" value="" style="endArrow=none;html=1;rounded=0;" edge="1" parent="1">
          <mxGeometry width="50" height="50" relative="1" as="geometry">
            <mxPoint x="90" y="240" as="sourcePoint" />
            <mxPoint x="360" y="340" as="targetPoint" />
          </mxGeometry>
        </mxCell>
        <mxCell id="vGw7BNF3ZzgoRQwsPUeZ-11" value="" style="endArrow=none;html=1;rounded=0;" edge="1" parent="1">
          <mxGeometry width="50" height="50" relative="1" as="geometry">
            <mxPoint x="80" y="390" as="sourcePoint" />
            <mxPoint x="360" y="350" as="targetPoint" />
          </mxGeometry>
        </mxCell>
        <mxCell id="vGw7BNF3ZzgoRQwsPUeZ-12" value="" style="endArrow=none;html=1;rounded=0;" edge="1" parent="1">
          <mxGeometry width="50" height="50" relative="1" as="geometry">
            <mxPoint x="110" y="400" as="sourcePoint" />
            <mxPoint x="320" y="400" as="targetPoint" />
          </mxGeometry>
        </mxCell>
        <mxCell id="vGw7BNF3ZzgoRQwsPUeZ-13" value="" style="endArrow=none;html=1;rounded=0;" edge="1" parent="1">
          <mxGeometry width="50" height="50" relative="1" as="geometry">
            <mxPoint x="100" y="420" as="sourcePoint" />
            <mxPoint x="350" y="480" as="targetPoint" />
          </mxGeometry>
        </mxCell>
        <mxCell id="vGw7BNF3ZzgoRQwsPUeZ-14" value="" style="endArrow=none;html=1;rounded=0;" edge="1" parent="1">
          <mxGeometry width="50" height="50" relative="1" as="geometry">
            <mxPoint x="100" y="470" as="sourcePoint" />
            <mxPoint x="310" y="550" as="targetPoint" />
          </mxGeometry>
        </mxCell>
        <mxCell id="vGw7BNF3ZzgoRQwsPUeZ-15" value="" style="endArrow=none;html=1;rounded=0;" edge="1" parent="1">
          <mxGeometry width="50" height="50" relative="1" as="geometry">
            <mxPoint x="320" y="630" as="sourcePoint" />
            <mxPoint x="80" y="490" as="targetPoint" />
          </mxGeometry>
        </mxCell>
        <mxCell id="vGw7BNF3ZzgoRQwsPUeZ-16" value="" style="endArrow=none;html=1;rounded=0;" edge="1" parent="1">
          <mxGeometry width="50" height="50" relative="1" as="geometry">
            <mxPoint x="110" y="200" as="sourcePoint" />
            <mxPoint x="320" y="270" as="targetPoint" />
          </mxGeometry>
        </mxCell>
        <mxCell id="vGw7BNF3ZzgoRQwsPUeZ-17" value="" style="endArrow=none;html=1;rounded=0;" edge="1" parent="1">
          <mxGeometry width="50" height="50" relative="1" as="geometry">
            <mxPoint x="120" y="160" as="sourcePoint" />
            <mxPoint x="330" y="200" as="targetPoint" />
          </mxGeometry>
        </mxCell>
        <mxCell id="vGw7BNF3ZzgoRQwsPUeZ-19" value="" style="endArrow=none;html=1;rounded=0;" edge="1" parent="1">
          <mxGeometry width="50" height="50" relative="1" as="geometry">
            <mxPoint x="120" y="150" as="sourcePoint" />
            <mxPoint x="320" y="140" as="targetPoint" />
          </mxGeometry>
        </mxCell>
        <mxCell id="vGw7BNF3ZzgoRQwsPUeZ-20" value="" style="endArrow=none;html=1;rounded=0;" edge="1" parent="1">
          <mxGeometry width="50" height="50" relative="1" as="geometry">
            <mxPoint x="110" y="130" as="sourcePoint" />
            <mxPoint x="300" y="70" as="targetPoint" />
          </mxGeometry>
        </mxCell>
      </root>
    </mxGraphModel>
  </diagram>
  <diagram id="gWf_uyfmmvbHrr9av7CM" name="Página-6">
    <mxGraphModel dx="1434" dy="772" grid="1" gridSize="10" guides="1" tooltips="1" connect="1" arrows="1" fold="1" page="1" pageScale="1" pageWidth="827" pageHeight="1169" math="0" shadow="0">
      <root>
        <mxCell id="0" />
        <mxCell id="1" parent="0" />
        <mxCell id="0Qo5TWQrfUfwDh5mdIHq-1" value="jogador" style="shape=umlActor;verticalLabelPosition=bottom;verticalAlign=top;html=1;outlineConnect=0;" parent="1" vertex="1">
          <mxGeometry x="30" y="280" width="60" height="110" as="geometry" />
        </mxCell>
        <mxCell id="0Qo5TWQrfUfwDh5mdIHq-2" value="sistema" style="shape=umlActor;verticalLabelPosition=bottom;verticalAlign=top;html=1;outlineConnect=0;" parent="1" vertex="1">
          <mxGeometry x="730" y="280" width="60" height="110" as="geometry" />
        </mxCell>
        <mxCell id="0Qo5TWQrfUfwDh5mdIHq-3" value="cadastrar usuário" style="ellipse;whiteSpace=wrap;html=1;" parent="1" vertex="1">
          <mxGeometry x="20" y="20" width="120" height="80" as="geometry" />
        </mxCell>
        <mxCell id="0Qo5TWQrfUfwDh5mdIHq-4" value="criar login e senha" style="ellipse;whiteSpace=wrap;html=1;" parent="1" vertex="1">
          <mxGeometry x="150" y="100" width="120" height="80" as="geometry" />
        </mxCell>
        <mxCell id="0Qo5TWQrfUfwDh5mdIHq-5" value="entrar no quiz" style="ellipse;whiteSpace=wrap;html=1;" parent="1" vertex="1">
          <mxGeometry x="180" y="270" width="120" height="80" as="geometry" />
        </mxCell>
        <mxCell id="0Qo5TWQrfUfwDh5mdIHq-6" value="selecionar respostas&amp;nbsp;" style="ellipse;whiteSpace=wrap;html=1;" parent="1" vertex="1">
          <mxGeometry x="120" y="450" width="120" height="80" as="geometry" />
        </mxCell>
        <mxCell id="0Qo5TWQrfUfwDh5mdIHq-8" value="salvar o cadastro do jogador" style="ellipse;whiteSpace=wrap;html=1;" parent="1" vertex="1">
          <mxGeometry x="650" y="20" width="120" height="80" as="geometry" />
        </mxCell>
        <mxCell id="0Qo5TWQrfUfwDh5mdIHq-9" value="apresentar perguntas (com opções)" style="ellipse;whiteSpace=wrap;html=1;" parent="1" vertex="1">
          <mxGeometry x="560" y="110" width="120" height="80" as="geometry" />
        </mxCell>
        <mxCell id="0Qo5TWQrfUfwDh5mdIHq-10" value="verificar respostas&amp;nbsp;" style="ellipse;whiteSpace=wrap;html=1;" parent="1" vertex="1">
          <mxGeometry x="530" y="200" width="120" height="80" as="geometry" />
        </mxCell>
        <mxCell id="0Qo5TWQrfUfwDh5mdIHq-11" value="resposta correta" style="ellipse;whiteSpace=wrap;html=1;" parent="1" vertex="1">
          <mxGeometry x="470" y="300" width="100" height="50" as="geometry" />
        </mxCell>
        <mxCell id="0Qo5TWQrfUfwDh5mdIHq-12" value="" style="endArrow=classic;html=1;rounded=0;entryX=0.333;entryY=1;entryDx=0;entryDy=0;entryPerimeter=0;" parent="1" target="0Qo5TWQrfUfwDh5mdIHq-3" edge="1">
          <mxGeometry width="50" height="50" relative="1" as="geometry">
            <mxPoint x="60" y="260" as="sourcePoint" />
            <mxPoint x="70" y="210" as="targetPoint" />
          </mxGeometry>
        </mxCell>
        <mxCell id="0Qo5TWQrfUfwDh5mdIHq-13" value="" style="endArrow=classic;html=1;rounded=0;" parent="1" edge="1">
          <mxGeometry width="50" height="50" relative="1" as="geometry">
            <mxPoint x="80" y="270" as="sourcePoint" />
            <mxPoint x="170" y="170" as="targetPoint" />
          </mxGeometry>
        </mxCell>
        <mxCell id="0Qo5TWQrfUfwDh5mdIHq-14" value="" style="endArrow=classic;html=1;rounded=0;entryX=0;entryY=0.5;entryDx=0;entryDy=0;" parent="1" target="0Qo5TWQrfUfwDh5mdIHq-5" edge="1">
          <mxGeometry width="50" height="50" relative="1" as="geometry">
            <mxPoint x="100" y="320" as="sourcePoint" />
            <mxPoint x="150" y="300" as="targetPoint" />
          </mxGeometry>
        </mxCell>
        <mxCell id="0Qo5TWQrfUfwDh5mdIHq-15" value="" style="endArrow=classic;html=1;rounded=0;entryX=0.1;entryY=0.163;entryDx=0;entryDy=0;entryPerimeter=0;" parent="1" target="0Qo5TWQrfUfwDh5mdIHq-6" edge="1">
          <mxGeometry width="50" height="50" relative="1" as="geometry">
            <mxPoint x="90" y="420" as="sourcePoint" />
            <mxPoint x="180" y="390" as="targetPoint" />
          </mxGeometry>
        </mxCell>
        <mxCell id="0Qo5TWQrfUfwDh5mdIHq-16" value="" style="endArrow=classic;html=1;rounded=0;" parent="1" edge="1">
          <mxGeometry width="50" height="50" relative="1" as="geometry">
            <mxPoint x="640" y="50" as="sourcePoint" />
            <mxPoint x="280" y="130" as="targetPoint" />
          </mxGeometry>
        </mxCell>
        <mxCell id="0Qo5TWQrfUfwDh5mdIHq-17" value="" style="endArrow=classic;html=1;rounded=0;entryX=0.975;entryY=0.65;entryDx=0;entryDy=0;entryPerimeter=0;" parent="1" target="0Qo5TWQrfUfwDh5mdIHq-9" edge="1">
          <mxGeometry width="50" height="50" relative="1" as="geometry">
            <mxPoint x="750" y="260" as="sourcePoint" />
            <mxPoint x="730" y="140" as="targetPoint" />
          </mxGeometry>
        </mxCell>
        <mxCell id="0Qo5TWQrfUfwDh5mdIHq-18" value="" style="endArrow=classic;html=1;rounded=0;entryX=1;entryY=0.5;entryDx=0;entryDy=0;" parent="1" source="0Qo5TWQrfUfwDh5mdIHq-2" target="0Qo5TWQrfUfwDh5mdIHq-20" edge="1">
          <mxGeometry width="50" height="50" relative="1" as="geometry">
            <mxPoint x="720" y="340" as="sourcePoint" />
            <mxPoint x="690" y="320" as="targetPoint" />
          </mxGeometry>
        </mxCell>
        <mxCell id="0Qo5TWQrfUfwDh5mdIHq-19" value="" style="endArrow=classic;html=1;rounded=0;" parent="1" target="0Qo5TWQrfUfwDh5mdIHq-10" edge="1">
          <mxGeometry width="50" height="50" relative="1" as="geometry">
            <mxPoint x="720" y="300" as="sourcePoint" />
            <mxPoint x="660" y="270" as="targetPoint" />
          </mxGeometry>
        </mxCell>
        <mxCell id="0Qo5TWQrfUfwDh5mdIHq-20" value="resposta incorreta&amp;nbsp;" style="ellipse;whiteSpace=wrap;html=1;" parent="1" vertex="1">
          <mxGeometry x="580" y="300" width="100" height="50" as="geometry" />
        </mxCell>
        <mxCell id="0Qo5TWQrfUfwDh5mdIHq-21" value="" style="endArrow=none;dashed=1;html=1;rounded=0;entryX=0;entryY=0.5;entryDx=0;entryDy=0;exitX=1;exitY=0.5;exitDx=0;exitDy=0;" parent="1" source="0Qo5TWQrfUfwDh5mdIHq-11" target="0Qo5TWQrfUfwDh5mdIHq-20" edge="1">
          <mxGeometry width="50" height="50" relative="1" as="geometry">
            <mxPoint x="540" y="410" as="sourcePoint" />
            <mxPoint x="590" y="360" as="targetPoint" />
          </mxGeometry>
        </mxCell>
        <mxCell id="0Qo5TWQrfUfwDh5mdIHq-22" value="adicionar pontos" style="ellipse;whiteSpace=wrap;html=1;" parent="1" vertex="1">
          <mxGeometry x="470" y="360" width="100" height="50" as="geometry" />
        </mxCell>
        <mxCell id="0Qo5TWQrfUfwDh5mdIHq-23" value="não adicionar pontos&amp;nbsp;" style="ellipse;whiteSpace=wrap;html=1;" parent="1" vertex="1">
          <mxGeometry x="580" y="360" width="100" height="50" as="geometry" />
        </mxCell>
        <mxCell id="0Qo5TWQrfUfwDh5mdIHq-24" value="fornecer feedback" style="ellipse;whiteSpace=wrap;html=1;" parent="1" vertex="1">
          <mxGeometry x="470" y="420" width="100" height="50" as="geometry" />
        </mxCell>
        <mxCell id="0Qo5TWQrfUfwDh5mdIHq-25" value="fornecer feedback" style="ellipse;whiteSpace=wrap;html=1;" parent="1" vertex="1">
          <mxGeometry x="580" y="420" width="100" height="50" as="geometry" />
        </mxCell>
        <mxCell id="0Qo5TWQrfUfwDh5mdIHq-27" value="adicionar outras perguntas&amp;nbsp;" style="ellipse;whiteSpace=wrap;html=1;" parent="1" vertex="1">
          <mxGeometry x="470" y="480" width="100" height="50" as="geometry" />
        </mxCell>
        <mxCell id="0Qo5TWQrfUfwDh5mdIHq-28" value="adicionar outras perguntas&amp;nbsp;" style="ellipse;whiteSpace=wrap;html=1;" parent="1" vertex="1">
          <mxGeometry x="580" y="480" width="100" height="50" as="geometry" />
        </mxCell>
        <mxCell id="A80iTcHiYHuQh1SNLcx4-1" value="" style="endArrow=none;dashed=1;html=1;rounded=0;entryX=0.5;entryY=1;entryDx=0;entryDy=0;exitX=0.5;exitY=0;exitDx=0;exitDy=0;" edge="1" parent="1" source="0Qo5TWQrfUfwDh5mdIHq-22" target="0Qo5TWQrfUfwDh5mdIHq-11">
          <mxGeometry width="50" height="50" relative="1" as="geometry">
            <mxPoint x="490" y="390" as="sourcePoint" />
            <mxPoint x="540" y="340" as="targetPoint" />
          </mxGeometry>
        </mxCell>
        <mxCell id="A80iTcHiYHuQh1SNLcx4-2" value="" style="endArrow=none;dashed=1;html=1;rounded=0;entryX=0.5;entryY=1;entryDx=0;entryDy=0;exitX=0.5;exitY=0;exitDx=0;exitDy=0;" edge="1" parent="1" source="0Qo5TWQrfUfwDh5mdIHq-23" target="0Qo5TWQrfUfwDh5mdIHq-20">
          <mxGeometry width="50" height="50" relative="1" as="geometry">
            <mxPoint x="590" y="380" as="sourcePoint" />
            <mxPoint x="640" y="330" as="targetPoint" />
          </mxGeometry>
        </mxCell>
        <mxCell id="A80iTcHiYHuQh1SNLcx4-3" value="" style="endArrow=none;dashed=1;html=1;rounded=0;exitX=0.5;exitY=0;exitDx=0;exitDy=0;" edge="1" parent="1" source="0Qo5TWQrfUfwDh5mdIHq-24">
          <mxGeometry width="50" height="50" relative="1" as="geometry">
            <mxPoint x="490" y="440" as="sourcePoint" />
            <mxPoint x="520" y="410" as="targetPoint" />
          </mxGeometry>
        </mxCell>
        <mxCell id="A80iTcHiYHuQh1SNLcx4-4" value="" style="endArrow=none;dashed=1;html=1;rounded=0;entryX=0.5;entryY=1;entryDx=0;entryDy=0;exitX=0.5;exitY=0;exitDx=0;exitDy=0;" edge="1" parent="1" source="0Qo5TWQrfUfwDh5mdIHq-25" target="0Qo5TWQrfUfwDh5mdIHq-23">
          <mxGeometry width="50" height="50" relative="1" as="geometry">
            <mxPoint x="590" y="440" as="sourcePoint" />
            <mxPoint x="640" y="390" as="targetPoint" />
          </mxGeometry>
        </mxCell>
        <mxCell id="A80iTcHiYHuQh1SNLcx4-6" value="" style="endArrow=none;dashed=1;html=1;rounded=0;entryX=0.5;entryY=1;entryDx=0;entryDy=0;exitX=0.5;exitY=0;exitDx=0;exitDy=0;" edge="1" parent="1" source="0Qo5TWQrfUfwDh5mdIHq-28" target="0Qo5TWQrfUfwDh5mdIHq-25">
          <mxGeometry width="50" height="50" relative="1" as="geometry">
            <mxPoint x="580" y="500" as="sourcePoint" />
            <mxPoint x="630" y="450" as="targetPoint" />
          </mxGeometry>
        </mxCell>
        <mxCell id="A80iTcHiYHuQh1SNLcx4-7" value="" style="endArrow=none;dashed=1;html=1;rounded=0;entryX=0.5;entryY=1;entryDx=0;entryDy=0;exitX=0.5;exitY=0;exitDx=0;exitDy=0;" edge="1" parent="1" source="0Qo5TWQrfUfwDh5mdIHq-27" target="0Qo5TWQrfUfwDh5mdIHq-24">
          <mxGeometry width="50" height="50" relative="1" as="geometry">
            <mxPoint x="490" y="490" as="sourcePoint" />
            <mxPoint x="540" y="440" as="targetPoint" />
          </mxGeometry>
        </mxCell>
        <mxCell id="A80iTcHiYHuQh1SNLcx4-8" value="" style="endArrow=classic;html=1;rounded=0;" edge="1" parent="1">
          <mxGeometry width="50" height="50" relative="1" as="geometry">
            <mxPoint x="240" y="490" as="sourcePoint" />
            <mxPoint x="450" y="390" as="targetPoint" />
          </mxGeometry>
        </mxCell>
        <mxCell id="A80iTcHiYHuQh1SNLcx4-9" value="" style="endArrow=none;dashed=1;html=1;rounded=0;exitX=0.5;exitY=1;exitDx=0;exitDy=0;entryX=0.6;entryY=1.04;entryDx=0;entryDy=0;entryPerimeter=0;" edge="1" parent="1" source="0Qo5TWQrfUfwDh5mdIHq-27" target="0Qo5TWQrfUfwDh5mdIHq-28">
          <mxGeometry width="50" height="50" relative="1" as="geometry">
            <mxPoint x="580" y="580" as="sourcePoint" />
            <mxPoint x="730" y="580" as="targetPoint" />
            <Array as="points">
              <mxPoint x="520" y="580" />
              <mxPoint x="640" y="580" />
              <mxPoint x="640" y="550" />
            </Array>
          </mxGeometry>
        </mxCell>
        <mxCell id="A80iTcHiYHuQh1SNLcx4-10" value="" style="endArrow=none;dashed=1;html=1;rounded=0;exitX=0.5;exitY=1;exitDx=0;exitDy=0;entryX=0.6;entryY=1.04;entryDx=0;entryDy=0;entryPerimeter=0;" edge="1" parent="1">
          <mxGeometry width="50" height="50" relative="1" as="geometry">
            <mxPoint x="120" y="500" as="sourcePoint" />
            <mxPoint x="240" y="502" as="targetPoint" />
            <Array as="points">
              <mxPoint x="120" y="550" />
              <mxPoint x="240" y="550" />
              <mxPoint x="240" y="520" />
            </Array>
          </mxGeometry>
        </mxCell>
        <mxCell id="A80iTcHiYHuQh1SNLcx4-11" value="" style="endArrow=none;dashed=1;html=1;dashPattern=1 3;strokeWidth=2;rounded=0;" edge="1" parent="1">
          <mxGeometry width="50" height="50" relative="1" as="geometry">
            <mxPoint x="180" y="560" as="sourcePoint" />
            <mxPoint x="580" y="580" as="targetPoint" />
            <Array as="points">
              <mxPoint x="180" y="640" />
              <mxPoint x="380" y="640" />
              <mxPoint x="580" y="640" />
            </Array>
          </mxGeometry>
        </mxCell>
        <mxCell id="A80iTcHiYHuQh1SNLcx4-12" value="" style="endArrow=none;dashed=1;html=1;rounded=0;" edge="1" parent="1">
          <mxGeometry width="50" height="50" relative="1" as="geometry">
            <mxPoint x="380" y="690" as="sourcePoint" />
            <mxPoint x="380" y="640" as="targetPoint" />
          </mxGeometry>
        </mxCell>
        <mxCell id="A80iTcHiYHuQh1SNLcx4-13" value="finalizar quiz" style="ellipse;whiteSpace=wrap;html=1;" vertex="1" parent="1">
          <mxGeometry x="320" y="690" width="120" height="80" as="geometry" />
        </mxCell>
      </root>
    </mxGraphModel>
  </diagram>
  <diagram id="KuLw4zsBuIpWTd27fbO8" name="Página-7">
    <mxGraphModel dx="1434" dy="772" grid="1" gridSize="10" guides="1" tooltips="1" connect="1" arrows="1" fold="1" page="1" pageScale="1" pageWidth="827" pageHeight="1169" math="0" shadow="0">
      <root>
        <mxCell id="0" />
        <mxCell id="1" parent="0" />
        <mxCell id="XEE6P7GO6SdHQGkuzCWK-4" value="&lt;font size=&quot;3&quot;&gt;&lt;b&gt;&lt;u&gt;sistema para gerenciamento&lt;/u&gt;&lt;/b&gt;&lt;/font&gt;&lt;div&gt;&lt;font size=&quot;3&quot;&gt;&lt;b&gt;&lt;u&gt;&amp;nbsp;de tarefas&lt;/u&gt;&lt;/b&gt;&lt;/font&gt;&lt;/div&gt;" style="text;html=1;align=center;verticalAlign=middle;whiteSpace=wrap;rounded=0;strokeColor=#D4E1F5;" parent="1" vertex="1">
          <mxGeometry x="297" y="20" width="233" height="100" as="geometry" />
        </mxCell>
        <mxCell id="XEE6P7GO6SdHQGkuzCWK-6" value="requisitos funcionais" style="swimlane;fontStyle=0;childLayout=stackLayout;horizontal=1;startSize=26;horizontalStack=0;resizeParent=1;resizeParentMax=0;resizeLast=0;collapsible=1;marginBottom=0;align=center;fontSize=14;fillColor=#cce5ff;strokeColor=#36393d;" parent="1" vertex="1">
          <mxGeometry x="130" y="160" width="190" height="86" as="geometry" />
        </mxCell>
        <mxCell id="XEE6P7GO6SdHQGkuzCWK-7" value="RF1 - cadastro de tarefa" style="text;strokeColor=none;fillColor=none;spacingLeft=4;spacingRight=4;overflow=hidden;rotatable=0;points=[[0,0.5],[1,0.5]];portConstraint=eastwest;fontSize=12;whiteSpace=wrap;html=1;" parent="XEE6P7GO6SdHQGkuzCWK-6" vertex="1">
          <mxGeometry y="26" width="190" height="30" as="geometry" />
        </mxCell>
        <mxCell id="XEE6P7GO6SdHQGkuzCWK-8" value="RF2 - edição de tarefas&amp;nbsp;" style="text;strokeColor=none;fillColor=none;spacingLeft=4;spacingRight=4;overflow=hidden;rotatable=0;points=[[0,0.5],[1,0.5]];portConstraint=eastwest;fontSize=12;whiteSpace=wrap;html=1;" parent="XEE6P7GO6SdHQGkuzCWK-6" vertex="1">
          <mxGeometry y="56" width="190" height="30" as="geometry" />
        </mxCell>
        <mxCell id="XEE6P7GO6SdHQGkuzCWK-10" value="" style="shape=actor;whiteSpace=wrap;html=1;" parent="1" vertex="1">
          <mxGeometry x="500" y="170" width="50" height="70" as="geometry" />
        </mxCell>
        <UserObject label="usuário" placeholders="1" name="Variable" id="XEE6P7GO6SdHQGkuzCWK-11">
          <mxCell style="text;html=1;strokeColor=none;fillColor=none;align=center;verticalAlign=middle;whiteSpace=wrap;overflow=hidden;" parent="1" vertex="1">
            <mxGeometry x="497.5" y="216" width="55" height="30" as="geometry" />
          </mxCell>
        </UserObject>
        <mxCell id="XEE6P7GO6SdHQGkuzCWK-12" value="fazer cadastro da tarefa" style="shape=ext;double=1;rounded=0;whiteSpace=wrap;html=1;fillColor=#cce5ff;strokeColor=#36393d;" parent="1" vertex="1">
          <mxGeometry x="560" y="130" width="120" height="60" as="geometry" />
        </mxCell>
        <mxCell id="XEE6P7GO6SdHQGkuzCWK-13" value="" style="edgeStyle=elbowEdgeStyle;elbow=horizontal;endArrow=classic;html=1;curved=0;rounded=0;endSize=8;startSize=8;entryX=0;entryY=0.5;entryDx=0;entryDy=0;" parent="1" target="XEE6P7GO6SdHQGkuzCWK-12" edge="1">
          <mxGeometry width="50" height="50" relative="1" as="geometry">
            <mxPoint x="520" y="170" as="sourcePoint" />
            <mxPoint x="570" y="120" as="targetPoint" />
            <Array as="points">
              <mxPoint x="530" y="150" />
            </Array>
          </mxGeometry>
        </mxCell>
        <mxCell id="XEE6P7GO6SdHQGkuzCWK-14" value="" style="edgeStyle=elbowEdgeStyle;elbow=horizontal;endArrow=classic;html=1;curved=0;rounded=0;endSize=8;startSize=8;entryX=0;entryY=0.5;entryDx=0;entryDy=0;" parent="1" edge="1">
          <mxGeometry width="50" height="50" relative="1" as="geometry">
            <mxPoint x="540" y="240" as="sourcePoint" />
            <mxPoint x="580" y="230" as="targetPoint" />
            <Array as="points">
              <mxPoint x="550" y="220" />
            </Array>
          </mxGeometry>
        </mxCell>
        <mxCell id="XEE6P7GO6SdHQGkuzCWK-15" value="editar a tarefa" style="shape=ext;double=1;rounded=0;whiteSpace=wrap;html=1;fillColor=#cce5ff;strokeColor=#36393d;" parent="1" vertex="1">
          <mxGeometry x="580" y="210" width="120" height="60" as="geometry" />
        </mxCell>
        <mxCell id="1U80lAUNW5TGW7H0yJw--1" value="&lt;font size=&quot;3&quot;&gt;&lt;b&gt;&lt;u&gt;sistema para gerenciamento&lt;/u&gt;&lt;/b&gt;&lt;/font&gt;&lt;div&gt;&lt;font size=&quot;3&quot;&gt;&lt;b&gt;&lt;u&gt;&amp;nbsp;de tarefas&lt;/u&gt;&lt;/b&gt;&lt;/font&gt;&lt;/div&gt;" style="text;html=1;align=center;verticalAlign=middle;whiteSpace=wrap;rounded=0;strokeColor=#D4E1F5;" parent="1" vertex="1">
          <mxGeometry x="300" y="340" width="233" height="100" as="geometry" />
        </mxCell>
        <mxCell id="rvPPa0roGqXbYIvExmKc-1" value="tarefas" style="swimlane;fontStyle=0;childLayout=stackLayout;horizontal=1;startSize=30;horizontalStack=0;resizeParent=1;resizeParentMax=0;resizeLast=0;collapsible=1;marginBottom=0;whiteSpace=wrap;html=1;fillColor=#cce5ff;strokeColor=#36393d;" parent="1" vertex="1">
          <mxGeometry x="344" y="440" width="140" height="210" as="geometry" />
        </mxCell>
        <mxCell id="rvPPa0roGqXbYIvExmKc-6" value="criar formulário com nome&amp;nbsp;" style="text;strokeColor=none;fillColor=none;align=left;verticalAlign=middle;spacingLeft=4;spacingRight=4;overflow=hidden;points=[[0,0.5],[1,0.5]];portConstraint=eastwest;rotatable=0;whiteSpace=wrap;html=1;" parent="rvPPa0roGqXbYIvExmKc-1" vertex="1">
          <mxGeometry y="30" width="140" height="30" as="geometry" />
        </mxCell>
        <mxCell id="rvPPa0roGqXbYIvExmKc-5" value="descrição" style="text;strokeColor=none;fillColor=none;align=left;verticalAlign=middle;spacingLeft=4;spacingRight=4;overflow=hidden;points=[[0,0.5],[1,0.5]];portConstraint=eastwest;rotatable=0;whiteSpace=wrap;html=1;" parent="rvPPa0roGqXbYIvExmKc-1" vertex="1">
          <mxGeometry y="60" width="140" height="30" as="geometry" />
        </mxCell>
        <mxCell id="rvPPa0roGqXbYIvExmKc-8" value="datas" style="text;strokeColor=none;fillColor=none;align=left;verticalAlign=middle;spacingLeft=4;spacingRight=4;overflow=hidden;points=[[0,0.5],[1,0.5]];portConstraint=eastwest;rotatable=0;whiteSpace=wrap;html=1;" parent="rvPPa0roGqXbYIvExmKc-1" vertex="1">
          <mxGeometry y="90" width="140" height="30" as="geometry" />
        </mxCell>
        <mxCell id="rvPPa0roGqXbYIvExmKc-7" value="prioridades" style="text;strokeColor=none;fillColor=none;align=left;verticalAlign=middle;spacingLeft=4;spacingRight=4;overflow=hidden;points=[[0,0.5],[1,0.5]];portConstraint=eastwest;rotatable=0;whiteSpace=wrap;html=1;" parent="rvPPa0roGqXbYIvExmKc-1" vertex="1">
          <mxGeometry y="120" width="140" height="30" as="geometry" />
        </mxCell>
        <mxCell id="rvPPa0roGqXbYIvExmKc-3" value="status" style="text;strokeColor=none;fillColor=none;align=left;verticalAlign=middle;spacingLeft=4;spacingRight=4;overflow=hidden;points=[[0,0.5],[1,0.5]];portConstraint=eastwest;rotatable=0;whiteSpace=wrap;html=1;" parent="rvPPa0roGqXbYIvExmKc-1" vertex="1">
          <mxGeometry y="150" width="140" height="30" as="geometry" />
        </mxCell>
        <mxCell id="rvPPa0roGqXbYIvExmKc-9" value="responsáveis&amp;nbsp;" style="text;strokeColor=none;fillColor=none;align=left;verticalAlign=middle;spacingLeft=4;spacingRight=4;overflow=hidden;points=[[0,0.5],[1,0.5]];portConstraint=eastwest;rotatable=0;whiteSpace=wrap;html=1;" parent="rvPPa0roGqXbYIvExmKc-1" vertex="1">
          <mxGeometry y="180" width="140" height="30" as="geometry" />
        </mxCell>
        <mxCell id="rvPPa0roGqXbYIvExmKc-12" value="edição da tarefa&amp;nbsp;" style="swimlane;fontStyle=0;childLayout=stackLayout;horizontal=1;startSize=30;horizontalStack=0;resizeParent=1;resizeParentMax=0;resizeLast=0;collapsible=1;marginBottom=0;whiteSpace=wrap;html=1;fillColor=#cce5ff;strokeColor=#36393d;" parent="1" vertex="1">
          <mxGeometry x="533" y="440" width="140" height="210" as="geometry" />
        </mxCell>
        <mxCell id="rvPPa0roGqXbYIvExmKc-13" value="acessar tarefa desejada" style="text;strokeColor=none;fillColor=none;align=left;verticalAlign=middle;spacingLeft=4;spacingRight=4;overflow=hidden;points=[[0,0.5],[1,0.5]];portConstraint=eastwest;rotatable=0;whiteSpace=wrap;html=1;" parent="rvPPa0roGqXbYIvExmKc-12" vertex="1">
          <mxGeometry y="30" width="140" height="30" as="geometry" />
        </mxCell>
        <mxCell id="rvPPa0roGqXbYIvExmKc-15" value="alterar campos necessários como:" style="text;strokeColor=none;fillColor=none;align=left;verticalAlign=middle;spacingLeft=4;spacingRight=4;overflow=hidden;points=[[0,0.5],[1,0.5]];portConstraint=eastwest;rotatable=0;whiteSpace=wrap;html=1;" parent="rvPPa0roGqXbYIvExmKc-12" vertex="1">
          <mxGeometry y="60" width="140" height="30" as="geometry" />
        </mxCell>
        <mxCell id="rvPPa0roGqXbYIvExmKc-16" value="status" style="text;strokeColor=none;fillColor=none;align=left;verticalAlign=middle;spacingLeft=4;spacingRight=4;overflow=hidden;points=[[0,0.5],[1,0.5]];portConstraint=eastwest;rotatable=0;whiteSpace=wrap;html=1;" parent="rvPPa0roGqXbYIvExmKc-12" vertex="1">
          <mxGeometry y="90" width="140" height="30" as="geometry" />
        </mxCell>
        <mxCell id="rvPPa0roGqXbYIvExmKc-17" value="prazo" style="text;strokeColor=none;fillColor=none;align=left;verticalAlign=middle;spacingLeft=4;spacingRight=4;overflow=hidden;points=[[0,0.5],[1,0.5]];portConstraint=eastwest;rotatable=0;whiteSpace=wrap;html=1;" parent="rvPPa0roGqXbYIvExmKc-12" vertex="1">
          <mxGeometry y="120" width="140" height="30" as="geometry" />
        </mxCell>
        <mxCell id="rvPPa0roGqXbYIvExmKc-18" value="descrição&amp;nbsp;" style="text;strokeColor=none;fillColor=none;align=left;verticalAlign=middle;spacingLeft=4;spacingRight=4;overflow=hidden;points=[[0,0.5],[1,0.5]];portConstraint=eastwest;rotatable=0;whiteSpace=wrap;html=1;" parent="rvPPa0roGqXbYIvExmKc-12" vertex="1">
          <mxGeometry y="150" width="140" height="30" as="geometry" />
        </mxCell>
        <mxCell id="rvPPa0roGqXbYIvExmKc-19" value="salvar alterações&amp;nbsp;" style="text;strokeColor=none;fillColor=none;align=left;verticalAlign=middle;spacingLeft=4;spacingRight=4;overflow=hidden;points=[[0,0.5],[1,0.5]];portConstraint=eastwest;rotatable=0;whiteSpace=wrap;html=1;" parent="rvPPa0roGqXbYIvExmKc-12" vertex="1">
          <mxGeometry y="180" width="140" height="30" as="geometry" />
        </mxCell>
        <mxCell id="gR44QgmKmWpmTDF3-PLm-8" value="usuário&amp;nbsp;" style="swimlane;fontStyle=0;childLayout=stackLayout;horizontal=1;startSize=30;horizontalStack=0;resizeParent=1;resizeParentMax=0;resizeLast=0;collapsible=1;marginBottom=0;whiteSpace=wrap;html=1;fillColor=#cce5ff;strokeColor=#36393d;" parent="1" vertex="1">
          <mxGeometry x="145" y="440" width="140" height="200" as="geometry" />
        </mxCell>
        <mxCell id="gR44QgmKmWpmTDF3-PLm-9" value="cpf:sthing" style="text;strokeColor=none;fillColor=none;align=left;verticalAlign=middle;spacingLeft=4;spacingRight=4;overflow=hidden;points=[[0,0.5],[1,0.5]];portConstraint=eastwest;rotatable=0;whiteSpace=wrap;html=1;" parent="gR44QgmKmWpmTDF3-PLm-8" vertex="1">
          <mxGeometry y="30" width="140" height="30" as="geometry" />
        </mxCell>
        <mxCell id="gR44QgmKmWpmTDF3-PLm-10" value="nome do usuario" style="text;strokeColor=none;fillColor=none;align=left;verticalAlign=middle;spacingLeft=4;spacingRight=4;overflow=hidden;points=[[0,0.5],[1,0.5]];portConstraint=eastwest;rotatable=0;whiteSpace=wrap;html=1;" parent="gR44QgmKmWpmTDF3-PLm-8" vertex="1">
          <mxGeometry y="60" width="140" height="30" as="geometry" />
        </mxCell>
        <mxCell id="gR44QgmKmWpmTDF3-PLm-12" value="email" style="text;strokeColor=none;fillColor=none;align=left;verticalAlign=middle;spacingLeft=4;spacingRight=4;overflow=hidden;points=[[0,0.5],[1,0.5]];portConstraint=eastwest;rotatable=0;whiteSpace=wrap;html=1;" parent="gR44QgmKmWpmTDF3-PLm-8" vertex="1">
          <mxGeometry y="90" width="140" height="30" as="geometry" />
        </mxCell>
        <mxCell id="gR44QgmKmWpmTDF3-PLm-13" value="idade" style="text;strokeColor=none;fillColor=none;align=left;verticalAlign=middle;spacingLeft=4;spacingRight=4;overflow=hidden;points=[[0,0.5],[1,0.5]];portConstraint=eastwest;rotatable=0;whiteSpace=wrap;html=1;" parent="gR44QgmKmWpmTDF3-PLm-8" vertex="1">
          <mxGeometry y="120" width="140" height="30" as="geometry" />
        </mxCell>
        <mxCell id="gR44QgmKmWpmTDF3-PLm-14" value="senha&amp;nbsp;&lt;div&gt;&lt;br&gt;&lt;/div&gt;&lt;div&gt;criar tarefa ()&lt;/div&gt;" style="text;strokeColor=none;fillColor=none;align=left;verticalAlign=middle;spacingLeft=4;spacingRight=4;overflow=hidden;points=[[0,0.5],[1,0.5]];portConstraint=eastwest;rotatable=0;whiteSpace=wrap;html=1;" parent="gR44QgmKmWpmTDF3-PLm-8" vertex="1">
          <mxGeometry y="150" width="140" height="50" as="geometry" />
        </mxCell>
      </root>
    </mxGraphModel>
  </diagram>
  <diagram id="ahJHyls1U_VQdxW-qreZ" name="Página-8">
    <mxGraphModel dx="1050" dy="583" grid="1" gridSize="10" guides="1" tooltips="1" connect="1" arrows="1" fold="1" page="1" pageScale="1" pageWidth="827" pageHeight="1169" math="0" shadow="0">
      <root>
        <mxCell id="0" />
        <mxCell id="1" parent="0" />
        <mxCell id="VnPl6DcIDhIHpvWcBHl_-1" value="personificação do perfil do usuário&amp;nbsp;" style="rounded=1;whiteSpace=wrap;html=1;" parent="1" vertex="1">
          <mxGeometry x="140" y="170" width="120" height="60" as="geometry" />
        </mxCell>
        <mxCell id="VnPl6DcIDhIHpvWcBHl_-2" value="PERSONALIZAÇÃO DO PERFIL DO USUÁRIO  &#xa;INTEGRAÇÃO COM REDES SOCIAIS &#xa;MODO DE REVISÃO &#xa;MODO ANONIMO &#xa;LIMITAÇÃO DE PARTICIPAÇÃO &#xa;TIME" style="text;whiteSpace=wrap;html=1;" parent="1" vertex="1">
          <mxGeometry x="220" y="870" width="290" height="110" as="geometry" />
        </mxCell>
        <mxCell id="VnPl6DcIDhIHpvWcBHl_-4" value="integração com redes sociais&amp;nbsp;" style="rounded=1;whiteSpace=wrap;html=1;" parent="1" vertex="1">
          <mxGeometry x="140" y="240" width="120" height="60" as="geometry" />
        </mxCell>
        <mxCell id="VnPl6DcIDhIHpvWcBHl_-5" value="modo de revisão" style="rounded=1;whiteSpace=wrap;html=1;" parent="1" vertex="1">
          <mxGeometry x="140" y="310" width="120" height="60" as="geometry" />
        </mxCell>
        <mxCell id="VnPl6DcIDhIHpvWcBHl_-6" value="modo anônimo" style="rounded=1;whiteSpace=wrap;html=1;" parent="1" vertex="1">
          <mxGeometry x="140" y="380" width="120" height="60" as="geometry" />
        </mxCell>
        <mxCell id="VnPl6DcIDhIHpvWcBHl_-7" value="limitação de participação" style="rounded=1;whiteSpace=wrap;html=1;" parent="1" vertex="1">
          <mxGeometry x="140" y="450" width="120" height="60" as="geometry" />
        </mxCell>
        <mxCell id="VnPl6DcIDhIHpvWcBHl_-8" value="time" style="rounded=1;whiteSpace=wrap;html=1;" parent="1" vertex="1">
          <mxGeometry x="140" y="525" width="120" height="60" as="geometry" />
        </mxCell>
        <mxCell id="VnPl6DcIDhIHpvWcBHl_-9" value="RF01&lt;div&gt;&lt;br&gt;&lt;/div&gt;&lt;div&gt;&lt;span style=&quot;background-color: transparent; color: light-dark(rgb(0, 0, 0), rgb(255, 255, 255));&quot;&gt;&lt;br&gt;&lt;/span&gt;&lt;/div&gt;&lt;div&gt;&lt;span style=&quot;background-color: transparent; color: light-dark(rgb(0, 0, 0), rgb(255, 255, 255));&quot;&gt;&lt;br&gt;&lt;/span&gt;&lt;/div&gt;&lt;div&gt;&lt;span style=&quot;background-color: transparent; color: light-dark(rgb(0, 0, 0), rgb(255, 255, 255));&quot;&gt;&amp;nbsp;&lt;/span&gt;&lt;/div&gt;&lt;div&gt;RF02&lt;/div&gt;&lt;div&gt;&lt;br&gt;&lt;/div&gt;&lt;div&gt;&lt;br&gt;&lt;/div&gt;&lt;div&gt;&lt;br&gt;&lt;br&gt;RF03&lt;/div&gt;&lt;div&gt;&lt;br&gt;&lt;/div&gt;&lt;div&gt;&lt;br&gt;&lt;/div&gt;&lt;div&gt;&lt;br&gt;&lt;/div&gt;&lt;div&gt;&lt;br&gt;RF04&lt;/div&gt;&lt;div&gt;&lt;br&gt;&lt;/div&gt;&lt;div&gt;&lt;br&gt;&lt;/div&gt;&lt;div&gt;&lt;br&gt;&lt;br&gt;RF05&lt;/div&gt;&lt;div&gt;&lt;br&gt;&lt;/div&gt;&lt;div&gt;&lt;br&gt;&lt;/div&gt;&lt;div&gt;&lt;br&gt;&lt;br&gt;RF06&lt;/div&gt;" style="text;whiteSpace=wrap;html=1;" parent="1" vertex="1">
          <mxGeometry x="100" y="180" width="30" height="360" as="geometry" />
        </mxCell>
        <mxCell id="8RoC4HmOvQBZngGDbCRo-8" value="+nome: string&lt;div&gt;+email: string&lt;/div&gt;&lt;div&gt;+senha:string&lt;/div&gt;&lt;div&gt;+perfil: string&lt;/div&gt;" style="rounded=0;whiteSpace=wrap;html=1;" parent="1" vertex="1">
          <mxGeometry x="560" y="170" width="120" height="60" as="geometry" />
        </mxCell>
        <mxCell id="9gG60jrp6jHzs4pQJOp2-2" value="conpartilhamentoderesultados()&lt;div&gt;AutenticarUsuario()&lt;br&gt;&lt;div&gt;&lt;br&gt;&lt;/div&gt;&lt;/div&gt;" style="rounded=0;whiteSpace=wrap;html=1;" vertex="1" parent="1">
          <mxGeometry x="560" y="240" width="180" height="60" as="geometry" />
        </mxCell>
        <mxCell id="9gG60jrp6jHzs4pQJOp2-4" value="status&lt;div&gt;comentários&lt;/div&gt;&lt;div&gt;aprovar()&lt;/div&gt;" style="rounded=0;whiteSpace=wrap;html=1;" vertex="1" parent="1">
          <mxGeometry x="560" y="310" width="120" height="60" as="geometry" />
        </mxCell>
      </root>
    </mxGraphModel>
  </diagram>
  <diagram id="MiPA2d3h4nXN5GHGKbsM" name="caso de uso">
    <mxGraphModel dx="1434" dy="772" grid="1" gridSize="10" guides="1" tooltips="1" connect="1" arrows="1" fold="1" page="1" pageScale="1" pageWidth="827" pageHeight="1169" math="0" shadow="0">
      <root>
        <mxCell id="0" />
        <mxCell id="1" parent="0" />
        <mxCell id="2H459xnWYyA3NPqTyAFp-4" value="cliente" style="shape=mxgraph.signs.people.man_1;html=1;pointerEvents=1;fillColor=#000000;strokeColor=none;verticalLabelPosition=bottom;verticalAlign=top;align=center;sketch=0;" vertex="1" parent="1">
          <mxGeometry x="130" y="150" width="37" height="98" as="geometry" />
        </mxCell>
        <mxCell id="2H459xnWYyA3NPqTyAFp-5" value="tecnico" style="shape=mxgraph.signs.people.man_1;html=1;pointerEvents=1;fillColor=#000000;strokeColor=none;verticalLabelPosition=bottom;verticalAlign=top;align=center;sketch=0;" vertex="1" parent="1">
          <mxGeometry x="130" y="450" width="37" height="98" as="geometry" />
        </mxCell>
        <mxCell id="2H459xnWYyA3NPqTyAFp-6" value="banco" style="shape=mxgraph.signs.people.man_1;html=1;pointerEvents=1;fillColor=#000000;strokeColor=none;verticalLabelPosition=bottom;verticalAlign=top;align=center;sketch=0;" vertex="1" parent="1">
          <mxGeometry x="710" y="287" width="37" height="98" as="geometry" />
        </mxCell>
        <mxCell id="2H459xnWYyA3NPqTyAFp-8" value="" style="verticalLabelPosition=bottom;verticalAlign=top;html=1;shadow=0;dashed=0;strokeWidth=1;shape=mxgraph.ios.iBgFlat;strokeColor=#18211b;" vertex="1" parent="1">
          <mxGeometry x="275" y="40" width="340" height="550" as="geometry" />
        </mxCell>
        <mxCell id="2H459xnWYyA3NPqTyAFp-9" value="checar saldo" style="ellipse;whiteSpace=wrap;html=1;" vertex="1" parent="1">
          <mxGeometry x="392.5" y="60" width="95" height="60" as="geometry" />
        </mxCell>
        <mxCell id="2H459xnWYyA3NPqTyAFp-11" value="manutenção" style="ellipse;whiteSpace=wrap;html=1;" vertex="1" parent="1">
          <mxGeometry x="397.5" y="440" width="95" height="60" as="geometry" />
        </mxCell>
        <mxCell id="2H459xnWYyA3NPqTyAFp-12" value="transferir" style="ellipse;whiteSpace=wrap;html=1;" vertex="1" parent="1">
          <mxGeometry x="390" y="270" width="95" height="60" as="geometry" />
        </mxCell>
        <mxCell id="2H459xnWYyA3NPqTyAFp-13" value="sacar" style="ellipse;whiteSpace=wrap;html=1;" vertex="1" parent="1">
          <mxGeometry x="390" y="200" width="95" height="60" as="geometry" />
        </mxCell>
        <mxCell id="2H459xnWYyA3NPqTyAFp-14" value="depositar" style="ellipse;whiteSpace=wrap;html=1;" vertex="1" parent="1">
          <mxGeometry x="390" y="130" width="95" height="60" as="geometry" />
        </mxCell>
        <mxCell id="2H459xnWYyA3NPqTyAFp-15" value="reparo" style="ellipse;whiteSpace=wrap;html=1;" vertex="1" parent="1">
          <mxGeometry x="395" y="510" width="95" height="60" as="geometry" />
        </mxCell>
        <mxCell id="2H459xnWYyA3NPqTyAFp-16" value="sistema de caixa eletrônico" style="text;strokeColor=none;fillColor=none;html=1;fontSize=24;fontStyle=1;verticalAlign=middle;align=center;" vertex="1" parent="1">
          <mxGeometry x="395" width="100" height="40" as="geometry" />
        </mxCell>
        <mxCell id="2H459xnWYyA3NPqTyAFp-18" value="" style="endArrow=none;html=1;rounded=0;entryX=0;entryY=0.5;entryDx=0;entryDy=0;" edge="1" parent="1" target="2H459xnWYyA3NPqTyAFp-9">
          <mxGeometry width="50" height="50" relative="1" as="geometry">
            <mxPoint x="190" y="170" as="sourcePoint" />
            <mxPoint x="230" y="110" as="targetPoint" />
            <Array as="points" />
          </mxGeometry>
        </mxCell>
        <mxCell id="2H459xnWYyA3NPqTyAFp-19" value="" style="endArrow=none;html=1;rounded=0;entryX=0;entryY=0.5;entryDx=0;entryDy=0;" edge="1" parent="1" target="2H459xnWYyA3NPqTyAFp-14">
          <mxGeometry width="50" height="50" relative="1" as="geometry">
            <mxPoint x="190" y="190" as="sourcePoint" />
            <mxPoint x="270" y="150" as="targetPoint" />
          </mxGeometry>
        </mxCell>
        <mxCell id="2H459xnWYyA3NPqTyAFp-20" value="" style="endArrow=none;html=1;rounded=0;" edge="1" parent="1" target="2H459xnWYyA3NPqTyAFp-13">
          <mxGeometry width="50" height="50" relative="1" as="geometry">
            <mxPoint x="190" y="200" as="sourcePoint" />
            <mxPoint x="260" y="190" as="targetPoint" />
          </mxGeometry>
        </mxCell>
        <mxCell id="2H459xnWYyA3NPqTyAFp-21" value="" style="endArrow=none;html=1;rounded=0;entryX=0;entryY=0.5;entryDx=0;entryDy=0;" edge="1" parent="1" target="2H459xnWYyA3NPqTyAFp-12">
          <mxGeometry width="50" height="50" relative="1" as="geometry">
            <mxPoint x="190" y="210" as="sourcePoint" />
            <mxPoint x="260" y="230" as="targetPoint" />
          </mxGeometry>
        </mxCell>
        <mxCell id="2H459xnWYyA3NPqTyAFp-22" value="" style="endArrow=none;html=1;rounded=0;" edge="1" parent="1" target="2H459xnWYyA3NPqTyAFp-11">
          <mxGeometry width="50" height="50" relative="1" as="geometry">
            <mxPoint x="180" y="490" as="sourcePoint" />
            <mxPoint x="240" y="390" as="targetPoint" />
          </mxGeometry>
        </mxCell>
        <mxCell id="2H459xnWYyA3NPqTyAFp-23" value="" style="endArrow=none;html=1;rounded=0;" edge="1" parent="1" target="2H459xnWYyA3NPqTyAFp-15">
          <mxGeometry width="50" height="50" relative="1" as="geometry">
            <mxPoint x="180" y="510" as="sourcePoint" />
            <mxPoint x="260" y="530" as="targetPoint" />
          </mxGeometry>
        </mxCell>
        <mxCell id="2H459xnWYyA3NPqTyAFp-25" value="" style="endArrow=none;html=1;rounded=0;exitX=1;exitY=0.5;exitDx=0;exitDy=0;" edge="1" parent="1" source="2H459xnWYyA3NPqTyAFp-14">
          <mxGeometry width="50" height="50" relative="1" as="geometry">
            <mxPoint x="500" y="330" as="sourcePoint" />
            <mxPoint x="700" y="300" as="targetPoint" />
          </mxGeometry>
        </mxCell>
        <mxCell id="2H459xnWYyA3NPqTyAFp-26" value="" style="endArrow=none;html=1;rounded=0;exitX=1;exitY=0.5;exitDx=0;exitDy=0;" edge="1" parent="1" source="2H459xnWYyA3NPqTyAFp-13">
          <mxGeometry width="50" height="50" relative="1" as="geometry">
            <mxPoint x="600" y="380" as="sourcePoint" />
            <mxPoint x="700" y="320" as="targetPoint" />
          </mxGeometry>
        </mxCell>
        <mxCell id="2H459xnWYyA3NPqTyAFp-27" value="" style="endArrow=none;html=1;rounded=0;exitX=1;exitY=0.5;exitDx=0;exitDy=0;" edge="1" parent="1">
          <mxGeometry width="50" height="50" relative="1" as="geometry">
            <mxPoint x="492.5" y="310" as="sourcePoint" />
            <mxPoint x="697.5" y="350" as="targetPoint" />
          </mxGeometry>
        </mxCell>
        <mxCell id="2H459xnWYyA3NPqTyAFp-28" value="" style="endArrow=none;html=1;rounded=0;exitX=1;exitY=0.5;exitDx=0;exitDy=0;" edge="1" parent="1" source="2H459xnWYyA3NPqTyAFp-11">
          <mxGeometry width="50" height="50" relative="1" as="geometry">
            <mxPoint x="650" y="420" as="sourcePoint" />
            <mxPoint x="700" y="370" as="targetPoint" />
          </mxGeometry>
        </mxCell>
        <mxCell id="2H459xnWYyA3NPqTyAFp-29" value="" style="endArrow=none;html=1;rounded=0;exitX=1;exitY=0.5;exitDx=0;exitDy=0;" edge="1" parent="1" source="2H459xnWYyA3NPqTyAFp-15">
          <mxGeometry width="50" height="50" relative="1" as="geometry">
            <mxPoint x="650" y="440" as="sourcePoint" />
            <mxPoint x="700" y="390" as="targetPoint" />
          </mxGeometry>
        </mxCell>
        <mxCell id="2H459xnWYyA3NPqTyAFp-30" value="" style="endArrow=none;html=1;rounded=0;exitX=1;exitY=0.5;exitDx=0;exitDy=0;" edge="1" parent="1" source="2H459xnWYyA3NPqTyAFp-9">
          <mxGeometry width="50" height="50" relative="1" as="geometry">
            <mxPoint x="550" y="170" as="sourcePoint" />
            <mxPoint x="700" y="280" as="targetPoint" />
          </mxGeometry>
        </mxCell>
      </root>
    </mxGraphModel>
  </diagram>
  <diagram id="BYaKDupICSqC97kQhnGE" name="Página-9">
    <mxGraphModel grid="1" page="1" gridSize="10" guides="1" tooltips="1" connect="1" arrows="1" fold="1" pageScale="1" pageWidth="827" pageHeight="1169" math="0" shadow="0">
      <root>
        <mxCell id="0" />
        <mxCell id="1" parent="0" />
      </root>
    </mxGraphModel>
  </diagram>
  <diagram id="EkGXp9i4JZIBlOEUMVF2" name="sequencia ">
    <mxGraphModel dx="3915" dy="5448" grid="1" gridSize="10" guides="1" tooltips="1" connect="1" arrows="1" fold="1" page="1" pageScale="1" pageWidth="827" pageHeight="1169" background="none" math="0" shadow="0">
      <root>
        <mxCell id="0" />
        <mxCell id="1" parent="0" />
        <mxCell id="QXlVbmSmWBWOAAHCpMSD-1" value="" style="shape=image;verticalLabelPosition=bottom;labelBackgroundColor=default;verticalAlign=top;aspect=fixed;imageAspect=0;image=data:image/png,iVBORw0KGgoAAAANSUhEUgAACFoAAAbjCAMAAADroCfyAAAABGdBTUEAALGPC/xhBQAAACBjSFJNAAB6JgAAgIQAAPoAAACA6AAAdTAAAOpgAAA6mAAAF3CculE8AAABPlBMVEX////q6urf39/S0tKlpaW1tbVubm4uLi4AAACBgYEYGBj09PSTk5MFDxQUOU0hX38la4/7+/sykcE5o9k6pt3ExMQZR18viLZZWVlEREQpdZwsf6kKHScPLDo1mModU283ntNqamrTu9Sug7D07/Xv5+/i0+P9/P359vmDQYfBocOux9R/pbhOdIcwQ0wCBwmOUpK53/O23fBfpcnm8/rbx9yZY5zp3emkc6e4krrKrsz7/f72+/1dtuOr2fDu9/zc7/lMruCd0+6OzOvR6veMpbFuvebF5fV+xehmuuR0en5MU1Z1weaRzetWX2NmueSXpayGvNcoXnnQ6fbm9Pq+zNMAAgPC4vKPk5Zmtd0xUGDBw8QaIyhor9QQMECSpa5KrN6jpaVCpNYcUm0NJjN3veFqsNRZn8NSq9gHFBtrmWcbAAAAAWJLR0QAiAUdSAAAAAlwSFlzAAAuIwAALiMBeKU/dgAAAAd0SU1FB+MJEAMPEwBtFSoAAIAASURBVHja7f0Je9tG/i5sShQlUYsd07ZiKrbjvHa8zuaeSZw46b377e7Z9zP7vn//LzDERgAUJRESSfwA3Pd1zr8diQRBVqnqYVWhsLcHAAAAAAAAAAAAAAAAAAAAAAAAAAAAAAAAAAAAAAAAAAAAAAAAAAAAAAAAAAAAAAAAAAAAAAAAAAAAAAAAAAAAAAAAAAAAAAAAAAAAAAAAAAAAAAAAAAAAAAAAAAAAAAAAAAAAAAAAAAAAAAAAAAAAAAAAAAAAAAAAAAAAAAAAAAAAAAAAAAAAAAAAAAAAAAAAAAAAAABX7I8OxomD0X7bpwIAdNr+4dHxpOr46FC+AADu4uDkdLLK6clB26cGAHTM2fnx5HrH52dtnyAA0B1nJ5Uc8eDhw28ePXr0zcOHDyo/PREuAIC1TM8XAeLho8dPnlY8fvSwDBfTtk8UAOiAi2KJxbfPnq7y7Nti0cVh26cKAEQ3neXTII+ePL3Ok0f51MilWREA4CajbMjiwXfXB4vU8xfZwIWLRQCA6x1moxHf3BIskpGLb7KHnrd9ygBAWNmFIS+/vzVYJL5/ma3mbPukAYCgsmTx6vYhi1w2cDFzpQgAsEKWLJ6vGyySi0XS5Zyztk8cAAgoTRYPHjdIFk+ffv/AnAgAsMpFmizWW2YhWwAANxvdKVkU2eKi7dMHAEKZpvtZPGucLPJscWrvLACg4qjpCs7S43RfzrbfAAAQyEF61emdksXTp4+SJ4/bfgsAQBjT43k4eLH2fhbLXpoSAQAqxsm4Q7PLTqt+SJZbHLX9JgCAIM7uMx2ymBIZtf02AIAYkkGLB3eeDkm8sCknAJBLLzx9dJ9k8fR5MmxhtQUAsJfdSf1+gxbZsIU9OQGAueN7D1pkwxanboEKAOztJ5MZP9wzWjx9YLtvACBxPg8FL++bLJ6+cv0pAJA4vvMW31XfJ2MfZkQAYPDSTS3uuYgzkSzkPGj7zQAAbbvYyHxINiNy3vabAQDadjKPBN9sIFo8t2sWALC3N5tHgmcbiBY/JBMrbb8ZAKBtG7n0NGFDTgBgb5okgk0ki6cP3aIMABhtaBXn06ffzo902PbbAQDalUSLhxuJFsmd1cdtvx0AoF2iBQCwQcltT1+JFgDAZow3cNvTMlrYMwsABm68oR2zjFoAAHvWWgAAGyVaAAAbtLlo8Uq0AADO7MYJAGzQxu4h8mB+oP223w0A0LLkzqePN5AsnrjzKQCwt3e0oY0tns2Pc9n2mwEA2na4oXWcySrOk7bfDADQtv0NreN8MT/MQdtvBgBo3fE8Ezy/d7L4Pkko07bfCwDQupN5Jvj23tHiG0stAIBEsmnW5Mkm5kMO234rAEAAxxu4RuS5+RAAIHM+TwUP7jlskWzFedT2GwEAIkj3+v7uXsni8cQu3wBA7uTewxYv50eYtf02AIAY0mGLb+6RLL4zaAEAlJJhi8n3d04WTx4YtAAAStPTeTZ4eedo8e3ETU8BgIrD+0yJpNMh47bfAgAQyGUSD57dKVmkW3wf29MCACidJVMiD+6y3OL7B6ZDAIBlB5O7ZYsnyQ7ftvgGAJac3ylbPEl2tJictH3yAEA4J3fIFtlsiOtOAYCrjtJs0WQt5+M0WVxawgkAXDWdTZpdg/poIlkAANdL50QmL39YK1j88DB99JFkAQBcI13LOZk8WuNeZY/SyRArOAGAGxycpoHhxfNbgsXz9JrTyelF2ycMAIR2djnJw8WTW4PF5NJOWQDALcbZwMXkwavVF4s8fpVNhUxO3TcEALjd2dEk9+Db7+r7XHz/3bcPil8enbV9ogBAN4xOJqWXDx9lHr6s/PRo1PZJAgDdcXZyOrne6YkRC2B3RnPjheS/2j4j4C4ujq4JFkcuCwF2YX+eJ2az677jzGbzlGEtOXTMaDyrD16czsa+LABbNx2Njy4na7k8Go/s3AedMh1djP+r+Z/vfzW+8OcLbN/+xcnxeqmidHxyYfwCOmU8/8t1pSmwdWcXR6vWeb14+PDhN/mC8kffzP/jxapFYEcXVoFBZ4gWwPbtny/NgTx4+OrR88fX3NXoh8fPH716+KD+jMtzgxfQDaIFsGX757VZkJevHj1e42ZGT58+efzoVfXC+MmxdAFdIFoA23Q2ruaKh4+erZUqKvni2aOH1XQxNjMC0YkWwPZcVK4vffHNs2apovTsm8oKjJmL5CE20QLYkrPzct3mt89/uGuuyNdfPP+2XNV5bugCAhMtgK3YL+8q8PB5w1mQa+ZGnpdTIydWXUBYogWwBaPFTMiL7+45XlEbu/huMTMys8kfBCVaABtXBotXjzeXKzKPXwkXEJtoAWzYIli8eLSRiZArEyOPXggXEJhoAWzU/iJYPN9Grsg8X4QLay4gHNEC2KBpsXjz4cZnQuoeF0s6T9wBCYIRLYDNOTzdTbCohovTw7bfNVAjWgCbMspvFPLizntjNfMsnxa5tOQCIhEtgM2Ynud3HtviGotlz/N7mJ2bFYE4RItwRqPReG62kPzX/Idtnxfc7CC/V8h2rgq5zpNH+b1FDtp+/0BBtAhjOjqc54nJDeYp43DkyxkhFcs3H25wf6z1/PDQck6IRbSI4OxgPDudrOl0Nj5wAwWC2c+GLB7saJFF3bNsVuTYdagQg2jRtv3Dk+N1U0Xp+ORQM0oc4/weZDudCyk9ye9cpi2DEESLNk0vTq4OVrx4+PDVo0ePnj3OPZv/x6uHD19ceeDpyYURYCKYZhN5D3Zwwel1HmcDFzN/EhCAaNGas8PLelR4+e2j549vmKj+4fHzR9++rD/n8tDcCG3bP211yCKTD1ycGs2D9okW7VjKFS+/eb72F77Hz795KV0Qx2E2ZPFdm8Ei8V02cGH/LGidaNGC6UX1QpCHjx43/rb35PGjh5VDzMyM0JrsypCX37edLJ4+/T7L3CdtfyIweKLFzu1X1le8ePXszoPIT569KtdfnJ4YB6YN02z47VWrkyGLv4nsduuXkja0S7TYsYtyIuTld/feAeCH78q5kcuLtt8bw7Of1efWJ0MK32V/C4I2tEq02KXp4eI60xePNrSz0A+PFmMXx4e+rbFT2QLOBwEmQwrfP7CYE1onWuzOdFzMhDx4tdG2+PtXD4p5kbFwwe5cpDX65c7337zJD+lA3qkxPGiRaLErZbB4+Xzj89JPnr8ULti1i2wdcohlFpU/hmyFs2wB7REtdqMMFq+2tK3Q41fCBTuVJYtXbUeJq17JFtAu0WInDk+LmZAtjh3/UMyLnLqyn+0LmyxkC2ibaLEDo3zx5oNt3236yaM8XBy7BTtbliWL522niNWeyxbQJtFi686OdhQsauHiyBadbFPoZCFbwJ2cjTYk2UnvZFMHc8HXCsUii21OhVT98KpYctH2O6fHgicL2QLuYjyJaNb2xxJPvqPQ5OEOr8/7Id8D3L5BbEv4ZCFbwB2IFp0wPc8+mBc7vtn043wXrXPXirAN2U5ZoZNFni3snbVJ+6PD8flsNitvVXA5m52MxyNru/pCtOiCfMjiwaPdN6v5kgsDF2xBJ5JFn7PF7r8yjC7OK4FihdPZ+YWA0X0Xsw1Jrl043tTBztv+WGLJ7jW907mQUjEr4jpUNi27I1nIq07r0mVHfbxXWfK+dvZiZwfnl5M1zc4PevhxcweuENmW6Swbsmjtxk3fZQMXM3/qbFZXkkWRLdr+vDZvd9Hi4Px43VhRuDw3eoFosS2jbPSwzU2Q8w2PT/2hs0knacVuOzWsJ/0TOGn7E9u43USL6cXRUmp48PDbR4+ePX68GIh98vjx40ePXj18UX/c6clB2x8RLRMttiOfDGn5XtPfmRRh09Kq/TLYfUOu8+RlL/8AdhAtlnLFi4ePnt94T8Xvnz96+EC6oCBabMM0+6t82fq9pr/P7lp2ZFKEDdlPv72GutfpTX5Iu7u+LeXcerQYnVTWbL785vma5f3D81eV8YvjsX37hku02IKzbNXTqwDf7J5kG2hd+htnI6Zpl9N6Zl7f9+lX6J5l6+1Gi+lhub7iwaum92n+4fm3Zbo4MnQxVKLF5mWX5kW5Ni/bOaiXl+Cxe7MA83zNpLOCPbsufpvR4mxxk+bJi2/umCGfvVrMjRzbtGyYRIuNu0j/Ml+E+WL3fTpEeeovnPsbd+bikFI6cNevRm570eLspByvuFcT9mwxdnE67tmYEesQLTYt2wI50jK3bCmbLY+5t/1odXv9+t+rYbttRYsyWDy8/6Drk+9eCBfDJVpsWPa3Gex7Xbbgon/X4LFb02QO/kGY8bh1fZ+Mzh/3qXfbTrSYniwGLDa0TPfxQ9MiQyVabFb2x9nCzt43eyRbcH8nnVtokfmub7V/K9GiWGPx4NEGh6WKGzFPjm2vMyyixUadRFrAWfVctuC+DpI69G3bVfku0nn/Hl2ssIVocZBfFbLx7YMX4eLIZWpDIlpsUposHgRMFvNs8UC24F6y6ZCOLbTIPOnZlMjGo8XZ0RZGLAqLcKGnGRDRYoOyZBF0Kvp72YJ7OU8q0OO26/HdPE7OvT+3T9x0tDjM50K2ESwSxc0S3Yl5OESLzQmdLGQL7mfU2emQRDol0pvp/s1Gi7NZ1vF/u8U9Vh/nV4v0J95xM9FiY4InC9mCe7ns7HRIIp0S6c09UDcaLQ6yIYsXWx6QevTAwMWQiBabch49WRTZwvcG7iC9K9mztqvw3T1Lzr8v9ynbYLQorjjd1lxIKZ8VOe1LIXAj0WJDLuIniyJbuMScxtJ7h3TkTuqrPezRvUQ2Fy32s/sd7eZOit9lAxfuljgEosVmpNflxb9rU3qvpj5dhceOpN9tO3O/01V+6NF04MaiRXZXgsk3uyqDhyZFhkK02IjsjmQhrzqtS/e3cK8yGtoPuRNcM4/6s9/3pqLFeXbF6Q4v+8k27zv17ab3RItNmHYlWRTZwogkjcw6vYYzk67k7MctUDcTLabZZhYPd1qu2d0SdTq9J1pswPRyl4OK9/RNOiIpW9DAqDPR+SbPe3MB6kaiRdZs7Xws6slDOwMPgWixAScB70h2vVf+sGkoGbR40XbFvb8XfRm22ES02E939n7QwkU/6bebyczXm14TLe4vvTikO3eazu4x7TIR1jbq+IWnhWd9GbbYQLTIloe9aGXleXZHI0OnvSZa3Fu6wq1L89DpnHNP1rOxC7OuX3haeNiTYYv7R4ssWbT1hSi7Cl626DPR4r7SmzZ169YK6Q0VenSzJrZr1LkafmPN78Gwxb2jRZYsvm3tC9H36dDpse83/SVa3Fe6ynrTNyLesu/SjWva/uToiN4MWvRm2OK+0SJLFm0uD8umZV0G31+ixT1ddPKmTd9absG69nszaJEPW3S/P7tntGg/WRTZwthpb4kW93OW/JG+6NBCi/zvOlkrf3rW9qdHF5z04/KQzIteXB51v2gRIVkU2cJ6i74SLe7nsqPf6NJvb725ESRbdNaLPS0K6cUJnc/U94oWZyGShWzRc6LFvYw7u//xI1visZbzPg1aZMMWnb/5732iRbZTVvvJYpEt2v4w2QrR4j7S/P+y7b/Qu3lpSoR1nHY1Pa+WZOrTtj/T+7pPtAiTLIps0f35KVYQLe5j1uHbQaY3guzBYnm2K12n3LnFRNd70ocVzPeIFunWwVG+DmXZovODSKwgWtzDRWenQxKP+tDGsm2zMN9xN+RVDyL13aPFYaytg7O9s7RCPSRa3N20w9MhiZfugcptzjq6Tvl6j3uwkPPO0SLbOriV3b1XS7OF7S16SLS4u2R92yTQX2njv2qDkdxm3K9FnIkX3W/z7hot0m9Dsdqs57a36CfR4s72O3Qn9dW+6cf+QWzRcff2mr1Nshftcduf6/3cNVrMAm4d/Miir14SLe5s1rG7kl2V3qfMHzXX2+/wQuXr/ND9RH3HaDGOc3FIRbo18GHbHykbJlrc1UEPdhJKByMP2v4kieu8P7cPKT3s/ETg3aLFfqwlnIXsMpFuZz2uEC3u6rjbazgzL7s/Nsw2HXc/P1/1vPO1/k7RIt0rK9ISzsL3duXsIdHiji56sXL+sUu/uMF+zza1yDzp/LfkO0WL84ALLTLfWVDeP6LFHR33Y6T4Yee/wLFF5128re/tvu16T3aXaJHGxKBNVtIMTUZtf6pskmhxNxfhLuK6m+8NW3C9yz7Oh2QzIp2+dcVdosVl4GXn6YJyX3F6RbS4m+OIS63v4pW/aa5z1sPrQxI/dH3XrDtEi3HoZefP3C2xb0SLO7noTZv7g2ELrnPRv/2yMi86XumbR4v0TopBp0MS33Y97bFEtLiT3gxaGLbgekdd3xTuOslmcUdtf7r30DxaJHclexD4y9AP9tjpGdHiLg56M2iRD1vY24IVkm+6z9quoNvwrON3Vm8cLUbh76T4nXaoX0SLu5jFHlxs5qGvC6yUXlPQdvXcjo5ffto4WiQt1ougazhz9tjpF9HiDka92NOi8NiFX6x00acEXfew24stmkaLi9BrODOPreTsFdHiDk76sBFnKfm6cNL2Z0o8J9EH0e/uUbfrfNNo0YldeJKVnKf25OwL0aK5aQe+AjSR3knEnzTLjvu61CJbbNHh0feG0aIbWwf/YNiiT0SL5g6TxdZt/x1u0gN3HuSqaS93+c486XacbhgtOjFokV2sZtiiL0SL5o77dkneN93+Csd2jPo171f3stMLjJpFi24MWuQXoOqNekK0aGy/R1ee5n/SHV8vz1aM+7N5y1WvOt3wNYsWnbmg7ZFhi/4QLRo76cof6voedntRG1tx1N9VnFkv1t1NsxpFi+5c0JZOU5ma7QfRorHTfi3iTDzv+A5CbMNlV3qku3jc6TuUNYoWHfouZGvg/hAtmjro4eK2J3bC44oeVvSlKt/2J3yvoln3sWcduqDNHY3648JWjA2d9HEG+pUZEZbs9+1CqLoHXV5f1CRajLt0j7lX+qO+GCnKhnp5X4Wu31OBzRt1Zxz9Lh52+RKRJtEiuaDtu7Y/7XU9dgPUvhh1esqxBQf9/C73wIwIdb2+QKTjl4g0iBYdu5Vicrv787Y/XjZg2u2tY3avl/MhZkS4YtznC0SyS0SGEC2S63y+bfvDXt93xk/74rjL44It6Onmxx3f+JjNm3Vn9d9dPO/yVPD60SL97tihBuuJ8dO+OOlyeN+9/Z4um39i1yzqZn2+9jSb1R9AtLjo2gTuq05vOELpsMt/Ybt32NfNj1/arIaabs3RN/ZDl68+Xf/cj7o2gfvMFH0/HM6UZBOzvk5APxIxqUkahrZr5TYNIlp0bT7kabai3NYWnXeWXEqpJNeXfFrft/3Htw3fd7mlZQtEi7jWPvfOzYeYEemJdMxCSa5t1L2/1HU9sJ6XilGXdlq6ixcdrvBrR4sOXtBmj50+OJjkbFKynsNuXcnVxLcWW1DR8x2zur1n1trRoosXtLlGpPumyXTI8bFrRNbW45tBdvtWkGyaaBHYutGikxe0fWvXrM5LRssmo/NkAMpCzrWc9veCvMfGIakQLQJbN1ocdrEQn9tjp+uSxmMeD9M74xm2WMdZn5e2mRijItmM85u26+Q2fdPhZm/daHHUpfuHFJ5oibruOB+uODFssaaDLn4JWNdDU5yUer7Pd7d3+l43WnRzlPWllqjbkrYjLcGzicmt9fT6m1yXv8WxcaJFYGtGi/1ujrJ+oz/qtP3yqtM0ZHR12nGXZl0cX1zXdzbNoiRaBLZmtLjo5ijrc7fj7rSkmzzNZrTSK0WU5e2OOzm+uKbHVk9REi0CWzNanHSzDDu9BzvJ2uHFPgYHVnKupZvji+vyB01JtAhszT/VWQd3tUh0eTezwVsaqJhZlLuGnm9Q6A+akmgR2JrRoqt3mHto+77uOqrfRDu9l4iJ9lv0+gIRl4hQJVoEtl606Oy18o+s4+ysKzMgY3cpu12vLxBxiQhVokVg60WLzn4VeuaLbldNk/WIx7WtLC5tbnGr8363tr4rUOp5ju52kl4vWoy7d2+yjNswd9b51atNK9eico2uropak+8KlGz0Hdh6XW93vwqJFh01WhUjVsQN6i77fO1pdvWpS5DJiBaBrdf1dverkBXlHbVy8mPFJAl1XbyNYANPfFdgQbQIbL2/1O5+Fepy2QzZNUs2bW5xm64uuF6XaMFCz6+07vY34/X+Urv7VeiVrqiLrr3QdOmCVJZMhxAtDFuRGUJtb/szvk/Z9LkEu3z1zoBVdvius9/3zZLvcS/b/qPbppcd/h7HpnW3Y1pP76NFsjL/Qduf8t0k0eKk7Q+Zhi6un/eobf7NMrPPDEhXt3JcU6dvVLHWuXe4vXrsYrXuuXFo4toBDfY6/ae6HtGC0qyziwDX0uneS7QgnKObrjFNN7dQpNfo7OZ267LTN6UkWjxvu0puz/MuN3VrRYsOt1eug++edEuL67dcTC8e0busZutjBqTn1b3TlX2taNHhAnQdfOfcunnFsf2+r9XhP9X1dLq1ZcM6u030ejp9fWPfo0Wn19gO062jEreMagxal/9U1yJaUOrwVP06Or2wSLQgljVuFGK/72t1+U91LaIFpQ5fu7iOB13exGeyrq62V6JFx6xxe9P0CpLjtk80JNGCIenuZo5r6PZsvmhBKGvtW2G/7+uIFgxJd29BsYZuX4MgWhDJtTt81yUXnU1sbnGVaMGQHPW5vj+6dWo4MtGCSNa8R8iaCWR4RAuGpNeXiHT6AhHLOIlk7ZkO+32v1uU/1bWIFlT0+p453b5fjmhBHA3WZ66x2nOIDvv8LS7xSqSkNO3xOs50FWd3m7i1et4Ot1ffJz1Q2x8ya2pwVeka16gOUc8v9O/4pf5sXLJ/3rO2K+V2POv2dXBrRYsOt1fuIdIh6V5Y696n1uYWq3T4T3U9ogVVJx0eUb9Fx+/aLVoQRqMdvG/dD3yQOvynuh7RgqqL/lb4pKpftP353t3a0aKja2U6fe+4gWl43zH7fa/Q8+0JO75BIRuXToy2XSm3Y72L5cJaK1pMu1t8FpR3xtmkYQxc80LVYenun+p6LMum5rSviy2edXyZ4Hp/qd1tr0SLzki2wTptsg1Wej1Jd3er247u/qmuR7SgJvmC8U3btXIbvun4OvX1/lKTNvz7tj/qO+n4fNWA3GGnCptbXNXdP9W1uOKLumSxxYu2q+U2vOh417VetJh1dqd2q7464k5DEI0HOvqvu3+qa7Esm7p0HvWHtuvl5v3Q9XsZrBctkkGn79r+rO+k6+UzGHdaONF4eUb/dfdPdS3fdXyUmI1LNs973na93LznXZ/tXS9adHY7zm7flnZADu52uUfDi0oGoLN/quuxdoolyQY337ZdLzfv265f/7Ze13vY1YuHH3d7Q7PBuPMmFY22whiCw342tIVvra6hbr+Xe30/6fzlb+tFi1FXl8oYP+2GO2+t2WgDzyHo+Z5Z1k6x7LiPMyLPO/+leM0Jg65e0tbt29IOxj1uCGK/77qzrv6prsfaKZad9zFNP+z6fMi60eK4o+vOH5qK74J73Ma0wc1Sh6GnC+YzP1g7xbL9Hlb5Hzo/H7JutJh1dN25LzldkC7GvOsl3OkCUCNTC7O+7k6YeOaKIK447mjvdIPvuv+Fac1oMe7mbdUf22CnA85O79Vh2O+7pse3guz8zSDZinFXlwJe70X3vy+tGS06uo7zkVWcHTC739jSPZNJ3/T6EhEXiHBVur6oi/P113rcg+H2NaPFtJvTWVqiDrj3jIb9vqs6+i1gPS+s2eWqWTcH1a/3qgffltZdFnXZyRncB1qi8DZwk7F7rALtoW5+C1iLVZysctGzrS2e3GfxWRTr/q2edzEXfq8liu/k/leP3uPa1R7q6cbHic5vfsx2nPZrgdGjPqwRXLfzPejiMGvXb0s7BKO77fBdZ7/vivO+3mU6+4Pu9sX+bMV5F7un673oQz1fN1qkiy26drPml+bgo5tuZKfuO+8T3kfJt4CXbf/pbe8PWoLkinQhZ2+G6p73YBHn+tGiiztbdP62tAOwofGGjYx99MRZzyaeS0/8QbPaSZ+GLV704hLrtaPFuHvfhb4zMxvdxlZJ2Nyi1Mt7KiS6f18FtmS/R9efPu5HW7Z2tOjgbqovfZONLhkLO93E99ANXGfSGyddXHK9jle9+DbHNsz6cyORhz248nSvQbTo3m6qPdiGve82uCPFhf2+C8liiwdt//VtwwNLLbjGqDfDFo97csPF9aPFeddmRHqwDXvPbXQfzY0NgHReJ5dcryG9ltxaXVbqzbBFTwYtGkSLzs2IvPQ1NriNLpBIVy/24U/y/jq45Hod3ylgrpUOW3RvV8crnvVk0KJBtEhnRDq0LUkftmHvtw3fs9TmFoXDrg0wrse15Nxg1o+LRF70JUA3iBYdu79cH7Zh77V05eUmN6Ow33furGsDjGtxLTk3GfVib4vnfRm0aBItzjo14tSLbdh77XzTf0Rp2+IKgr0sZPVuRsS15NwoGbZ40PENXZ486M034iZ32Tjq0kVt3/VhG/Y+20IQ2HhY6arDbg0wrueF+RBukq4G7NCU/SqP+nNZY5NocdClcdZebMPeZ1uYvtj4FEtXnfXwGpHvzYdws5MudVAr/dCjgddG9wY97s6Nj/qxDXuPbWXR5YYXhnbXZXf+Utf1jfkQbpZ+tej0BagPe7RcrFG0OOzOZFY/tmHvry1dKmq/78xF/3bNemDtFLc47NRywKuebW4LwfY1ihZpKuzEZFZfdjTrrS1tcLXRTbg6bNqL1fJVz+2Xxa0uu/Pld4V0DWdvRuYaRYt0nVwnSq4vO5r11da25d7g1uGddtL1oeFVf9GGIblZujb827br6l1926svxM2ixVlH1uD25+LgftrizcTs950adX5FW90P/qJZw3mHbyWSDrX359KDZtEi/TLUgWGL3uxo1lNbXBKxsdu0d9xxl64Uv90rNwRiDdPjbvRQK6TTIT26vq1htOjGsIVBi9hG24zn9vtOdWjJ9RrSZtc8F7c66OyUyLc9a7gaRots2CL4QGuPdjTrpfSbxdbi+XaP3hndWXK9jkc9uiiPrUo3t+jgVrTf9WhLi1TTaJEuwQ8+0NqjHc166Xy78XyrYyLdMe7T9acP7FfCerIpkc7tF/d9z6ZDmkeLbLw59DqZPu1o1kdbXw1xYj5sL5+77Mn1pzbAY21p+/KyY3OBT1727vtw42iRhsLQl7X1aUezPtr6DUq3eP1Jl5z050YiNsBjfem33+Aj68te9W8f4cbRItuSIPBc1nM7G4S2g50ntrZrRqf0Z9jCoAVNzIJ3UVd9t53NiVvVPFpk964Nu5KzXzua9c9O9su0uUWiN8MWBi1oIh227NLt+dJb7/VtpP0O0WI/9OU93/ZuzqpfZrv4Bmq/7/RT6MSV4rd7ZNCCRtIuKu7X32U/POhjp3WHaJHNZQUdaX3u8oDQdnRv0rSKDv5mVh3Z4O4W6TikQQsaOOzSUs5sCWfv5vDvEi3Snf5iZsIfencJT7+kQ5W72FVx62tFu6AfwxYGLWgsvUos9NUGpYf9vKTxTtFiFLbcXrruMLSdXRc66uefa0MnPbiTiGvJuYPLzlwmkl4c0sPVgXeKFtl4c8CvQ49cGhDaDnezOhcy80GisMui1vOt8Seam3YlW2TJoocV/G7RIsuE4TbOetbT/Ncbx7vrJuz3nYi/wd1tHvu2wF3snwZeElhKFwee9m0JZ+KO0SItt2jLLdK9Ul1zGNdO7xy2owWjwR13/QLUF255yp10Ilv0N1ncNVpkuxK9bLtgarKFtoO/LCCuHd/vfIt3bu+OUdCpy3U9Mq/FHaV9VOxskSaLnvZZd40W2QqxUFNZD113GtuON7I6s9/3Xh6wOrR7UN33u02j9Er4bNHnZHH3aJEttwj0fehVD/dK7ZUd7PDd8gtGlAasWMOLDbw0xcndBc8WvU4W94gWZ7GmstKR08Ev2wushZuG2e97Lw9YnbqhQuk74ZD7CJ0t+p0s7hEtsqnzKGOtPV4O0xMtLH3Y8eKOoGaB/kyb+d5AJPeTZYtQE/eFV/1OFveJFlmxPQjRaGUBULKIq5ULNnZ6SUpU+13a9LgqW5ftj5p7CJst+p4s7hUtsrHWCNmi50NLPdDSNhM73EgjrvTP9Ju2/0ab+8Z0CPeWZYuHwaL1k4e977LuFS2yy0TazxaSRXgtbY65w+0/A0unRJ61/Vfa1DPTIWzARboo8GWoTZh+SAfkTnvdZd0vWsTIFpJFeKO2Vj3s7KYlkU0jbnB3m/ROg4MfceL+sr2z2u6lqtLNHfu+NPCe0SJCtsiSxeC/mobW2o1IW7guJaCD7i23yBZaDH2dDJuwn26UEOcyqfTCp8llv5PFvaNF+9kiSxZujRjZuL1hJft9J86DrmW73ivfF9iU7F5lk1chwvWTbAFnH+9IVnPvaJFli/YuHc7KyWKvyNItUNqaNU8XGgx9c4tsg7ug1/ev8tydBtmgrJd6GWBS5PuXA/kufP9okZdaO6NNT761ziK+VreuajXXhJFODHXnHqjp/U4ttGBj0sukJg9anxT57sFQvgtvIFrk2aKN4dZsoa1kEdtFu3MSLc7GBDJqe+KyiWyZ29BX37JJ2WLOybetTorkX4V7voAzs4lokSfC3S8Te5wttNUEhdb6SsrW1pCGkga8FyFmm2/z5IU0yKZNZ9nARYtDd1mHNZkNojHaSLTItyXZdaF9N5wE2GVHbX8Dtd936qQrl4lkF4f0fzKaHUvHL9sbuMiHLIayqHwz0aIYbdrljVDzgur9QtuuC7BrVUv7dUWTZrwO3AT1pSjIVuwfZ9+BW9k+7lk2ZHE8lK/CG4oWe2fZ5T0Pd7YvTz625LtNcC3t8B3uHALILsELfwnqK98Y2JJpti5wh/1U4YdsZ+/JyWAq9qaiRVFoOwqET76ZWMDZCSHuEGZzi1QasaJnizRZyIFsx0E2cDF5tNNZkSePslc9brsl3KGNRYtir/adzGQ9fjGssaXuCrLOoYU7ukeUzVuGzhavrJ9im6bnWS//YIe7vDzPhtgn50NKzBuMFsV+qlu/drgYshjO2FJ3Bbk6o/WrVIIIny0kC7ZtlPVTkxc7WnLxLPsiPLkc1nKvTUaLfL3cZPJwq5fP5xHwdEBjS511GGV7mDAn0rLg2UKyYAcOT/OOagfXND7OF1mcDq312Wy02BvlM1nb2629KKmjwe/d3AGBdsJsdUfQQPJsEfIa1CeSBTtRLOfcergouqsBDrFvOFqUM1nbWSbzw6uJIYvuCLTEIV30ESPltCvLFhH3t8j2s5As2IH9Wd7nv9jimovn+VTIZDbASr3paLFYcbGNcFEEiwFGwE4KdWFGiEtVIoiaLSQLdmm0CBfb+Rr85NEiWAxrkUVu89FicanI5MV3Gy2yRbAYYgTsonTt5HHbZ7FwHGNFafuybBHtfiLZfUMkC3ZmES4mrzY+L/K46K0GGiy2Ey32pvmOqpMHjza2NcmiqI7tZdERwTbBDLAtaBDZwGI7exJeJ9ur8FKyYIfKcPHiuw3uovXDdy+GHiy2FC329s5ONpsHnxerYQa3zra70q480m6pwaJOi7J9OSet32G6lN0PyB6c7Nj+oqeaPHy+kVH2J4vOat78DTgqbylaVMPFvfPg9988KILFWNvTGeEmIIJN0LQpXyHf7h2mK63xt5ZQ0ZKz89NFFPj2+T37qh+ef7s42On5oK9I21q0SMLFaVlid27DfvjuZXGU40NNT3cEXDYZallpy7IruV6GWHDxffYnbrKKdlws5kXm34S/ufNE4bNvXpTHmQ194n6L0SJZc1HJg3cZu/j+0SJXTC6HXlTdchbxYs+0BRn0V4nSRbYaaofbHV8n3wPP3zetORsfl6lg8vDRs4bfhZ88e/SwcoDjsVZmq9Fi70oebFBgPzx/VWbA0yFPWnXTwXG8LarOTgd1g6Cb5XeYbntSJJ8McT8g2rV/Xk0Xk5evHj1e60/jyeNHr15Wn3l8ri7vbT9aLOfBF6+er7Gu8/F3lViRDFiYCeme6Xm8JbeHg7pB0C2mWex/sYPdjm/4U8/+0GfKhdbtn19Oah48fPXo+eNrxtt/ePz80auHD+rPuJQrctuPFntX8uDkxbePvnv8/XWl9e2LelkdRvvuC/2QXyS+2xtMVxU3m7YAhhjOLo5OJ1e9ePjw4TePct/M/+PFigedHl3oqxZ2Ei3m9seXV4vi5cN5KKwU19VHzOQK6l6/efPmxys/ffv69bu2z6yD8nv+tDVwkQ9ZHLsimDua9F3bH/C9SmZHLzW9OLls8plenh8YJe2Zt2/fvl/67w/NjvDu48ePn67++PXHj2/afnNdND3K/ti+aWHg4sk32Wsf+TPnrtru+beu7Q+4K6b/jf/mf+u//d+59eM8no1H2psemueCd0v//brRAX78vHSEnGhxV/m2/Lu/VCS/MOTUlSHc2VnbPf/Wtf0Jd8Yf5m3Kf3d0OD6ana78IGez8aFU0VvLUaJxtHjz8fPbVT83IXJnZ/nAxbbvL11X3G36yIwn8Y3mxuPxf29u/j/Jf7V9Riz5ad6q/JT/ezovoMNx4WA00sr03X2jxc8fv/zY5PGs4yCP+a82eBuFmxW3Gjx1KTAdktTdvbTZetv8yW+afo9iPfkHm5XN2g+/2dt5Gd/nnAyj79h9o8W71++bPJz1TM/zQcPdLLkoFllMXArM1vwyb1x+3fAxRYvbvH0z9zH56N+8eX2HD+kuRAvuPyGyt9ayzw8N14ayP8s6+wfbvxD1yaN8K4CZHQDYnq9JB3fLGOfr141aiteixW2SLrn0ZSez1KIFNyzj/OXN5yTqvs7agh/n0bd4THmx6bs3WX0tKsZvb9683fvtc1IH3r1581v2w/e/ZaH5q5mTRi6Oi3Cx1WmRH4pgcWz5Jlv0IW0rPt32mCYR4e3Hp+t2X6sMKFp8/lyEi1928JqiBVfifhEtfnyzCLo/J/9dLdjiOe9/LcNw9l0jqSOvP6YPXZTk2y/1I7Gu8o4/21tzUayxcA9jtuy3eYsw7+NunED9pVm0+Fm0uFXZcr9/lzTYn3cwgy1acG20mFfCz29e//xpngs+J7FhVbRIBji/fPo5HefMSm1eR377XI8WyRM/f82ONIA/5M0qw8XDO9/98SbPHgoW7Mi8YXj76+or1RdeN4sWX0WLW9W65Dd3mzlqSrTgumjxYfHzr9nSqxXR4n2RKD78Vjw6+Vby8bc0FhclmfwonQlJxjh2kZj7pQwXLzY9L/LDoxeCBbvybv7nv/dzdSHn63JhxbvXyQrD16/n3z8+vc4XG77/5fXXN59+XmzpN3/4XnJR+5s3v73Lf/AljRZva4f68PbtL69/Lhua9z9/ejN/SvUnv/z25uvP80bpU9ml/fjzb/MHLZY5ppfOv3+9apvhrql1ye+qY8fv5m/5zaelMvjw8/xDr67Nf/v27bvXlVmUD+9eJ896u6IpX/5gk2jx47u0wFZ9ju/f5Q+vRItfXtfOae7HeS347Zf31feR1oyvr3+pPGp+8r99/XnVOp3kiGnlKqPFDW+BjVmOFnkp/7Yoh/fzgv2wMlq8K5/7Oa+wSSj+mv0oL8m35eze+8+mRO6gDBeTb59vbEnnk+ffTgQLdudNss7ifXUhZ6XtyZqdYuI07WfeFqsDfv1x8fD0IpPE1/fZD9Jo8bpyqPe/ZQ/4vFj+VRz0czFcUszj/vr+ddGlvV886k3W3SStV9Je7eIr/pbVosWHsjl+t1h98VtZBsVn87kopGJi/EsRLl5/XCqW0pUPdl42iw/205V+/McvxcMX0eLdlysPLw7wrnwfvxRn/rk4qcXzruyE8P5N8YbKaHHDW2Bzro8W9ZHLVRMi8y8I5bM+5f/7MU+OeUnO/+dL8bxPhqTu5mJxM8EHrzYyMfLs1eL2kBZvsgsfslDxtbKQ88ZosWj/Fz1IcoDPybBo8ZAV0eJ92sd8KdeLfkoPkPV5eaOVHuDN/DG//pZ3aVmf+OVN2akmrdfrjx97Fy1+ToaOUu+yJFVGubQM3hQLPr9UHpV94ll3UP2klhaEXv1g52VTluKvS9nix/LhvxYL/NIf/fq5LL6s/NLX+1S8jzRsfE4vMsjPvHzQ8qtkJZu8wOevRe9zw1tgg5b/ej5nxZV+O6hmupXRYqE6+1H/0ZtFKM6HRLmLg6NJmS6e32tm5IfnZa6YHNkhi534LZsK+aUyK3olWlS/tRS9/OvFysO0g/r5/d6HZNqk+FFSo8vnJT3Jl/k/fvwt/zKeHCaZ1Pjw6XPR+PyWzwm8/7Tom14XX5OT78Nv8p/Me7jXb3swZl5tuZPklffZyWc4/6TeJx9m1tKns9nJF/n0ur80SfyYfDAf8vWfyQf8c/FJJWNKX+ovdPWDTaNF0tl/ePPxyrVBn4qH/7ooh1+zMZX36SDE26Ia/Jp8Wc2SUHFO6Y8+/Jp/kX2fnWV2xcBvtRd5V5xvek5p0d70Ftigj9cv40zS5y/Fn9bqaJFOpM19KaNFMS5RRovFCp37LsQZtLPxYuhiMnn5zR33AH/8zcvyKMdju+2yG++LWw19KYdDb4oWnxaD8h++5POoHz8WE6qLqdjlaPHz4ln5l5yfFwf8pehBPy+6n68fy4Vl+UxtceTXy1+tuqtsdX98/fljcVuGHxdf+d9/rMxm51/6P+fz2l+K+e0PWVRLSjFPCD8uj2uv+GCTaJEf8ZdyPHtvccTsQ0+zRVEOnxbHSs9uXg2+ZAd4V0SLN4uzLILSu8WDflx+lcUbSLNF0iHd+BbYoOuixWLS7VP2B/bzimiRxdPcNdHi41K0sHXW3Y1Oqrf5efjNs0YrL548++Zh5emnJ266wM68KwYafisXct4QLSprAhZzqkkrk/Ugi25pOVqU31rfZjPpP75+XSzv+pId8V3ZCP1SmXspvkL9mvVFrz/etgNHZ9S3zCoWaH74+XXxz0/5h/amTFhvyrX7Py4e9CnrBYoW/OvS1qorPth52SyGqL4sXQVS6VB+zh/+/t1iMW6x1u9z+azP2ROqeeDnrOBel/MgP9ZHmX6sfAvO+6ib3gKb9LG+tPJDWXA//va5Mkn2+mq0SGfGPr/59Pr161/LaFHUhDJaLILh217MXbbqoJYuJi8ePnr2/e2p4vtnjx6+mNRyhYkQdunXoqv+UHZXN0SLt5XevvhG8rH83vJ58fBatLixgXmzyBGLUfD8MNX1H+USsb40VbVo8eW3q0MxldnsykK5pLX/tDxj8LrSF79bGoNe8cHOy2axuG55od1vi/GEtEosXXyan1N11W++1qJaM/LrGN+tWMmR+aUyBf9lUbLXvgU2aWl26pfan9Tb19m8yN7KUYtkzDJPvm+ujRa/mhDZsIPz40ndi4evHj1//PjKCowfHj9+/uhVPVQk8yDncgW79WPZR7xZdOQ3RIvXych9If9h5VvQm+ujxYoXfzv/Npxe15pHi3Jb4exHKyZtqwMZHZe8ozfFtPXH2qUaP/6SfDCVxrvIBr9kn8Kb5XX3Xyu9xdur0WL5g52XzaeiEF8vjRBUP/RqtPjwtnJO1dfI407t8uWs2NP1o7/+vGL+aumc3tzyFtikN/US/235w36bTzpWSqGIH+WSoBuihbUWe3uTvmv7Aya6T2Uzs5ga+XBztKh5u3dNEqlFi19WNDA/l5sBFzliMUSRH+bz6mjR9me2IdVW911ld4C35V7Ki8b7t/pz3pQjC7UPLFWZbCh+t/zB1q4QWfpEq4daFMCPX+vnVD33nxclU8ad/Invisn75YGm6oO/Xu2Qlt8Cm1Qf+UvWuCzNPv2cfVmoTLvlG2RVpkPff742WlSmVmv/HpK2e37Rgna9/1zrYrI50ur0xXK0eFN/fNrQ1B/+NXt4LVpcDQQfim0N3rz5fHWI4s3iItZFE5i3c6/7czFb/Qvdp/zDXOzkUVuD/7r+nCu7ZFZD2PIyvRUf7E3R4vPVhy8C5a/FOVXHyvNz+lqNFsUTPxST91/qGydVH5x3SDe9BTbp3cdqUf2Wr1768O63xahRNpBYWYTxpRx9zMPG6xXBNy/JyuKe6jDHoLTd84sWtOvdUlJIv2HcFC2SbyFvKz7srTNqcXVYNPkW/Ca7zO3zylGLr3v19WblqEVftuCpfyjFlSFJp/3l3Yf8M7omWny6adTiw8cbRy2SJ1YnRBLVQ/16ddQiGXT6nC3kzD//6jDUqlGLytrQXz5lw1O1i09/u3nU4oNosU2VS47SKz7SwcrKMtxfyu8MWam9ywco35c/Sddz5gdbukKkkieqKWNIztru+UUL2vUl2aNoIf9O8r7SsH9esdZi+SC3R4v3V6JFpa/J+9RPV6ffV6+16Ge02Pt18Z6LEeQ310aLK5/CTdPbKz7YbDuz1VastSivNK3u5Vw86PWKc6pHgw/pFYvVLub1WoXNdqRrYL58ff32dRb7sjmOZB7ut/k/P6SbqiallRTbr+/ev339sdj/Ntl05ecP73/5+vFzunnnh5XRIgkUX5NdbH7+ONBBi10ajUZJYzv/n7bPBAqV3f4TxbeN8qeLXRaKvmLVqonbo0WSUIrX+bE4TD6yWlyGUF1O+HGxsm/RMP28WLXe02iRzV0vNrPYW1w6kXwMS9Hibbmw8311MGGv+Gyrr7Pig72yVqPi69UrRCqXFOQBqLL6t3qFSHGM98ujDl8/1neq+HnlFSLXvgU265fKOqfF1vs/Vn+YFtaHxUOS3yUF+sviAb/8+DEbylgRLcpN/Bcb9LMR7/OB4sKHbNQxb2wXVo1Gwg4tXcT4Oh8b/bjoy35bjha13Yxuula1Hi2+LjqnbAK3svjiU2UmIG+Gfvm46G0+F6+V72vRo++z9bfyLvsYKpNRiynx11eWcVYuFM4+yXflh1ddmZu65oMtHv5+qe2vfOj5vhaV6Ym3xTlVEtDn8pwWtw7JX/LHIn68X9o9ozJpX+xrcdNbYMPev14ssiovTCq3w/o1L8j8dkG/vkv+sNMq8HP2ky/vFrMkr1dEi/JuMu5NtlG/fax/tcoXQSWN7Zc3P1dvArWIdp9+Ee7Ytfcf6w1+sW6r/CJS7MdYTmDUvqR8+S3/3YqlGVmjkv/u7aIv+y3tQd4tupb0y8+nvdr39a/5H1BlN84fywP1Mlp8yPfwruyFmXyJ/JJ9zouP/G3+z3KxRbY/Z+UOk4vtVQvXfLB5wb//9eOvtW83ZXhMzyBfTpsVfnZPsfxI+Wz9z8WPKkMh2fKOt+Xd1D4s3wGz3HqzOKeb3gKb9za5wPldfcP89+9ef6rcZji9le3rdOHPj8XW+u/Tp+X/TJ4+/+JcdGmVfyb7gc+P3vab7Jls1X1l2KISLapDRLX1c+X9H2FHfv64tMjqa/ZtMdkYJ7mrctaTFPcXyLLB28USsJ+LPmhFtFjcBaL43ZfsWe/fZeP+b4uvSz+n9yz7kr94drzythKfih/9WFzq1rNokQxazv//L18Xb/ljfiOO+RfGL3nxrIgWP+Z57ENxu8rXxSeV3q2l/kIrPtjFaFTyTfVz/WvNr3kiKO8hkvwk7V/mMeRjOTKeZoPyHiJvP1ZvPZc8/vPijqdvlmdIfrt6Tje9BSD/Y6ssiH6dXmP3JokWaer4nDXnSSPy5s3X+W9+XX4G7MCX5YUL+RKIbI41uS3l1yIr5LOne0Vf8FuZOlZFi68f8x6j+F06Qvrrm0X1T/71+VNy4em7pEv5kseN+R/K/FV/LVYefki/uX/6lPyBfF7sBtr2x7Yh9Y2+5++zWDUx/9i/Jste3qafx4+rokVeCr8WQz5ZDvj8NSuWX1a8UP2DTQck5g9Pn7W0pVU6n/4lffibcq7q45tkyd+vadV480t+L6v0yuHFlkvZOb1Ob32aNmbZ7Vk/ZSdVX873IdsxOrmjzOKcbngLQPJH91ttHf3rxbLsp3vpvQOz1qHSImdLqA0fsUtvP14Zd/68uK9Uli7ev67dVjvtQt6V07TZk1ZEi2ySthItigMU32M/FGvGfs7v+b14UtLXLTrT94t9NH79sDjntj+3DX78lWBRzEwV7/hr3n2/XYoWn7N/LfYu+1q5irDyAddeacUHW95m6spwaVH6X95/LW9GlteHveLuqcW9rD7+/OOiSH5eHoJdTLlfXTa6qA8//nz1nL704wZ0sEnJX9r7L9W/2Gq0yNqL9C+nFiZ++XjDom3YgmTn5qUf/ZLfNezt/Evrr8mVaPPH5DdT//rm45tsYO3D66+/JvcoKtr/14ubV+29Kx7+49dfP7/5ufq7Dz9/mh/zTTHj/j75dvvr17fZP7Mj/zj/2ZdPP39IXrX483n325vPn9/8Vjztw9Vz7qr5W/ktveb3Uz6fXbzjN18+fnmTvv+fv775VPs0Km//bfIBvvlaaULSH3z6ecWqrVUf7Pzhyeu8XrHtwPzQH798evehLP23X6vnlJXaz5++fHyT/L48px9fzx/369fymO/ffU2Hqz5dzQrzWvT589eff0zeU+WcrnsLMHTpCqvaRd71aLFqinqvMjsNAFDKVjd/+FhZIFePFotl+fVoceUmMQAA2U2e9mo7q4sWAMCd5TvXvass5KxHi3cf8+u369HiS3/uuwQAbMzbYiaksutLPVp8XbmM80fLOAGAqz5VLjxf2v80jRbpZaZXLj7Nrkl18SkAUPd+cZ34j+VCztfJVevv0nuIfPpY7lGTbAzw+m263+qXq3vKAABU7+hX3i5waaPvr6s3+rb/HACw7Etyo/rMp+WN89Jo8eubRYSo5oo3n+wSAwAsW74tQDY3Mo8Wv759+/PyTdWTK0Xe/vLz27dvxQoAYJWvS9EiW69Zv0JkwcJNAOBGH9KVmYXi1sKiBQBwJ8miisrkxud8IadoAcSx1BIBoX2pX0Fa3FpdtADiEC2gQ35ZCgsf8oWctduglkQL+uup7isuZQMd8nX5vui/ZplCtGBwRIvAlA10x4fivmML77KFnKIFgyNaxPT+9evX7ypl8yFfdP7z27c/Vh72Lv/xLy6Nh5a9Lrf2zr3PFnKKFgyOaBHTu3z3vuK/a1vx/Pq6aMDeVDf0+/Tuji8G3N+P9dxf/ujD1V8k7JVFf4kWMX25KVqU465v6j/99cNdXw8ANkS0COntxxXRIpkPSTbi+Zz87nX643m0eJP/+Nd05MK3IABaJlqE9GmeHb4sR4vi3+9ffy4mdd8UGSN5yBv3ZQagfaJFRO/nIeHH366LFumdm7NIUY0W6eZ/H9d/EQDYBtEiop+T6+M/XB8tkqvcvib/qEeL5J4FP67/KgCwBaJFRF/SxPDrtdEiXWOR/28lWrx1NRsArRMtAnqbLaV4d320+LIyWrwTLQBonWgR0NdsuuP9vGx+yX9UjxY/Fgs269Hi65UtewBg10SLeJKVFGmkmJfN1/xn9WjxW37bo3q0SBZ/fln/ZQBgG0SLeF4XCWFeNsUoRDVapFeZZo+oRIvsklQbcgLQMtEini9FXkiiRZ4ckmjx5uvr15/evEn3xvqSXQkyjxZf3vz2+vWbN2/SjbR+a/vcARg80SKcXxYrJpJokc9wLG30/Vu+62Z9o+8v1nAC0DrRIpyv84yQ3c80iRbZqotqtHjz6fUiQpTR4sub1z/b5RuA9okW0XwoQ0QaLbKFnNlaiw/L139kay0MVkB8GluGQ22P5vVStMgmR5b2tSjULz4F4tLYMhxqezSfP378+jYzL5vPeXYQLaDjNLYMh9oezLvKfUDmZfMpv8xUtICO09gyHGp7MPOw8Gvx73nZ/JhvnyVaQMdpbBkOtT2WD9Vtr5Ky+TVbyClaQMdpbBkOtT2WZAvvxTWkSdn8nC3kFC2g4zS2DIfaHsvn/L5jqaRskhuDvBYtoPM0tgyH2h5K/bboadlkCzlFC+g4jS3DobYHpmygPzS2DIfaHpiygf7Q2DIcantgygb6Q2PLcKjtgSkb6A+NLcOhtgembKA/NLYMh9oemLKB/tDYMhxqe2DKBvpDY8twqO2BKRvoD40tw6G2B6ZsoD80tgyH2h6YsoH+0NgyHGo7wA5obBkOtR1gBzS2AMAGiRYAwAaJFgDABokWAMAGiRYAwAaJFgDABokWAMAGiRYAwAaJFgDABokWAMAGiRYAwAaJFgDABokWAMAGiRYAwAaJFgDABokWAMAGiRYAwAaJFkAAWiIAuuf3tk+A64kWAHSPMbrAlA0A3SNaBKZsAOge0SIwZQNA94gWgSkbALpHtAhM2QDQPaJFYMoGgO4RLQJTNgB0j2gRmLIBoHtEi8CUDQDdI1oEpmwA6B7RIjBlA0D3iBaBKRsAuke0CEzZANA9okVgyoam1BmgfaJFYMqGptQZoH2iRWDKhqbUGaB9okVgyoam1Jm4NLYMh9oemLKhKXUmLo0tw6G2B6ZsaEqdiUtjy3Co7YEpG5pSZ+LS2DIcantgyoam1Jm4NLYMh9oemLKhKXUmLo0tw6G2B6ZsaEqdiUtjy3Co7YEpG5pSZ+LS2DIcantgyoam1Jm4NLYMh9oemLKhKXUmLo0tw6G2B6ZsaEqdiUtjy3Co7YEpG5pSZ+LS2DIcantgyoam1Jm4NLYMh9oemLKhKXUmLo0tw6G2B6ZsaEqdiUtjy3Co7YEpG5pSZ+LS2DIcantgyoam1Jm4NLYMh9oemLKhKXUmLo0tw6G2B6ZsoD80tgyH2h6YsoH+0NgyHGo7wA5obBkOtR1gBzS2AMAGiRYAwAaJFgDABokWAMAGiRYAwAaJFgDABokWAMAGiRYAwAaJFgDABokWAMAGiRYAwAaJFgDABokWAMAGiRYAwAaJFgB00O9tnwDXEi0A6CC9V1yiBQAdpPcC4Aa6CZpSZ4D2/bHtE+B6ugmaUmeA9pn+C0zZ0JQ6A7RPtAhM2dCUOgO0T7QITNnQlDoDtE+0CEzZ0JQ6A7RPtAhM2dCUOgO0T7QITNnQlDoDtE+0CEzZ0JQ6A7RPtAhM2dCUOgO0T7QITNnQlDoDtE+0CEzZ0JQ6A7RPtAhM2dCUOgO0T7QITNnQlDoDtE+0CEzZ0JQ6A7RPtAhM2dCUOgO0T7QITNnQlDoDtE+0CEzZ0JQ6E5fGluFQ2wNTNjSlzsSlsWU41PbAlA1NqTNxaWwZDrU9MGVDU+pMXBpbhkNtD0zZ0JQ6E5fGluFQ2wNTNjSlzsSlsWU41PbAlA1NqTNxaWwZDrU9MGVDUz2rM6PRaLqdB7dAY8twqO2BKRua6lmdmUwmo+08uAUaW4ZDbQ9M2dBUrDozWTK7wwFEC+getT0wZUNTserMbqPFbDbbb/sd30Rjy3Co7YEpG5qKVWfmyeByVnF+hwOEHohoRGPLcKjtgSkbmopVZ+6dDEQL6CS1PTBlQ1Ox6oxoUaWxZTjU9sCUDcumo/HR8eSujo/GO70+c3UymF7MLpOZknF+KrPr50zKA5yNjy4nx7PxQeUw55eX5/Nf7+fPytdanM9mo73pwcnxZHa027UX+xfnszuXzWR2fhF6qQg0IFoEpmxYMrp7rFjEix0OA6yMFvunxamcHhSPum6l5+IAF4snneSB5OwyP8jZOH9W/uB57z4uXuP0Yndvdnp+77KZnIfemAPWJloEpmyo2UTntdP+a1W0OEt6/dOjoywWJD8phyyujRbn2df6o+S5l+Vhjk/mP7k8vxItzucJbJZGj9OdvdcNpL4dBz/YHtEiMGVD1fRyI8li3jnvqr9dFS3O8x+enc/DwdGVX+2vOsDZ4qQP5/9KRyJOqv/IjlNGi8nkZP6P/eR4hzt6qxcbKpvJDsdZYGtEi8CUDVXZmMW33z1+elePv/s2G7fY0RmvihbHi5GJ82IEIndxtWPNDzCPD8d5HDqa/zP533kuGWc/SaLEuPLg2WQRWa6El61JB1EmDx49++GuZfPDs0cPypEc6DbRIjBlQ8Uo7bye3TlXZJ6l/deOht1XvdJodLBfvqHKL5L1ESerD1BJQ/vZj5IYkvfBFyuiRZ5QZkvhZXvSoZJvn9yvbJ6kwa/xvmIQj2gRmLKhNE3m8h/cs/NK+q8kWxzvZkpksrRlVn22ox4tpqcretUsLZyVOSId9Tjc2xvngxeJIpJUokX+9sb18LI9yTzN5NG9y+bpo8kO53Bge0QL6IR00OK+YxaJZ7sbtlheR1BcSDo6HJ/M0nWW5WMvVwWe7Dm1DDJLxyjGlRwyu7KMsxiqGO0qWiRx5uUGyubpS8MW9IJoAZ2QfAP/dhO919NvJ4t1Clu2MlrsV1ejLh56Mpmc7q86QD77sfjRLB2jOLoxWhTvbmfRInkr32+ibL6f7OqUARi85GrN7zYSLb6b7Gp146rhkXEaKY5n9VGLJD0cXHeA8VK0mJVxovxJm9EiWQDyYCNl8/TBlatkAGA7kqUWd782pOrxpLJQYatWRItk3US+kVWl4x9dM5CSHeBgKVqcRxu1SILRw81Ei4euPwVgR5Lv+pvpvZ7ubNB9RbSoXNpRdvxnKy4OqRyg8VqLXUeL8WYWcSYe7Wy2CoCh60m0OCoXWS7mOZK9wFZv45UdYFqdJDhNv9XPn3ua/+BsIloAQHM9iRazxRYVydWm2VWiR9duFJUf4Ljc1+IgixkHZdo4vDFa7ORyC9ECgA7qT7TIhhum6Q7dydLN8fUrF/MDXJSXjxSLLBZTKOmdyEQLAGiqJ9Ei6YWT+6MdXE4us002V+zvvXyAZIDjNP3HSXHI5B8n+3vTg9PkOKIFADTVk2iRToNMki2mLqfp7tgns/reF+NVBzjInnVc3gClvFfbxfjK7clECwC4VU+ixeLm45fTfC5jnWhR7rN1Wux+kQWTyfE4uc3Z0j1ERAsAuFUXo8V4PL66PHN6eDKbnaRTIGeH4/HBxbhmtPoA09H4ZHY0PqhcSDL/0UXy2yJL5A+eH6+IH2fj8U5uyCFaANBBXYwWO/tkdnQn1+uIFgB0kGhRMzo8z9d+7pdbXLRFtACgg0SLmllxXcnZbFd3RLmeaAFAB4kWNWfpxSKj0eHptftt7Y5oAUAHiRZ15+VFJa3fzku0AKCDRIslo/yq1VnryUK0AKCLRIsrzkaHq65u3T3RAuiMeUPT9ikQhmgRl2gBdX9s+wS4nmhBSbSIS7SAuqe6r7iUDSXRoiU//enPf7nlIaIF1IkWgSkbSqJFS36af2K3pAvRAupEi8CUDSXRoiU/ZR/an/7812sfIlpAnWgRmLKhJFq05KfF5/a3v/919UNEC6gTLQJTNpREi5b8VP3oVqcL0QLqRIvAlA0l0aIlPy19eivShWgBdaJFYMqGkmjRkp+ufoDL6UK0gDrRIjBlQ0m0aMlPKz/DWroQLaBOtAhM2VASLVry03Uf49/+8c/fs4eIFlAnWgSmbCiJFi356aaPMksXogXUiRaBKRtKG44WGzoUSboQLaAuqcxtnwPXUDaURIu4/mvRAmqSytz2OXANZUNJtAjKqAVckVTmts+BaygbStZatOSnW3LFnrUWsEy0CEzZUBItWnJttCivPxUtoE60CEzZUBItWrI6WtjXAm4gWgSmbCiJFi1ZES3+9Oefag8RLaBOtAhM2VASLVqyHC3+9Oe/LD9EtIA60SIwZUNJtGhJLVr86w9/WfEQ0QLqRIvAlA0l0aIlZbT417//uPohogXUiRaBKRtKokVL8mjxn+tyxZ5oActEi8CUDSXRoiVJtFjciGw10QLqRIvAlA0l0aIlf7klV+yJFrBMtAhM2VASLeISLaBOtAhM2VASLeISLaBOtAhM2VASLeISLaBOtAhM2VASLeISLaBOtAhM2VASLeISLaBOtAhM2VASLeISLaBOtAhM2VASLeISLaBOtAhM2VASLeISLaBOtAhM2VASLeISLaBOtAhM2VASLeISLaBOtAhM2VASLeISLaBOtAhM2VASLeISLaBOtAhM2VASLeISLaBOtIBOEC3iEi0A6CDRIi7RAoAOEi3iEi0A6CDRIi7RAoAOEi3iEi0A6CDRIi7RAoAOEi3iEi0A6CDRIi7RAoAOEi3iEi0A6CDRIi7RAoAOEi3iEi0A6CDRIi7RAoAOEi3iEi0A6CDRIi7RAoAOEi3iEi0A6CDRIi7RAoAOEi3iEi0A6CDRIi7RAuiM39s+AQIRLeISLYDOmDc0bZ8CYYgWcYkWUPdU9xWXsqEkWsQlWkCdaBGYsqEkWsQlWkCdaBGYsqEkWsTV52hxMZvN2j6H+53++S2/38THnb/M/qY/rNtOf+5s/pr7G33RjRAtAlM2lESLuPocLcY7qSwX4/Hopv++z+nf1NmPJpPTTfTL+cuMNv1h3XL6xWMupxt91U0QLQJTNpREi7hEi/uaLb3r2aY+hZv75rPTyeRggy/TSrTYO5pMjjb6qpsgWgSmbCiJFnGJFve1tWgxGo8vrv/t5YZfpp1oMT0OVmcSokVgyoaSaBGXaHFfy1FiN5/CxWRyvNGphHaiRfI+TqNNiYgWgSkbSqJFXKLFfS1Hi9OdfArzb/sX9z9KRUvRYnOjL5sjWgSmbCiJFnENIVqMDs5ue+h0NLr5u/PZaHSw/JDsSTdOiMwfcttL788PvPygsyuncza6qD5o/taOa79d8RZHi0We+xe19Z6rXvHWaHHlnax8zbPyQyqixf7B/tJxDkaVJyave2vx7JZoEZiyoSRaxNX7aHExS+rM6UnW41X6/dHiW/XFcfKQyexw0Z1fzGbznx0vxgUuLifZQ0aV557PfzC6KVrkxz3Kjlvtu2fpM+emh8f1I4+TZ5+kRy6/9k9PsgcdHxYHqA5aTI9Os0McVE7uIPnhaXJp5/5J+hLFw1e94m3LOKfj0+o7mTsrXrP6geSvNJuWxz3IHrc479FR/k7KIZd4wxaiRWDKhpJoEVffo8VokssuclwRLfaPi4csevJZ/Ul7J4tH5M9Onpse+YZoMSqPm14EMV0RLaaX5ZEPinMeX0zq0eLgtDzD7IT2K1/1K789XJzcfv6T4+nZae2XK1/xlmhReYWjm16z+GG2eCI57kXxqHyHi4vyxReTJckFqG3XlDrRIjBlQ0m0iKvv0eJ0MhuPxklWOEl+tCJazL9Hn55fjC5OTvN+Mul9j88PDi+LbHGY/GM8yoYuRsVzZ5PTdMOn66JFftzDo+K4K6JFklnm55cOJCw65KPjyXFy5CJanCW/PD8YHZ4seuTDsjtOE875+PDwtPj45z85Pp6cjtOhhpP5SR+lwyfZBMrKV7wlWlzmr39UxJHiNcfV17y8nMwOD44W+SuZszmdnF9kw0ZpEEoCz/yTrTxorx6TYhAtAlM2lESLuPoeLbJEkfTzk6QjvRotpotv3gfzf+1nj8n2orrI5xEui144GeA4yZ97Ork6x1L977PFsEByEUTSd66IFqdFRBhVOuTieEW0OFnsjTUuos3lYhwgOVQ22XE2y08z7fhPzvby0ZZ0zuJictMr3hwtzornJonmdHrlNYujZYdLgtlpcbLZeScDJ+nHdl4c6eyoslZk4ytS70u0CEzZUBIt4up7tCjmOPLO8Gq0uCg7ufH48KyaCZJOL5kBmJ0WTyp6+9GkvPZztrR1Vf4Sh+Vxz9PjrpgQ2S8iRpp9TpbOOX+xs8pCict8SmLR2adnUvw276NHi0MclH8uedmsfsWbo0VliCR7J9XXPC1f87j81Kf5/44Xbzc9ofPj4r1VX+0k2rZZokVgyoaSaBFX36NF0QXO8pRwJVocLEY2cuf5t+7kIeP61Q2LHnE0KZcmlp314r+Tl7hYPu7KZZzVc50V51xfXzmu7PxwmB1jmo+v5L8tjnFShoTsTe6XOaUyznH1FW+NFvV3Ur08pfKa+WMO8ndQRIy9lVcBl29z3atUd0e0CEzZUBIt4up7tFi6FHLFWot0+qByqefshp6uGi1G5eNr4/n5S0yXj7sULZY+qWq0qP+o2vPmx6gc6qTy24vyt/nJlSVydOVdrR0tzirrMItjHVVe8zh/dj52My2jRRFADkQLNkTZUBIt4up7tKj8OxnVXxEtztMLFi7PK1Hhyh07R+OjxZUV+XOvjQnFf2eXlVyO98vXW/Gcg/GsuJJkVjnP/J95GlqMGeTdduVQ898ez3KXV4LHlSGQ1a94yzLO7J3MFu/k5tfcK6NFkRjK356NT2bFB1l84AfR/qZFi8CUDSXRIq4BRYvk3yuixd4472mPx+mFCldHFKbnk4r8uddGi8U+DflmEJPjlftapI85m1UOXO3oK/+sHT/rkQ/LWZDTSV31ja2KFte+4k37WpzX38lk5WuuEy0Oq6c7Wv5tFKJFYMqGkmgRl2gxd1BsXLG00jMzTS/UPB9fjEaHq6NFbSVC5VM4yDeISucKVkSLdCeI4/H4YDQ6aRItKkMbx5URhMTZzaMW17/izR38xVElD5wuveZ03WiRHuRkfDgajUQL7kTZUBIt4hpQtFjqpw9rU/yj83Ts4iwd/q9FhXTAfpwtmrhYHS2qSwUqqw7SJ6fHPa33+Hv5/T4r60zH10aLo9smRJanb66LFuc3vuKtHXz5Tq6O66wXLZKzP8q2sDgTLbgTZUNJtIhreNGisiFEbfVguk/leDly7KVZ43jpiKP6kav37hxPlnaASgc9Lmo3y9jPP6nLcj3k9aMWNy/jvLo889pocfMrrtHBT0+z2DS78TWvjxYX5SdQHbU4rN8PpX2iRWDKhpJoEVffo0UxgJBPW5S94nSy3EEmkwVHtV7yYHYyTocYqvtTJf9b7UkPam877X73rhz3pLY/xWH2lGn5k+Rp10SLysKK4uLTygaW46v98g3R4oZXXGfsIHnd89te8/pocVJbouoKEe5A2VASLeLqe7Qo5hLyPrUcyLjIosXZeHZZjDnkezcdLwLJLO0LTxdHSfecLDa8LF4l3Yd7sf3FSf6a1ePmsWayiCiXZbQ4LE/1OP/HUrSobOGVPLG4YHbFllkXJxdLJ7cqWlzzitdGi/k7mU3L1z+vz/lcfc3ro0W5BWcx/lF9n3GIFoEpG0qiRVx9jxZ5v3uSz1ocFF1aOv2R9GjHi46t2GpqXESFfGOsWTFskN2Ua3lJZrajddZPpjc2S19oelreyyvvz2fF7c7Sm3Qlr7TYdftwki/0WBEtKht9L7brPq7tBXac/XY/f52bJkSuf8XFs2az2eJGpel7KgNasfN5+ZpFslkrWiQfVPq0/fRK3mIoKNytT0WLwJQNJdEirp5Hi+QGWQdnB8VYQvZ1+fhwND6dnCyWMiSbWkxH6TWo+/ljjs8P0osikt2800dc7F/Mn5AOdVzsL33FT/LE5Pio2LIhSxnJBauX49HZQXLc9B4iaaI4OZgf5zTvTZPTOjrYP5xNTtPNOw/OVkWLdFhkPNo/OF908pW9sYvfprdXK25wcm20uP4VF8+6Uooni3dymr+T0U2veX20SHcDH8/fx/zDn6XFkBbJ5MrWpC0TLQJTNpREi7h6Hi3K23rn0xPj4r9PRuWgwEI2FLC4O3g+WnBZ/joND7OlaDGtHuL4YsUPs58dL46aX2MxXbzQKNugYrwqWuyNKjc1z97FQWX9ReW35Y3H8t9diRbXv+L10WJ6VL6RfPikepv35de84eLTxf4gJ3k5JD+8qLyXGESLwJQNJdEirr5Hi73sVujl9ZsXaa94OU7vA57+5GBW9JLFl+eiMz3J1krmKeH4IJ/xmF1ZmDAqDnE6Li8WuSgiyVF+3PTJk9Ojg+Uts5IjJ3dVvSZaLM7neLGj+KRyhWsRYk7Ps9e+KVpc/4rXR4u9vcPinZwsf0IrXvOmLbOyXcROk+OfF3/KR8sX+7ZOtNi4n/6yqSMpG0qiRVx9jha56ehwVPvPi4tp/RFno/F4PKpdMrp/cTGaVp4zPijyQf1x5RPKh1x/3LP6qWQPGY2Kf073rrV/UHvm0uYbZweLo9zq1lc8WVGKyTs5rL/zJq9ZGh0uPtdROgKSjKMEmg/5/d//+VtSmf/2n3//3va59Mgfnv7p73/dyJFEC0qiRVwDiBZ9lKywOLv/YVaZLt0kfstOQl0f8tOfyvr8p5/aPpv++EMa1/7+17Xi2uhifL1Hjx7d8NuLLf1REJNoEZdo0U3b65Evdrr0obotZ+t+/3O9Rv/ZwMWG/KH4SP/xz1s+0/PFyqa7OT6ZrndK9IBoEZdo0U3bm0e43OnSh1CDFn9ertJ/bvuM+uIPlQ/1X//+47WP279nsEiX8lw0ODE6TbSIS7ToqIvsytjNG412OKh8kV/OGsJPaTX+x1+S//uXf6T/YU5kM/5Qbyr+9efVyzrH94kUpZmBi4EQLeISLboq1Pf9O9qPtIbz92Sdxd/+Wlwh8tdkOeefTIlsxB+utBZ/+vNfrzwq28dt8uDhozv65mWeLdp+v+yGaBGXaNFZl1dvetoxyZ3bDu9/mA35d1KJ/7q3uPj0r8n//rvts+qHP6xqMJaXdWabrjz84T6N0JNv0mzR8T8M1iRaxCVaQOo/8zr8j+QfebTYS+ZE/tP2WfXDH65rNKrLOtO9Ur67bzP0OB25sN5iEESLuEQLSCUTIOkSgCJaJIsu/tb2WfXDH25oN/6TL+tM7oEz+eb+7dD3DybhNnhlO0SLuEQLduj3f/5rQy3BdqQnWfsHm/Dfv/nX//rDX7KVFi+ebODFniW9RJglPGyRaBGXaMHO/PHvf9tQO7AlS9Mf/2n7fHrjv3/rI/705//Bxpqib7VEAyFaxCVasDN/un8l266lfSz+fP8jklojWvz9fzhvPx5v5NW+c5HIQIgWcYkW7Mo/N9QIbM8/u3bCXXHbhEiyz0XStt/r6pCF73UTAyFaxCVasCvJ/MLf/r6xe2DSHTct4/xHvoxTN0FT6kxcogU7ku5yaXvLQbouWvzt7+XFp7oJmlJn4hIt2JG/z+vIv9o+CVqxMlosbcipm6ApdSYu0YLd+D25OuSf9z8OHXQ1WqTXm9boJmhKnYlLtGA3/jmvIn9zS45hWooW/1h181PdBE2pM3GJFuzCT+mdRN2kfKAq0aK6vKJGN0FT6kxcG44WT5/aZohr/fH+FZYuKqLFn/58/Tpe3QRNqTNxiRbsjHt9DVUaLf717xsvPNZN0JQ6E5dowY786d9WWgzVH57+45+3DVnpJmhKnYlLtGAn/uPikAH74xqpUjdBU+pMXJZxAgHoJmhKnYlLtAAC0E3QlDoTl2gBBKCboCl1Ji7RAghAN0FT6kxcogUQgG6CptSZuEQLIADdBE2pM3GJFlCXVOa2z2GAdBM0pc7EJVpAnWjRCt0ETakzcYkWUCdatEI3QVPqTFyiBdSJFq3QTdCUOhOXaAF1okUrdBM0pc7EJVpAnWjRCt0ETakzcYkWUCdatEI3QVPqTFyiBdSJFq3QTdCUOhOXaAF1okUrdBM0pc7EJVpAnWjRCt0ETakzcYkWUCdatEI3QVPqTFyiBdSJFq3QTdCUOhOXaAF1okUrdBM0pc7EJVpAnWjRCt0ETakzcYkWUCdatEI3QVPqTFyiBdSJFq3QTdCUOhOXaAF1okUrdBM0pc7EJVpAnWjRCt0ETakzcYkWUCdatEI3QVPqTFyiBdSJFq3QTdCUOhOXaAF1okUrdBM0pc7EJVpAnWjRCt0ETakzcYkWUCdatEI3QVPqTFyiBdSJFq3QTdCUOhOXaAF1okUrdBM0pc7EJVpAnWjRCt0ETakzcYkWUCdatEI3QVPqTFyiBdSJFq3QTdCUOhOXaAF1okUrdBM0pc7EJVpAnWjRCt0ETakzcYkWUCdatEI3QVPqTFyiBdSJFq3QTdCUOhOXaAF1okUrdBM0pc7EJVpAnWjRCt0ETakzcYkWUCdatEI3QVPqTFyiBdSJFq3QTdCUOhOXaAF1okUrdBM0pc7EJVpAnWjRCt0ETakzcYkWQAC6CZpSZ+ISLYAAdBM0pc7EJVoAAegmaEqdiUu0AALQTdCUOhOXaAEEoJugKXUmLtECCEA3QVPqTFyiBRCAboKm1Jm4RAsgAN0ETakzcYkWQAC6CZpSZ+ISLYAAdBM0pc7EJVoAAegmaEqdiUu0AALQTdCUOhOXaAEEoJugKXUmLtECCEA3QVPqTFyiBRCAboKm1Jm4RAsgAN0ETakzcYkWQAC6CZpSZ+ISLYAAdBM0pc7EJVpA3e9tn8Aw6SZoSp2JS7SAuqQyt30OA6SboCl1Ji7RAupEi1boJmhKnYlLtIA60aIVugmaUmfiEi2gTrRohW6CptSZuEQLqBMtWqGboCl1Ji7RAupEi1boJmhKnYlLtIA60aIVugmaUmfiEi2gTrRohW6CptSZuEQLqBMtWqGboCl1Ji7RAupEi1boJmhKnYlLtIA60aIVugmaUmfiEi2gTrRohW6CptSZuEQLqBMtWqGboCl1Ji7RAupEi1boJmhKnYlLtIA60aIVugmaUmfiEi2gTrRohW6CptSZuEQLqBMtWqGboCl1Ji7RAupEi1boJmhKnYlLtIA60aIVugmaUmfiEi2gTrRohW6CptSZuEQLqBMtWqGboCl1Ji7RAupEi1boJmhKnYlLtIA60aIVugmaUmfiEi2gTrRohW6CptSZuEQLqBMtWqGboCl1Ji7RAupEi1boJmhKnYlLtIA60aIVugmaUmfiEi2gTrRohW6CptSZuEQLqBMtWqGboCl1Ji7RAupEi1boJmhKnYlLtIA60aIVugmaUmfiEi2gTrRohW6CptSZuEQLqBMtWqGboCl1Ji7RAupEi1boJmhKnYlLtIA60aIVugmaUmfiEi2gTrRohW6CptSZuEQLqBMtWqGboCl1Ji7RAupEi1boJmhKnYlLtAAC0E3QlDoTl2gBBKCboCl1Ji7RAghAN0FT6kxcogUQgG6CptSZuEQLIADdBE2pM3GJFkAAugmaUmfiEi2AAHQTNKXOxCVaAAHoJmhKnYlLtAAC0E3QlDoTl2gBBKCboCl1Ji7RAghAN0FT6kxcogUQgG6CptSZuEQLIADdBE2pM3GJFkAAugmaUmfiEi2AAHQTNKXOxCVaAAHoJmhKnYlLtAAC0E3QlDoTl2gBBKCboCl1Ji7RAup+b/sEhkk3QVPqTFyiBdQllbntcxgg3QRNqTNxiRZQJ1q0QjdBU+pMXKIF1IkWrdBN0JQ6E5doAXWiRSt0EzSlzsQlWkCdaNEK3QRNqTNxiRZQJ1q0QjdBU+pMXKIF1IkWrdBN0JQ6E5doAXWiRSt0EzSlzsQlWkCdaNEK3QRNqTNxiRZQJ1q0QjdBU+pMXKIF1IkWrdBN0JQ6E5doAXWiRSt0EzSlzsQlWkCdaNEK3QRNqTNxiRZQJ1q0QjdBU+pMXKIF1IkWrdBN0JQ6E5doAXWiRSt0EzSlzsQlWkCdaNEK3QRNqTNxiRZQJ1q0QjdBU+pMXKIF1IkWrdBN0JQ6E5doAXWiRSt0EzSlzsQlWkCdaNEK3QRNqTNxiRZQJ1q0QjdBU+pMXKIF1IkWrdBN0JQ6E5doAXWiRSt0EzSlzsQlWkCdaNEK3QRNqTNxiRZQJ1q0QjdBU+pMXKIF1IkWrdBN0JQ6E5doAXWiRSt0EzSlzsQlWkCdaNEK3QRNqTNxiRZQJ1q0QjdBU+pMXKIF1IkWrdBN0JQ6E5doAXWiRSt0EzSlzsQlWkCdaNEK3QRNqTNxiRZQJ1q0QjdBU+pMXKIF1IkWrdBN0JQ6E5doAXWiRSt0EzSlzsQlWkCdaNEK3QRNqTNxiRZQJ1q0QjdBU+pMXKIFEIBugqbUmbhECyAA3QRNqTNxiRZAALoJmlJn4hItgAB0EzSlzsQlWgAB6CZoSp2JS7QAAtBN0JQ6E5doAQSgm6ApdSYu0QIIQDdBU+pMXKIFEIBugqbUmbhECyAA3QRNqTNxiRZAALoJmlJn4hItgAB0EzSlzsQlWgAB6CZoSp2JS7QAAtBN0JQ6E5doAQSgm6ApdSYu0QIIQDdBU+pMXKIFEIBugqbUmbhECyAA3QRNqTNxiRZQ98e2T2CYdBM0pc7EJVpAXVKZ2z6HAdJN0JQ6E5doAXWiRSt0EzSlzsQlWkCdaNEK3QRNqTNxiRZQJ1q0QjdBU+pMXKIF1IkWrdBN0JQ6E5doAXWiRSt0EzSlzsQlWkCdaNEK3QRNqTNxiRZQJ1q0QjdBU+pMXKIF1IkWrdBN0JQ6E5doAXWiRSt0EzSlzsQlWkCdaNEK3QRNqTNxiRZQJ1q0QjdBU+pMXKIF1IkWrdBN0JQ6E5doAXWiRSt0EzSlzsQlWkCdaNEK3QRNqTNxiRZQJ1q0QjdBU+pMXKIF1IkWrdBN0JQ6E5doAXWiRSt0EzSlzsQlWkCdaNEK3QRNqTNxiRZQJ1q0QjdBU+pMXKIF1IkWrdBN0JQ6E5doAXWiRSt0EzSlzsQlWkCdaNEK3QRNqTNxiRZQJ1q0QjdBU+pMXKIF1IkWrdBN0JQ6E5doAXWiRSt0EzSlzsQlWkCdaNEK3QRNqTNxiRZQJ1q0QjdBU+pMXKIF1IkWrdBN0JQ6E5doAXWiRSt0EzSlzsQlWkCdaNEK3QRNqTNxiRZQJ1q0QjdBU+pMXKIF1IkWrdBN0JQ6E5doAXWiRSt0EzSlzsQlWkCdaNEK3QRNqTNxiRZQJ1q0QjdBU+pMXKIF1IkWrdBN0JQ6E5doAQSgm6ApdSYu0QIIQDdBU+pMXKIFEIBugqbUmbhECyAA3QRNqTNxiRZAALoJmlJn4hItgAB0EzSlzsQlWgAB6CZoSp2JS7QAAtBN0JQ6E5doAQSgm6ApdSYu0QIIQDdBU+pMXKIFEIBugqbUmbh2Hi1+/73ttwzEo5ugKXUmrt1Gi9//+Y+nP7X9luEG8zr6t6f/+s+f/9j2iQyNboKm1Jm4dhgtklwxJ1oQ1l/+/a+iOv/tr22fzMDoJmhKnYlrV9EizxWiBYH9tVah/9z26QyLboKm1Jm4dhItylwhWhDX73+r1+h/mRTZId0ETakzcW0/WtRyhWhBXFlF/dOf//r7T39O//k32WJ3dBM0pc7EteVo8cd//2f5YaIFMaXTIX//S/4f6QiGOZHd0U3QlDoT1zajxR/LNXGiBdGl0yF/Wlwb/cek8v6p7ZMaEN0ETakzcW0tWqzOFaIFUf29qJ3J/87/5/fkf//S9lkNx+a6iSe6iYEQLeLaTrS4NleIFkT1p6f5BEgeLdKlF2ZEduZ43n483khL9Gx+pOO23w47IFrEtYVocVOumPsf/eeKq6f1l/+s459Xn7jW81b0F39e64m7PtEVL/jPrnwya53olfNc5/O805OuDj8sPyKpnOl0SBEt/jn/37+t9dmuWSorT2PdqrD6hdcrnZUFtGbdvd9Jr3rqyg/rf/yf/8m8/Xi+kZbom/mRTvboP9Eirk1Hi1tyxWpXT+untZ73h6tPXOt5K9rZ/6z1xF2f6IoX/ENXPpm1TvTKea7zed7pSVcHy1Y86F+LXyT/+/van+2apfJ09Zjdus9d9cLrlc7KAlqz7t7vpFc9deWH9T99+j+btx+v1j2lmzx5MT/SxR79J1rEteFo8V//7S7PvHpaP631vAAd6HZPVLTY2JPWihb/WPwi/cc/Vh5JtGhw0g2ixf98sqEZkW+TA53t0X+iRVwbnxD569//1PiZV0/rp7WeF6AD3e6JihYbe9Ja0eIPi1+k//jnup+taNHkqddEi6f/i3kD8uLJuid1raQdmsz2GADRIq5tLOP8y59vShf/y5+uuHpav/+0jhUbGq31vBUTwH9Z64m7PtEVL/jHrnwya53olfNc5/O805Ou3nD32gcltfSG467aRmu9Ull5GutWhdUvvF7prCygNevu/U561VNXflj/q59++l//lyRb3HPc4oeHSR9xPN1jAESLuLZ08ekN6cIVIsS2iBbs1ixp3ievvrtzunjy7JsHySFO99t+K+yEaBHX9rbMum5Bp2hBbKJFS85OJ5thDedAiBZxbXWj75XpQrQgNtGiLdOjTQSL41Hb74MdES3i2vbtyf74z+Vl9qIFsYkW7Tm4/8DF+P5nQUeIFnHt4KbqS7c+FS2ITbRo0dnBeHZ89wGLkwtXnQ6IaBHXDqLFXpIu/r7Y8EK0IDbRIjBlQ0m0iGs30SLx1zxdiBYrnI1GI9fLBSFaBKZsKIkWce0uWuztZdtpdS9azN/XlheGTU8nk9OrI7ljW/+0QbQITNlQEi3i2mm02Es2vOjebarzaLE/y52PR7UYMP/R/k3/fbvLyeRyxVNEi1aIFoEpG0qiRVy7jhZdlEeLUXW92OXh2fLvr/3vWyURYnrNz9t+8wMkWgSmbCiJFnGJFrfL10GMllajj4s0cN9ocXbdLaDPRiPbCu6eaBGYsqEkWsQlWqxtVESG0eEsu9ItzxaTpe3/mkaL2eSw7fdGhWgRmLKhJFrEJVqsbVSJDNN0a5/LLFvce0KEUESLwJQNJdEiLtHidpUJkTIy7CfZIpvHuCFa7I8uxofFpMZ0fqClY6aPGY/Px4eL3+wnv5kejsf1CZH5gc4PXaC6C6JFYMqGkmgRl2hxu8oyzkqESLPFtPL75cfPn5FNnExOT9LHjSqVd/GYg8tiI8GD7Dfz54xGp+lDy2Wch8X+x+dtfxgDIFoEpmwoiRZxiRa3Wx0t9g7m/31Y+f3y4/dOyiWfR3t7q6PFRWVdaHaQebS4mE1q0aJ616ZLAxfbJloEpmwoiRZxiRa3uyZa7J3mPf810WKaRIrRdG+UfMYHe6ujRbJX1sX+3kESHk7T1DCPFfP/d55MiBTRYpweKZk6mVx3MQmbI1oEpmwoiRZxiRa3uy5anEwml5XfLz/+YnENyWEWG1ZEi4PFZ7Y4ejJicXxWFE4SLZK9OvNAkQxyuP/SlokWgSkbSqJFXKLF7a6LFuO8Ml4TLY7yeZC5i3T7zhXRYnQ+KzbLusw/vVl5LWseLQ6LRR1zx4Yttk60CEzZUBIt4hItbnfHaHFl9uJg1TLOhVklWpQvMMt+UmSUZKTEBp1bJloEpmwoiRZxiRa3u2O0SHfvPBpdffyV5yT3PR1VRi1m5RPyaLH4XC8mk9O2P4++Ey0CUzaURIu4RIvb3RAtTiu/X358cYXI0eG0/KyXH7N3djQrtw5PfjArrzDNo0VxJcreXn1She0QLQJTNpREi7hEi9vdsIxz1RUiZ4v/vij2rDgZFZ/10jHLDSuq0aL4FMtoUW61VVl3wXaIFoEpG0qiRVyixe1uuPj0PP999X1XH3d2nqeLg72V0SL50ek43aRztna0aPvz6DvRIjBlQ0m0iEu0uN0NW2alO2ge1zfJHNcHFqbp2MXpXi1a7OfHuiz3wLo+WlxWPlfRYvtEi8CUDSXRIi7R4nbXb/R9nP5rVl9aeVz8vDA9zp5ZiRaH2U+m5YWmydOuiRaV1RfJjy7b/jz6TrQITNlQEi3iEi1utzJapLcQGS0+w/Ku6smuVvklHtPKY8fZAfLbjV1mT66snLi4fq3FeSWrHLn4dOtEi8CUDSXRIi7R4narokV6U/W8k09mN06LW5SmkSOZJzm4XMx1nJ2m2eNsEUGmkzJaZHclS0c20t0rrkaLygtPaymGrRAtAlM2lESLuESL212JFgcn6XUdp8WW2+lizPQS0+nh4l7rZ5PFTldH+XBFctOR5H+nl5NyQiR98P7l5DSfVrkaLdIZlzS6JE88XuOMuQ/RIjBlQ0m0iEu0uF11C6zJ5XFxqehRuVYzuwzkeJZdSZrfOSTZ1uL06PDwfDap3GZscjk+Op6c5MdMbxgyHif7baYTKeOzVdFilB/p5HgxysH2iBaBKRtKokVcosXtatGicFrt4qfjym/Oi8hRual6NjUyLfa5OCqOeXa6eED2z9GqaLG3v8gzp6N1z5q7Ei2gE0SLuESL281m6TTG/qw0Xh47ODtJhyxOZyeVG5OOsomTyaxYHjE9T6Y9Ti6meyfZMfem6UNOx/PosX90msyXnM8WD7+Yzc6LJ6aHn53bLgsgJVrEJVps0IoRhelotF//yf6Vh+zvreXM3dQBFkSLuEQLADpItIhLtACgg0SLuEQLADpItIhLtACgg0SLuEQLADpItIhLtACgg0SLuEQLADpItIhLtACgg0SLuEQLADpItIhLtACgg0SLuEQLADpItIhLtACgg0SLuEQLADpItIhLtACgg0SLuEQLADpItIhLtACgg0SLuEQLoDPmDU3bp0AYokVcogXUPdV9xaVsKIkWcYkWUCdaBKZsKIkWcYkWUCdaBKZsKIkWcYkWUCdaBKZsKIkWcYkWUCdaBKZsKIkWcYkWUCdaBKZsKIkWcYkWUCdaBKZsKIkWcYkWUCdaBKZsKIkWcYkWUCdaBKZsKIkWcYkWUCdaBKZsKIkWcYkWUCdaBKZsKIkWcYkWUCdaBKZsKIkWcYkWUCdaBKZsKIkWcYkWUCdaBKZsKIkWcYkWUCdaBKZsKIkWcYkWUCdaBKZsKIkWcYkWUCdaBKZsKIkWcYkWUCdaBKZsKIkWcYkWUCdaBKZsKIkWcYkWUCdaBKZsKIkWcYkWUCdaBKZsKIkWcYkWUCdaBKZsKIkWcYkWUCdaBKZsKIkWcYkWUCdaBKZsKIkWcYkWUCdaBKZsKIkWcYkWUCdaBKZsKIkWcYkWUCdaBKZsKIkWcYkWUCdaBKZsKIkWcYkWUCdaBKZsKIkWcYkWUCdaBKZsKIkWcYkWUCdaBKZsKIkWcYkWUCdaBKZsKIkWcYkWUCdaBKZsKIkWcYkWUCdaBKZsKIkWcYkWUCdaBKZsKIkWcYkWUCdaBKZsKIkWcYkWUCdaBKZsKIkWcYkWUCdaQCeIFnGJFgB0kGgRl2gBQAeJFnGJFgB0kGgRl2gBQAeJFnGJFgB0kGgRl2gBQAeJFnGJFgB0kGgRl2gBQAeJFnGJFgB0kGgRl2gBQAeJFnGJFgB0kGgRl2gBQAeJFnGJFgB0kGgRl2gBQAeJFnGJFgB0kGgRl2gBQAeJFnGJFgB0kGgRl2gBQAeJFnGJFkBnzBuatk+BMESLuEQLqHuq+4pL2VASLeISLaBOtAhM2VASLeISLaBOtAhM2VASLeISLaBOtAhM2VASLeISLaBOtAhM2VASLeISLaBOtAhM2VASLeISLaBOtAhM2VASLeISLaBOtAhM2VASLeISLaBOtAhM2VASLeISLaBOtAhM2VASLeISLaBOtAhM2VASLeISLaBOtAhM2VASLeISLaBOtAhM2VASLeISLaBOtAhM2VASLeISLaBOtAhM2VASLeISLaBOtAhM2VASLeISLaBOtAhM2VASLeISLaBOtAhM2VASLeISLaBOtAhM2VASLeISLaBOtAhM2VASLeISLaBOtAhM2VASLeISLaBOtAhM2VASLeISLaBOtAhM2VASLeISLaBOtAhM2VASLeISLaBOtAhM2VASLeISLaBOtAhM2VASLeISLaBOtAhM2VASLeISLaBOtAhM2VASLeISLaBOtAhM2VASLeISLaBOtAhM2VASLeISLaBOtAhM2VASLeISLaBOtAhM2VASLeISLaBOtAhM2VASLeISLaBOtAhM2VASLeISLaBOtAhM2VASLeISLaBOtAhM2VASLeISLaBOtAhM2VASLeISLaBOtIBOEC3iEi0A6CDRIi7RAoAOEi3iEi0A6CDRIi7RAoAOEi3iEi0A6CDRIi7RAoAOEi3iEi0A6CDRIi7RAoAOEi3iEi0A6CDRIi7RAoAOEi3iEi0A6CDRIi7RAoAOEi3iEi0A6CDRIi7RAoAOEi3iEi0A6CDRIi7RAoAOEi3iEi0A6CDRIi7RAoAOEi3iEi2Azpg3NG2fAmGIFnGJFlD3VPcVl7KhJFrEJVpAnWgRmLKhJFrEJVpAnWgRmLKhJFrEJVpAnWgRmLKhJFrEJVpAnWgRmLKhJFrEJVpAnWgRmLKhJFrEJVpAnWgRmLKhJFrEJVpAnWgRmLKhJFrEJVpAnWgRmLKhJFrEJVpAnWgRmLKhJFrEJVpAnWgRmLKhJFrEJVpAnWgRmLKhJFrEJVpAnWgRmLKhJFrEJVpAnWgRmLKhJFrEJVpAnWgRmLKhJFrEJVpAnWgRmLKhJFrEJVpAnWgRmLKhJFrEJVpAnWgRmLKhJFrE1YlocTGbnWf/mo5nR+NR5QctOp/NLm749fRoNtvfwMvMssNs/C3P7nh6t7zt7dmfn/Gqn2/qg14QLQJTNpREi7g6ES3mJ5l1KmfHk/RFFj+43dl4PD674b/vbnbz253/+mQTLzN/w6PqZ7Ap+XHv/LYvxvOufnYyHl+MptXfX8x/ctN/39nour/9i8nkdNrwYDcRLQJTNpREi7i6FS1O5i9x2ixajJa60NFdu9Qrbo4W81O83Eh/FzVazCaly8Oz6u9nS4/fzIlfGy32zudnsMFPRrQITNlQEi3i6kS0OBuN0hHvs/krnEwrP1jD9qLF/mh0/fDH/GVONzM4MhqlowJhokXxtqvRoiiX/OfbiRbT+Sdxza8uJ5MNzhaJFoEpG0qiRVydiBaFJBY07a+3Fy1uNNv0ZxEmWlTe4ckocZiFjNPR4ufbiRY3uEvFuJ5oEZiyoSRaxNW5aHGX5+w+Wmx6+j9mtChKe3pxmWSL/eLnO48WG1vYkhItAlM2lESLuNqIFvWR7XJeYToaH5a/OEt/PjoYTfP5j/3RYdIdJj9enhDZrx39YjwuX+CmaLE/ymcb8tfbXxyifP7Z6HB+VouvxOkTphfZ+ZQ/PktOvZIljieTw/K/5r+9KM9hP3vN/cWPzg4Pq2e46hVvixbpO6n9JHnN/eXXPLsYL95k/jns1198r/7prX6pYkKkLO1pmi2m+c+vixbJ51oWXOWzr36Uo4Px+KDy8SdPGCVLRWvVZn6aB5VS35+//MauEhEtAlM2lESLuNqIFkk/cFD8x3SS98IHp/mSwNHizMbTWdoBZt3qYnK/uoxzepI+7bi4CCH/7/Iw10eLUX7A2WHxerPKY7J/HRQvepJ3fWm4OS3OJ3+7h/lrnhbv6qBaTYvfFldIzp93OD1Jr3U5mvet4/Rfp0XHuPIV926OFsU7OVrEmcPJldc8yF+pWBWRHDf/tBbnPT3Pz/X4+os6Kss4K6WdZouL/Oero8V0nB38+GS/+sZqx7pyAunbPkofWpbKtPiMjqaVV9nYagvRIjBlQ0m0iKuVCZHjyvD1RT5Nfl6uCLwozmycnN2N0eLidLGMMP3vtIerHWZ5EmURLY7KRx7mr3clWlyUjzktO+Skh65Ei2nlSHn3djLv9fJjVX6b9+DJ804WZ71432c3vOLejdFiVj7n4Mprjq68Zn5qyaMvl55X+fSuLcnV0WJveppfpjEr3/te/jmnJz5aFNXkeFp5Y9VjVU/gvKgFs4NJPVocVI5UHGGepY7v/ldQJ1oEpmwoiRZxtRIt5v3AafHvo6wnSs7j9GI0Sr/ZXuRnNjudzE7mX7yzbrUyIVL0s8n4x9HF6PCyyBZJn3p+cHaR9LbZFRrL0WI/79HO0qeenV0c5Y9cES2SEZXT8Wg6zsPEXlqX5130SbJ9VdEfJl320UF2pDzPHBf/yH57OX9j55OiK50/7zjpMNMv6CfJF/TD4+L8V7/izdEieUcn+etncWTla14mBz44WqSY5DHJo9LP6nhxricXZ9mDrptfuCZapE8+W/Hz4sRPsnc2GhfBckW0OM8KZXSyOPHk2ceT46QWLErlND3SXlpXihUtZ5PNzYiIFoEpG0qiRVytRIuzxffktC+9yLuL7ALTWd7RjWsDGNkX36L08x8kzzpZvI397GhZB7xfDEZcWfpZdtX5Xgj51+oV0eKiegaT4qv25DgbYMj7w7PFkElyDeRx8eJn5VvN9rfYv8wfNyu+bU+T/HCanuVJHrZWv+LN0aLc1WGWPaZ8zVHtNRcX8I6Ld5Kd90HRjxcDD3tnp9cX5XXRojjKddHitFh+sn+alf6KaHFchJyzIn+MyxGUolROFtNHyZGKCFdf3XIvokVgyoaSaBFXO1eIzBa98UXWp47L1QbTsi8tHnRdtLhY1IYkZJyne0EXQ+RH+bOvixZlDzjN1liuiBbj+eHqJ7U3KTvE/Agn5RDMWR4MDsstnE6K4f8ycMwWwepoMe5/kQeJ1a94c7Q4Xn4nJ+VuXaP8uLPJouc9zg9UTsJM84KrfHonN06/rIwW+zdHi1E5wnAwThdtXo0WZ/MTuKg9K60Fl7VSOSvfSpKqjst/bupCFNEiMGVDSbSIq51ocbHojvOv1dUJ+vxH47LruS5aXJbP2h/Vt5u++pxCfthy9mLpCXsrL3Kd5f1Z2dMV/eGssnAk37qpcqjq1//8e/usGI9I32K5ImR07SveHC1my++k+pqT8jXz6HaSd8dlcqutfVl8GNctXbguWlRealW02J8sb0+6YtSitEh35ZvLf1Tdw2JUvq0NXpwrWgSmbCiJFnG1Ey2mxRf3Yor8uPLU88UExaQ8yZXR4toXnAeNk2uiRTEakF5DcVjp666PFslVj5flNELRC+f9YTUUjK/MrUwqF8McLbJInk4Oyl6yHi2WXvHmaJHNHFXeSfVY5WseVx6+V//wZvVjZ5/edX9nd4wWSRFPLvfrj78mWsxP4DA/gUp4yEvlsLqrd3mMDa7jFC0CUzaURIu4Wtoy6yTvoQ/Lr9BVS/3zDdHiykWSh0eX1aNce4VIfjHC5flo6UVqzzkbz46LwxUdfaVDviZalD3l/tIby0dozhevU3SHi6OsesWbo8XinVS64KrzvdrQSiVaVHr2/NgXJ7PF864puqYTIkXGy659OT1axLmV0WL5BCrFl/+z9kGUye0u26ldQ7QITNlQEi3iailaHOQzIpfZN92zpd7wcm/daLE0i7BfuXqxfE51HH4x9VBuoZB1ducrosXhaeVwq6NFbSoj77bLnnK5m58t/7YyujG69hVvufi03MsjHbu4+TVviha1T69ptCg+iNnS7Moit5Q7doz2rp5Aeqyz2fIJXI0WR9UP4rj2Sa9Z+W4jWgSmbCiJFnG1tdH3aTrOnUSKZEYgmaW4nFXs3S1apL3qbJxs+lidEKk+6HBSTtVf5Ps/pBefnlyNFunFmyeHyeGO6x19IusP9yf1aHG6txwtqm/sfO/maHH9K968lqB4J8mS0Ztf84ZosZ99egejO02InOdPOVo60cpCjrPxZTmQsmoZZxKRjtMTqEyIFAM7eanUVpieihYDo2woiRZxtRUtztP+5bCyf9Ph1TO7LVos927JUU+Xln4uH7pyQUd6yHTsYinKFJtpJhdTlGshVkeLmydEzq4OrNwYLa5/xVuXKWb7ZBwthZ0rr3lDtEi684v6g1a4Lloc52W59NRpvVZkW45cc/HpxdUTGJXFZUIE0YIq0SKutqLFfvpt9LLoSi6vPnWNaHGyvLvzcW2R5az42az+kHoXnY50TGuvl39nr25Ifn20OK0s1MwnVc6vTnRU3BAtbnjFNa6AOMj/Om6NFsd7e8vv5GivdpnOeeNocVKc+kH95S+unE1xye2ktrlJfh1vsUKzEi2WJkQuqus1J5ZxDoyyoSRaxNXanU/nXfz+2eIr6exqx7lGtKhcLDBOBv4rW3GdFWstqtdd7mU93dLNJvLOr/Jt+3hSXItwWnlM0aEWK0dnVy8+zScxKqd+9brOm6LFqldcP1oU1+tefYtL0WJWOW7lt+WYQbJNSLNocbL4vPcntTM9ntTXumTLTi/3qstWivdauWr2+NpoUblmJI0x0yvV5b5EC+gE0SKu1qLFvBc9P6zunLXoL2ZHh0sbb18XLcrdnc/S7nRxq7OsqzteHHqxoUKyf2Pao45mp4sVANmPym/b+5PF0HuxJO4xDgAAKORJREFUqdTx5GqHWo7in1Y2xRpdOfXit9PZ0cV07/pocc0r3hYtLmanRZDI7/9542veHC3Oy1rRJFpM052585mc40nlwp3zImicXC4K+GQxbTQrCyuPFpX6MCnWpO4tPq1imuq8fqTq2wKGQrSIq7VoMe/Qjy/LPHG82PTgPN+Yc41oUe47eZ51qoudqk8mp4u+Lhm2yI+d3s0s7ZcOyhQymyx2eTxPDpZdzJm/XPqY7MqJWf7gpWiRvmh6EskTl69KmS5+m0wEHN8SLVa94lK0uLK5VmWBwmV2lOQ1Z9e9ZjVaLI2/FPuUZ8kiK5rZlXmGK9Fimq8hLfr7Ufkf6S1KT4t7sOfbko7yX58UC2PSHJEPAGWDNtmNWw/2VkaL8g1XJ1suN3jrU6ALRIu4WosW2f06F91W0tWfnl8cnF8WkxrrRIskDhyfHKYXXybfd9P7ch0enB9PTpMDHo2TXu0su3H47CTf/yHr4NIdnM5HB+PZpHKfjcnJ4fzJR2UXPTk6SA5/knxO5xcro0Xyq+PxwUF6S7Gsp6vc2yL/7UXyxk73q89bES1WveJt0SJ5scnleP5OLosuvXjNkxWvWY0WS+8kfdphUgSnyavMkk/v6kxVJVocJxeg5Bd9nJZrZbObuV6e5Bt0HJYFfHQ4ujgvPqb0iuPjw/HR/OfZMQ/T8x7N38hpunnn/ARWRIu06E4OR4flJEy2XGNTtycDOkG0iKu9aHFRdjuJyp2yD4szuzVaZBMcZWKYFv8571Avi+/Ce/uzSemkGE6o7OGQ38urePJJ3tFn6yLTB+SbRayMFpUboReXp5xUVlhUdqo4qD/varRY9Yq3RouzyjvJl2Eelj8ZLb3mDaMW02Kvrsqnd2O0qCiua8leorI5R3FTkOrt4vMXXtxPfn+8fMyL7J/jldFiWr700bQ8+ukeMCSiRVztRYvke+ak0iFNj7KebbZ0g6q9m6LF3n72rNNi/eFJFg6Su6AeldGl2K3p+Kh8wenh5VLnl89CHE6Ljj69c2hyB+95B3ZxmXZeq6LFPLukfelxEVsWO4Llp5j1tEej5eet2DLr6iveGi3Kd3J5sfyaJ1de84a1FnvTrLOfjcpPb41ocTqbjZfP6Dw/o1n1utNiZ6+T/fJUkk9ttFdEi+m4cgLpLVdWRYt5KLmsVZW98m50wGCIFnG1Fy1WGY1GzZ80rd+ZbH/1MeaPujJgfjY6uBhVv27vXXnuqqddc/jqf53WtyBf9yjrPPZs1cj//pV30ug1a59e/XqOw7uujjxbPtJe8vEeHozqD1o+x/0VT1t9otW3u2r/EKDfRIu4YkWL3tjgLgtXD72tI6902YnVkSeuD4HBES3iEi2243jFndM2Y7d9/X4nVkcatIABEi3iEi2242JxreWG7bivP6/cwTwuKy1ggESLuESLLTkpd83eqOldlqPc3f7SCo6QDreV44DARIu4RIstmV5eveMaW7Ff7N4BDIloEZdosS3Jlhvm/3dg+XIcYBhEi7hECwA6SLSIS7QAoINEi7hEC3rl9z+2fQbAbogWcYkW9MpPT//1b+kChkC0iEu0oFd+Sqriv/78l7bPA9g20SIu0YJe+SmvjX+SLqDnRIu4RAt65aeyQt41Xfze9nvgevNybfsUCEO0iEu0oFd+qtXJP/39r80P8VT3FZeyoSRaxCVa0Cs/LVfLvzVOF6JFYMqGkmgRl2hBr/y0omY2TBeiRWDKhpJoEZdoQa/8dE3t/Mc/115CIVoEpmwoiRZxiRb0yk/XV9B104VoEZiyoSRaxLXhaLGhYoatyNLF/sX5bHJns/ML91ltzVPRggXRIi7RgmH51//mf3v3WFE4n7b9hztUT0ULFkSLuEQLhuV/97//79w/WkyOR23/5Q7UU9GCBdEiLtGCAfnHP/8PG8gVqYu2/3SH6alowYJoEZdlnPTKTzflit/3zk6TJuTBo2c/3LWa//Ds0YPkGKdnbb/VQRItKIkWcYkW9Mp10SK/PGSWtCDfPrlfTX/ybbqcs+23OkiiBSXRIi7Rgl5ZFS3KLbMOJ5up70ldnxy2/V6HSLSgJFrEJVrQK1eiRW0rzmTQ4uUmKvtLwxbtEC0oiRZxiRb0Sj1aLN+eLGk/vt9EZf9eS9QO0YKSaBGXaEGvVKLF1Zuq7ydLODdT25OlnHbO2j3RgpJoEZdoQa8U0eJqrpi7mFfRh5up7Q9df9oK0YKSaBGXaEGvpNHiX6tyxZ7a3gOiBSXRIi6NLb3y09N//fuP1/1Sbe880YKSaBGXxpZe+f2PN/xSbe880YKSaBGXxpbhUNs7T7SgJFrEpbFlONT2zhMtKIkWcWlsGQ61vfNEC0qiRVwaW4ZDbe880YKSaBGXxpbhUNs7T7SgJFrEpbFlONT2zhMtKIkWcWlsGQ61vfNEC0qiRVwaW4ZDbe880YKSaBGXxpbhUNs7T7SgJFrEpbFlONT2zhMtKIkWcWlsGQ61vfNEC0qiRVwaW4ZDbe880YKSaBGXxpbhUNs7T7SgJFrEpbFlONT2zhMtKIkWcWlsGQ61vfNEC0qiRVwaW4ZDbe880YKSaBGXxpbhUNs7T7SgJFrEpbFlONT2zhMtKIkWcWlsGQ61HXpEtIhLY8twqO3QI6JFXBpbhkNthx4RLeLS2DIcajv0iGgRl8aW4VDboUdEi7g0tgyH2g49IlrEpbFlONR26BHRIi6NLcOhtkOPiBZxaWwZDrUdekS0iEtjy3Co7dAjokVcGluGQ22HHhEt4tLYMhxqO/SIaBGXxpbhUNuhR0SLuDS2DIfaDj0iWsSlsWU41HboEdEiLo0tw6G2Q4+IFnFpbBkOtR16RLSIS2PLcKjt0COiRVwaW4ZDbe+839s+AQIRLeLS2DIcanvnzT/6tk+BMESLuDS2DIfa3nmiBSXRIi6NLcOhtneeaEFJtIhLY8twqO2dJ1pQEi3i0tgyHGp754kWlESLuDS2DIfa3nmiBSXRIi6NLcOhtneeaEFJtIhLY8twqO2dJ1pQEi3i0tgyHGp754kWlESLuDS2DIfa3nmiBSXRIi6NLcOhtneeaEFJtIhLY8twqO2dJ1pQEi3i0tgyHGp754kWlESLuDS2DIfa3nmiBSXRIi6NLcOhtneeaEFJtIhLY8twqO2dJ1pQEi3i0tgyHGp754kWlESLuDS2DIfa3nmiBSXRIi6NLcOhtneeaEFJtIhLY8twqO2dJ1pQEi3i0tgyHGp754kWlESLuDS2DIfa3nmiBSXRIi6NLcOhtneeaEFJtIhLY8twqO2dJ1pQEi3i0tgyHGp754kWlESLuDS2DIfa3nmiBSXRIi6NLcOhtneeaEFJtIhLY8twqO2dJ1pQEi3i0tgyHGp754kWlESLuDS2DIfa3nmiBSXRIi6NLcOhtneeaEFJtIhLY8twqO2dJ1pQEi3i0tgyHGp754kWlESLuDS2DIfa3nmiBSXRIi6NLcOhtneeaEFJtIhLY8twqO2dJ1pQEi3i0tgyHGp754kWlESLuDS2DIfa3nmiBSXRIi6NLcOhtkOPiBZxaWwZDrUdekS0iEtjy3Co7dAjokVcGluGQ22HHhEt4tLYMhxqO/SIaBGXxpbhUNuhR0SLuDS2DIfaDj0iWsSlsWU41HboEdEiLo0tw6G2Q4+IFnFpbBkOtR16RLSIS2PLcKjt0COiRVwaW4ZDbYceES3i0tgyHGo79IhoEZfGluFQ26FHRIu4NLYMh9oOPSJaxKWxZTjUdugR0SIujS3DobZDj4gWcWlsGQ61HXpEtIhLY8twqO2d93vbJ0AgokVcGluGQ23vvPlH3/YpEIZoEZfGluFQ2ztPtKAkWsSlsWU41PbOEy0oiRZxaWwZDrW980QLSqJFXBpbhkNt7zzRgpJoEZfGluFQ2ztPtKAkWsSlsWU41PbOEy0oiRZxaWwZDrW980QLSqJFXBpbhkNt7zzRgpJoEZfGluFQ2ztPtKAkWsSlsWU41PbOEy0oiRZxaWwZDrW980QLSqJFXBpbhkNt7zzRgpJoEZfGluFQ2ztPtKAkWsSlsWU41PbOEy0oiRZxaWwZDrW980QLSqJFXBpbhkNt7zzRgpJoEZfGluFQ2ztPtKAkWsSlsWU41PbOEy0oiRZxaWwZDrW980QLSqJFXBpbhkNt7zzRgpJoEZfGluFQ2ztPtKAkWsSlsWU41PbOEy0oiRZxaWwZDrW980QLSqJFXBpbhkNt7zzRgpJoEZfGluFQ2ztPtKAkWsSlsWU41PbOEy0oiRZxaWwZDrW980QLSqJFXBpbhkNt7zzRgpJoEZfGluFQ2ztPtKAkWsSlsWU41PbOEy0oiRZxaWwZDrW980QLSqJFXBpbhkNt7zzRgpJoEZfGluFQ2ztPtKAkWsSlsWU41PbOEy0oiRZxaWwZDrW980QLSqJFXBpbhkNt7zzRgpJoEZfGluFQ2ztPtKAkWsSlsWU41HboEdEiLo0tw6G2Q4+IFnFpbBkOtR16RLSIS2PLcKjt0COiRVwaW4ZDbYceES3i0tgyHGo79IhoEZfGluFQ26FHRIu4NLYMh9oOPSJaxKWxZTjUdugR0SIujS3DobZDj4gWcWlsGQ61HXpEtIhLY8twqO3QI6JFXBpbhkNthx4RLeLS2DIcajv0iGgRl8aW4VDboUdEi7g0tgyH2g49IlrEpbFlONR26BHRIi6NLcOhtkOPiBZxaWwZDrW98/7Y9gkQiGgRl8aW4VDbO2/+0bd9CoQhWsSlsWU41PbOEy0oiRZxaWwZDrW980QLSqJFXBpbhkNt7zzRgpJoEZfGluFQ2ztPtKAkWsSlsWU41PbOEy0oiRZxaWwZDrW980QLSqJFXBpbhkNt7zzRgpJoEZfGluFQ2ztPtKAkWsSlsWU41PbOEy0oiRZxaWwZDrW980QLSqJFXBpbhkNt7zzRgpJoEZfGluFQ2ztPtKAkWsSlsWU41PbOEy0oiRZxaWwZDrW980QLSqJFXBpbhkNt7zzRgpJoEZfGluFQ2ztPtKAkWsSlsWU41PbOEy0oiRZxaWwZDrW980QLSqJFXBpbhkNt7zzRgpJoEZfGluFQ2ztPtKAkWsSlsWU41PbOEy0oiRZxaWwZDrW980QLSqJFXBpbhkNt7zzRgpJoEZfGluFQ2ztPtKAkWsSlsWU41PbOEy0oiRZxaWwZDrW980QLSqJFXBpbhkNt7zzRgpJoEZfGluFQ2ztPtKAkWsSlsWU41PbOEy0oiRZxaWwZDrW980QLSqJFXBpbhkNt7zzRgpJoEZfGluFQ2ztPtKAkWsSlsWU41PbOEy0oiRZxaWwZDrW980QLSqJFXBpbhkNt7zzRgpJoEZfGluFQ2ztPtKAkWsSlsWU41PbOEy0oiRZxaWwZDrUdekS0iEtjy3Co7dAjokVcGluGQ22HHhEt4tLYMhxqO/SIaBGXxpbhUNuhR0SLuDS2DIfaDj0iWsSlsWU41HboEdEiLo0tw6G2Q4+IFnFpbBkOtR16RLSIS2PLcKjt0COiRVwaW4ZDbYceES3i0tgyHGo79IhoEdeuG9u//Pkvbb9lBku0gB4RLeLaaWP717//6enTn9p+ywyWaAE9IlrEtbvG9q9//1v6MNGCtogW0COiRVw7amyLXCFa0KKLeRV9uJna/nB+qIu23w8MmmgR1y6iRSVXiBa0aH9eRR9sprY/mB9qv+33A4MmWsS19WhRzxWiBW1K2o/vN1HZv9cSQdtEi7i2Gy2u5ArRgjbN5nX05SYq+8v5gWZtv5sh+mPbJ0AgokVc24sWv//zH39b9TDRgtYcJg3IN/ev698kxzls+90M0fzDb/sUCEO0iGtL0WKeK657mGhBe5Jhi8nDJ/er6U+SNZwGLVohWlASLeLaRrS4IVeIFrTq7P+YNCEPvnn2w12r+Q/PvkmWcE5Oz9p+L4MkWlASLeLaeLS4OVdcY+UE6rpPvs9z7/Xk31t64d/v+My7vuJdnxfyPP9P/+fJZrjytBVPRQsWRIu4Nhwt/i93yBXXNRb3efK9Xjn6C9/1mZ4395//6397E8Hi2IWn7XgqWrAgWsS14Wjxf7vLmIVo0ezJd32m58395+nT//v/4//5X+6ZLM6n9/7L406eihYsiBZxbX6txXVXhjTsFOL38KJFF5/35//85z//r//3/+e/dfdYMTu/MGTRmqeiBQuiRVzbuUJk1X4WBcs4ie2amEIEyoaSaBHX1va1uDZdiBbEJloEpmwoiRZxbXM3zr/8+U+iBZ0jWgSmbCiJFnFt+R4iK9KFaEFsokVgyoaSaBHX9u98+pd//0u0oENEi8CUDSXRIq5d3FR974/VdCFaEJtoEZiyoSRaxLWTaLGXpItiwwvRgthEi8CUDSXRIq5dRYu9xa1FehctRuPxnTZ9PhuPx3d5HlsmWgSmbCiJFnHtMFrsZdtp9S5ajO94E8yRuhyTaBGYsqEkWsS122iR+P32h3SLaNEzokVgyoaSaBHX7qNF74gWPSNaBKZsKIkWcYkWm/gIRYs+ES0CUzaURIu4RItNfISiRZ+IFoEpG0qiRVyixSY+wjRaTK/cD3N05bHVx4gWQYkWgSkbSqJFXKLFJj7C2d7ByeVkcjorr0I9mB1Pkp9UPpHx7HT+o+PZQfafokVQokVgyoaSaBGXaLGJj3C2n4SGxEn2s+n5pDCbZj86my1+dJ7+QLQISrQITNlQEi3iEi028RFenk6OT8ZHx4tPIIkRl+eH4+R/T9NsMU3Cx2x8eH45ySdQRIugRIvAlA0l0SIu0WIjH2E2WjGdx4bj5B+jxfjFxfxfh8WjsumSk/m/9vdEi7BEi8CUDSXRIi7RYiMfYX6JyP78n8lKill50ch5ljaSQYviw7nMcodoEZRoEZiyoSRaxCVabOQjLJZvHqcfwbTykyRtjPb2Dub/c5b/6DCrxKJFUKJFYMqGkmgRl2ixkY8wX6qZTHbMstBQ/CRJGxfZgoziJ2dZzBAtghItAlM2lESLuESLjXyElX/PsiGKxa9n6adyXt1XKxvIEC2CEi0CUzaURIu4RItNfITHlX9f1n+SRIvz9P+eLH6UrcgQLYISLQJTNpREi7hEi018hLPKv4+Xtv7OQsWs+tlkSzFEi6BEi8CUDSXRIi7RYiMfYeXfs+yK08Wvs1BxYkKkM0SLwJQNJdEiLtFiIx9h5d+zpdBwmW5sUR3ImGYbW4gWQYkWgSkbSqJFXKLFRj7C4q5j2RDFWeUn02yI4mIyOS2ecODi09BEi8CUDSXRIi7RYiMf4Xn+73zvzePyJxfZlaZn+WZaiZNsladoEZRoEZiyoSRaxCVabOQjPN0v/pneMeRi8ZNpvvVmkicus70ukluZJRtqiRZBiRaBKRtKokVcosUmPsLTyenB2d7+eHHrkOP5zy7O9qajy2IXzmTY4vJgund2cFq50Ujb584KokVgyoaSaBGXaLGJj3C2uIf6Zbab9/7x4g7qp/mW3xenix8dpyMaokVQokVgyoaSaBGXaLGJj3C2l2eLy2J/7+msnjX2KnHjJHuQaAFwd6JFXKLFvZ2NRuk90sfji/3Kj6fzH4xHZ7VHHozHh6NF+hiNRm2fO0BXiRZxiRYAdJBoEZdoAUAHiRZxiRYAdJBoEZdoAUAHiRZxiRYAdJBoEZdoAUAHiRZxiRYAdJBoEZdoAUAHiRZxiRYAdJBoEZdoAUAHiRZxiRYAdJBoEZdoAUAHiRZxiRYAdJBoEZdoAUAHiRZxiRYAdJBoEZdoAUAHiRZxiRZQ93vbJ8D1/tj2CRCIaBGXaAF1SWVu+xy4hrKhJFrEJVpAnWgRmLKhJFrEJVpAnWgRmLKhtPNoYT5ubaIF1IkWgSkbSruNFj/9+U//afsdd4doAXWiRWDKhtIOo8Vf//63+aNEi7WJFlAnWgSmbCjtKlpkuUK0aEK0gDrRIjBlQ2kX0eL3f/6jfJRosTbRAupEi8CUDaWtR4tarhAtmhAtoE60CEzZUNputPjjv/+z/CjRYm2iBdSJFoEpG0pbjBZ//Pe/VjxKtFibaAF1okVgyobStqLFX/7wr9WPEi3WJlpAnWgRmLKhtJVo8Zc//+naR4kWaxMtoE60CEzZUNp8tPjphlyRRIsVP1u1Q+e6r7p39+dGf9n/nmgBNdf97RGAsqG04Wix2L7iWquixaoTW/dV7/Hc6C/7/51/oA8bFMANHs4PddF2XYP7uu4PiACUDaXNRov/8u9/3fYo0WL9p/6XyeTB2h//jR7MC2e/7boG93XdHxABKBtKG58Q+eMt6UK0WP+p/7/5J/p9kyK4zvfuSksvXPcHRADKhtI2lnHemC4s41zfbP6JvtxE0bycH2jW9ruBexMtAlM2lLZ08en16UK0WN/hZDMLOZNFnJPDtt8N3JtoEZiyobS9LbOuSReiRQPJsMXk2yf3K5cn304MWtAPokVgyobSVjf6XpUuRIsGzk6TD/XBo2c/3LVQfnj2KFnCOTk9a/u9wP2JFoEpG0rbvj3ZH5fuTiZaNHIx2RBXntIHokVgyobSDm6qXr/3qWjRyOh4E8HieNT2+4BNEC0CUzaUdhAt9mrpQrRoZnp+/2RxPm37XcBGiBaBKRtKu4kWe2W6EC2a2r84n909VszOL+yVRV+IFoEpG0o7ixZ7ebroaLQY3fLmxpPJ5TwAnOz+zDS2DIfaHpiyobTLaLGXpIs/tPyGz2ezuyxpvCVaHCTXYExP21guqbFlONT2wJQNpR1HizubjkZ3+t0Vs7vdAvTmaJFcJDo/h/1JC3fq0NgyHGp7YMqGUleixeENxz5o8rp3jBbrHXQ8mRxv7SO4hsaW4VDbA1M2lLoSLU5uOPa47WiRTIekF2FMj3e/obbGluFQ2wNTNpS6Ei0ubzj2rO1ocbw45kURMnZHY8twqO2BKRtKYaPFdDQejw/3838nSx1Go1HWa5+Nx0dH48Oz4nen6e/Okn8uFl3sFw/e20sONF4sgVgdLUYX49n4cDStv37ypLPRaD97mVF53OnB+cn4oHjoRWUa5Hgb8y030tgyHGp7YMqGUtBoMR2f5vtInu9layhTSe++v9jkId0JavG7cW2p5Sx78Lzfz7ezPD1Z/OJK3392mR/jdBFNTrL/Pk9mW2Z75TLO5LjT/Awup4tDnhfPO9z5aguNLcOhtgembCgFjRZpsMjSxWE9Wkwvy18d7dWixd6KaJGFhvTh58UvlqPFReXVst9Ni6wxORlnP6tEi8NFtsnuJjqtXheSXCSy2zuBaWwZDrU9MGVDKWa0SO7KlUx4jE7ye3aWAxLJcMJ4f+9snIxGpHMS5e+uRov97NF7++N8zGNFtEi2ozg9mM4PdFk8KNlc+2R/b3pwOjm+Ei1OJ5ej6dn5cfHgZH1FebSdL+TU2DIcantgyoZSzGhxtJhiOKrPR6TjGdlgQdKJp5McN0WL88Wjz/OZiqvRYp46TvM1HZf5IU+LfTX3TydXokU+ETItxjiOaptwlq+4IxpbhkNtD0zZUIoZLSaLr/7TdBFlGR/OxuNZviDiMO/Ey99djRaVvbfzJZ5Xo8VpuVTiIpvOOCinOM5XRIt8x83j/PXrRzzY5nUyq2hsGQ61PTBlQylmtKh04JlVm2EWP1v8bmkZZ3KAZPrkZPnQ9WhR3UJzmk1yVHa+OlsRLfK1FCf5o4qJmevPdKs0tgyH2g6dEDNaHKbLLit7Zi912PujucNbokWSCC7SpZjVfcCvRIvaobPfVic1Tq9Ei8v8N+P8R8Wai/JwO93ZQmMLQCgxo0V+hcbp0UXeS1f6/+n54vKN26NFfhHpZHY4XfrFwuHVaDHLLj6pPr4SLYrZkzxaTOvRYilpbJ9oAUAoMaPF3vTwstiOIp1+KFPD6HgyaRAt9i6KIHJyzVqLcXXdZRYqqo+Zlde4Lj09jxbLMyCiBQCDFjRazO3noxP1i0/3s5SQzJVcrBUtkpWfebrYX/pFpnZLscWoxXnlJ0tbZq2IFtUZkF1HCwAIJW60mDtLN7OqDhqk0xf5MsrxTdHitJYgpunYxeqLT1estTiqDGQc3xQtimWclSwxFS0AGLTQ0SIfpNir9P+VZRDnq6JF3qsfTJYSRLpBxdneNdFiMepwml7tUZkjmU5uihaz/CNcWsa54zIEgECCRouzorO/yCYyFh12ZceL0+VoMS1/WWxHsTdd3KRsstjpYmlfi8qFrvvZgw7LtHFxe7Q4bffiUwAIJWS0GJebUVxkvfyomAdZ7JOZpodJcYOybNig/OVxFi0uTheXio7yxRZXo8VJOUaRb9l5tsgo0+Pbo0X9iPVtvwFgaEJGi4vFdEYyNJF09vvF1lezPE9MjybFTUSKOYt0jcRxMgAxTS85HWeBoBI28gMsRYuzxYMuigGM4mYi2UWwt0SLk8qlqsv/BQBDEzJapF376dF4PDstOvvkH7PZRbqIYnKU/OI0iRTHR6Ps0bPZeX4X1NPzo9PJUR4BZtmmFuOjJFmkV33MJjX5jUYmxyfj8+RX2SDHwWn6o/kPTq7ua7EcLepbe58u7SMKAMMSM1pMKwEgm5lIpz+SXj3fAyu5o1gxNnExKcYWil9eTpe2zJosRiZWRIts88/Ueb7EYv80P9CKLbOWo0VtscXub6oOAKHEjBZ7ewdZJsh3zJpL9tC6TMYDDmaLnx/OJrPkRxfzHx2fF486PbmY7p3PZtngwf5JlhJOivuNzWqyn47SEYvZSbkc8+ziZHZ0cbbIEvvzx+ZPLwYlLtKRkr3qfVrTCHS5BwDDFTVaJEab2h9i/x4HWmObitE8zuSjHVPzIQAMXORo0aKzUT5asr/OmypnSWpbewLAAIkWqyTXpWTjENWboF5rcWnstL7HBQAMj2ixykW6FHRvb/9yjfmQvfKK07WCCAD0mWixUuX2quM1Hp7sf3GYbZfl8hAAhk20WGk6Lq5xPVnr8cnFqvvJ/3FnMgAGTrS4xtk4uUz1Yrrmwy9ms6PKhanAFvyx7RPgevNOoO1TIAzRAuiKp7qvuJQNJdEC6ArRIjBlQ0m06DqNLcOhtgembCiJFl2nsWU41PbAlA0l0aLrNLYMh9oemLKhJFp0ncaW4VDbA1M2lESLrtPYMhxqe2DKhpJo0XUaW4ZDbQ9M2VASLbpOY8twqO2BKRtKokXXaWwZDrU9MGVDSbToOo0tw6G2B6ZsKIkWXaexZTjU9sCUDSXRous0tgyH2h6YsqEkWnSdxpbhUNsDUzaURIuu09gyHGp7YMqGkmjRdRpbhkNtD0zZUBItuk5jy3Co7YEpG0qiRddpbBkOtT0wZUNJtOg6jS3DobYHpmwoiRZdp7FlONT2wJQNJdGi6zS2DIfaHpiyoSRadJ3GluFQ2wNTNpREi67T2DIcantgyoaSaNF1GluGQ20PTNlQEi26TmPLcKjtgSkbSqJF12lsGQ61PTBlQ0m06DqNLcOhtgembCiJFl2nsWU41PbAlA0l0aLrNLYMh9oemLKhJFp0ncaW4VDbA1M2lESLrtPYMhxqe2DKhpJo0XUaW4ZDbQ9M2VASLbpOY8twqO2BKRtKokXXaWwZDrU9MGVDSbToOo0tw6G2B6ZsKIkWXaexZTjU9sCUDSXRous0tgyH2h6YsqEkWnSdxpbhUNuhE0SLrtPYAhCKaNF1ogUAoYgWAMAGiRYAwAaJFgDABokWAMAGiRYAwAaJFgDABokWAMAGiRYAwAaJFgDABokWAMAGiRYAwAaJFgDABokWAMAGiRYAwAaJFgDABokWAMAGiRZAV/yx7RPgevNOoO1TIAzRAuiKp7qvuJQNJdGi6zS2DIfaHpiyoSRadJ3GluFQ2wNTNpREi67T2DIcantgyoaSaNF1GluGQ20PTNlQEi26TmPLcKjtgSkbSqJF12lsGQ61PTBlQ0m06DqNLcOhtgembCiJFl2nsWU41PbAlA0l0aLrNLYMh9oemLKhJFp0ncaW4VDbA1M2lESLrtPYMhxqe2DKhpJo0XUaW4ZDbQ9M2VASLbpOY8twqO2BKRtKokXXaWwZDrU9MGVDSbToOo0tw6G2B6ZsKIkWXaexZTjU9sCUDSXRous0tgyH2h6YsqEkWnSdxpbhUNsDUzaURIuu09gyHGp7YMqGkmjRdRpbhkNtD0zZUBItuk5jy3Co7YEpG0qiRddpbBkOtT0wZUNJtOg6jS3DobYHpmwoiRZdp7FlONT2wJQNJdGi6zS2DIfaHpiyoSRadJ3GluFQ2wNTNpREi67T2DIcantgyoaSaNF1GluGQ20PTNlQEi26TmPLcKjtgSkbSqJF12lsGQ61PTBlQ0m06DqNLcOhtgembCiJFl2nsWU41PbAlA0l0aLrNLYMh9oemLKhJFp0ncaW4VDbA1M2lESLrtPYMhxqe2DKhpJo0XUaW4ZDbQ9M2VASLbpOYwtAKKJF14kWAIQiWgAAGyRaAAAbJFoAABskWgAAGyRaAAAbJFoAABskWgAAGyRaAAAbJFoAABskWgAAGyRaAAAbdDzPA483kiwez4903PbbAQDadTQPBN9tJFp8Nz/SUdtvBwBo13geCL7dSLT4dn6kcdtvBwBo1yhZIfFsA8niWXKgUdtvBwBo1zRZbPHgyb2TxZMHyVKLadtvBwBoWTps8eC+4xbPHhi0AAAS50komHz73d2vE3n83bfpMc7bfitAryXtTdvnwDWUDVXTy8lmXJoOaYPGluFQ2wNTNtRMzzeSLM4li1ZobBkOtT0wZcOS0fG9g8WxdRYt0dgyHGp7YMqGZdPR+Oju8eL4aDwyZNEWjS3DobYHpmxoSp2JS2PLcKjtgSkbmlJn4tLYMhxqe2DKhqbUmbg0tgyH2h6YsqEpdSYujS3DobYHpmxoSp2JS2PLcKjtgSkbmlJn4tLYMhxqe2DKhqbUmbg0tgyH2h6YsqEpdSYujS3DobYHpmxoSp2JS2PLcKjtgSkbmlJn4tLYMhxqe2DKhqbUmbg0tgyH2h6YsqEpdSYujS3DobYHpmxoSp2JS2PLcKjtgSkbmlJn4tLYMhxqe2DKhqbUmbg0tgyH2h6YsqEpdSYujS3DobYHpmxoSp2JS2PLcKjtgSkbmlJn4tLYMhxqe2DKhqbUmbg0tgyH2h6YsqEpdSYujS3DobYHpmxoSp2JS2PLcKjtgSkbmlJn4tLYMhxqe2DKhqbUmbg0tgyH2h6YsqEpdSYujS3DobYHpmxoSp2JS2PLcKjtgSkbmlJn4tLYMhxqe2DKhqbUmbg0tgyH2h6YsqEpdSYujS3DobYHpmxoSp2JS2PLcKjtgSkbmlJn4tLYMhxqe2DKhqbUmbg0tgyH2h6YsqEpdSYujS3DobYHpmxoSp2JS2PLcKjtgSkb6A+NLQAAAAAAAAAAAAAAAAAAAAAAAAAAAAAAAAAAAAAAAAAAAAAAAAAADMzTp0/bPgWu8VThMBhqe2DKhqbUmbg0tgyH2h6YsqEpdSYujS3DobYHpmxoSp2JS2PLcKjtgSkbmlJn4tLYMhxqe2DKhqbUmbg0tgyH2h6YsqEpdSYujS3DobYHpmxoSp2JS2PLcKjtgSkbmlJn4tLYMhxqe2DKhqbUmbg0tgyH2h6YsqEpdSYujS3DobYHpmxoSp2JS2PLcKjtgSkbmlJn4tLYMhxqe2DKhqbUmbg0tgyH2h6YsqEpdSYujS3DobYHpmxoSp2JS2PLcKjtgSkbmlJn4tLYMhxqe2DKhqbUmbg0tgyH2h6YsqEpdSYujS3DobYHpmxoSp2JS2PLcKjtgSkbmlJn4tLYMhxqe2DKBgAAAAAAAAAAAAAAAAAAAAAAAAAAAAAAAAAAAAAAAAAAAAAAAAAAAAAAAAAAAAAAAAAAAAAAAAAAAAAAAAAAAAAAAAAAAAAAAAAAAAAAAAAAAAAAAAAAAAAAAAAAAAAAAAAAAAAAAAAAAAAAAAAAAAAAAAAAAAAAAAAAAAAAAAAAAAAAAAAAAAAAAAAAAAAAAAAAAAAAAAAAAAAAAABu8f8HEg1iQ/tLArUAAAAldEVYdGRhdGU6Y3JlYXRlADIwMTktMDktMTZUMDM6MTU6MTkrMDA6MDAdOR9yAAAAJXRFWHRkYXRlOm1vZGlmeQAyMDE5LTA5LTE2VDAzOjE1OjE5KzAwOjAwbGSnzgAAAABJRU5ErkJggg==;" vertex="1" parent="1">
          <mxGeometry x="-2100" y="-3660" width="460.83" height="380" as="geometry" />
        </mxCell>
        <mxCell id="QXlVbmSmWBWOAAHCpMSD-2" value="usuário" style="shape=umlActor;verticalLabelPosition=bottom;verticalAlign=top;html=1;outlineConnect=0;fillColor=#dae8fc;strokeColor=#6c8ebf;" vertex="1" parent="1">
          <mxGeometry x="-1561.62" y="-3550" width="61.08" height="113" as="geometry" />
        </mxCell>
        <mxCell id="QXlVbmSmWBWOAAHCpMSD-3" value="APP" style="ellipse;whiteSpace=wrap;html=1;aspect=fixed;fillColor=#dae8fc;strokeColor=#6c8ebf;" vertex="1" parent="1">
          <mxGeometry x="-1420" y="-3507" width="80" height="80" as="geometry" />
        </mxCell>
        <mxCell id="QXlVbmSmWBWOAAHCpMSD-6" value="" style="endArrow=classic;html=1;rounded=0;exitX=0.036;exitY=-0.045;exitDx=0;exitDy=0;exitPerimeter=0;entryX=0.041;entryY=0.949;entryDx=0;entryDy=0;entryPerimeter=0;" edge="1" parent="1" source="QXlVbmSmWBWOAAHCpMSD-4" target="QXlVbmSmWBWOAAHCpMSD-5">
          <mxGeometry width="50" height="50" relative="1" as="geometry">
            <mxPoint x="-1500" y="-3320" as="sourcePoint" />
            <mxPoint x="-1450" y="-3370" as="targetPoint" />
          </mxGeometry>
        </mxCell>
        <mxCell id="QXlVbmSmWBWOAAHCpMSD-7" value="statusLogin()" style="endArrow=open;endSize=12;dashed=1;html=1;rounded=0;entryX=0.803;entryY=-0.045;entryDx=0;entryDy=0;entryPerimeter=0;exitX=0.906;exitY=1.091;exitDx=0;exitDy=0;exitPerimeter=0;" edge="1" parent="1" source="QXlVbmSmWBWOAAHCpMSD-5" target="QXlVbmSmWBWOAAHCpMSD-4">
          <mxGeometry width="160" relative="1" as="geometry">
            <mxPoint x="-1240" y="-3440" as="sourcePoint" />
            <mxPoint x="-1080" y="-3440" as="targetPoint" />
          </mxGeometry>
        </mxCell>
        <mxCell id="QXlVbmSmWBWOAAHCpMSD-9" value="fazer login" style="text;strokeColor=none;fillColor=none;spacingLeft=4;spacingRight=4;overflow=hidden;rotatable=0;points=[[0,0.5],[1,0.5]];portConstraint=eastwest;fontSize=12;whiteSpace=wrap;html=1;" vertex="1" parent="1">
          <mxGeometry x="-1490" y="-3390" width="70" height="30" as="geometry" />
        </mxCell>
        <mxCell id="QXlVbmSmWBWOAAHCpMSD-10" value="&lt;div&gt;autenticador&lt;/div&gt;" style="ellipse;whiteSpace=wrap;html=1;aspect=fixed;fillColor=#dae8fc;strokeColor=#6c8ebf;" vertex="1" parent="1">
          <mxGeometry x="-1120" y="-3507" width="80" height="80" as="geometry" />
        </mxCell>
        <mxCell id="QXlVbmSmWBWOAAHCpMSD-11" value="banco de dados do APP" style="ellipse;whiteSpace=wrap;html=1;aspect=fixed;fillColor=#dae8fc;strokeColor=#6c8ebf;" vertex="1" parent="1">
          <mxGeometry x="-930.27" y="-3507" width="80" height="80" as="geometry" />
        </mxCell>
        <mxCell id="QXlVbmSmWBWOAAHCpMSD-12" value="" style="rounded=1;whiteSpace=wrap;html=1;direction=south;fillColor=#dae8fc;strokeColor=#6c8ebf;arcSize=24;" vertex="1" parent="1">
          <mxGeometry x="-900.54" y="-3340" width="20.54" height="90" as="geometry" />
        </mxCell>
        <mxCell id="QXlVbmSmWBWOAAHCpMSD-13" value="" style="rounded=1;whiteSpace=wrap;html=1;direction=south;fillColor=#dae8fc;strokeColor=#6c8ebf;" vertex="1" parent="1">
          <mxGeometry x="-1090.27" y="-3140" width="20.54" height="90" as="geometry" />
        </mxCell>
        <mxCell id="QXlVbmSmWBWOAAHCpMSD-14" value="bool" style="endArrow=block;dashed=1;endFill=0;endSize=12;html=1;rounded=0;entryX=0.909;entryY=0.047;entryDx=0;entryDy=0;entryPerimeter=0;exitX=0.667;exitY=1.133;exitDx=0;exitDy=0;exitPerimeter=0;" edge="1" parent="1" source="QXlVbmSmWBWOAAHCpMSD-13" target="QXlVbmSmWBWOAAHCpMSD-5">
          <mxGeometry width="160" relative="1" as="geometry">
            <mxPoint x="-1300" y="-3290" as="sourcePoint" />
            <mxPoint x="-1140" y="-3290" as="targetPoint" />
          </mxGeometry>
        </mxCell>
        <mxCell id="QXlVbmSmWBWOAAHCpMSD-15" value="IDUsuário" style="endArrow=block;dashed=1;endFill=0;endSize=12;html=1;rounded=0;exitX=1;exitY=1;exitDx=0;exitDy=0;entryX=0.375;entryY=0.474;entryDx=0;entryDy=0;entryPerimeter=0;" edge="1" parent="1" source="QXlVbmSmWBWOAAHCpMSD-12" target="QXlVbmSmWBWOAAHCpMSD-5">
          <mxGeometry x="0.4176" width="160" relative="1" as="geometry">
            <mxPoint x="-1250" y="-3290" as="sourcePoint" />
            <mxPoint x="-1360" y="-3250" as="targetPoint" />
            <mxPoint as="offset" />
          </mxGeometry>
        </mxCell>
        <mxCell id="QXlVbmSmWBWOAAHCpMSD-18" value="buscarUsuario(email,senha)" style="endArrow=classic;html=1;rounded=0;entryX=0;entryY=0.75;entryDx=0;entryDy=0;exitX=0.097;exitY=-0.142;exitDx=0;exitDy=0;exitPerimeter=0;" edge="1" parent="1" source="QXlVbmSmWBWOAAHCpMSD-5" target="QXlVbmSmWBWOAAHCpMSD-12">
          <mxGeometry x="-0.419" y="1" width="50" height="50" relative="1" as="geometry">
            <mxPoint x="-1360" y="-3340" as="sourcePoint" />
            <mxPoint x="-1320" y="-3410" as="targetPoint" />
            <mxPoint as="offset" />
          </mxGeometry>
        </mxCell>
        <mxCell id="QXlVbmSmWBWOAAHCpMSD-20" value="" style="endArrow=none;dashed=1;html=1;rounded=0;exitX=0;exitY=0.5;exitDx=0;exitDy=0;entryX=0.5;entryY=1;entryDx=0;entryDy=0;" edge="1" parent="1" source="QXlVbmSmWBWOAAHCpMSD-13" target="QXlVbmSmWBWOAAHCpMSD-10">
          <mxGeometry width="50" height="50" relative="1" as="geometry">
            <mxPoint x="-1130" y="-3370" as="sourcePoint" />
            <mxPoint x="-1080" y="-3420" as="targetPoint" />
          </mxGeometry>
        </mxCell>
        <mxCell id="QXlVbmSmWBWOAAHCpMSD-21" value="" style="endArrow=none;dashed=1;html=1;rounded=0;" edge="1" parent="1">
          <mxGeometry width="50" height="50" relative="1" as="geometry">
            <mxPoint x="-890" y="-2970" as="sourcePoint" />
            <mxPoint x="-890" y="-3430" as="targetPoint" />
          </mxGeometry>
        </mxCell>
        <mxCell id="QXlVbmSmWBWOAAHCpMSD-22" value="" style="endArrow=none;dashed=1;html=1;rounded=0;" edge="1" parent="1" source="QXlVbmSmWBWOAAHCpMSD-5">
          <mxGeometry width="50" height="50" relative="1" as="geometry">
            <mxPoint x="-1380" y="-2970" as="sourcePoint" />
            <mxPoint x="-1380" y="-3420" as="targetPoint" />
          </mxGeometry>
        </mxCell>
        <mxCell id="QXlVbmSmWBWOAAHCpMSD-23" value="" style="endArrow=none;dashed=1;html=1;rounded=0;" edge="1" parent="1" target="QXlVbmSmWBWOAAHCpMSD-5">
          <mxGeometry width="50" height="50" relative="1" as="geometry">
            <mxPoint x="-1380" y="-2970" as="sourcePoint" />
            <mxPoint x="-1380" y="-3420" as="targetPoint" />
          </mxGeometry>
        </mxCell>
        <mxCell id="QXlVbmSmWBWOAAHCpMSD-5" value="" style="rounded=1;whiteSpace=wrap;html=1;direction=south;fillColor=#dae8fc;strokeColor=#6c8ebf;" vertex="1" parent="1">
          <mxGeometry x="-1390.54" y="-3370" width="21.08" height="320" as="geometry" />
        </mxCell>
        <mxCell id="QXlVbmSmWBWOAAHCpMSD-24" value="" style="endArrow=none;dashed=1;html=1;rounded=0;" edge="1" parent="1" source="QXlVbmSmWBWOAAHCpMSD-4">
          <mxGeometry width="50" height="50" relative="1" as="geometry">
            <mxPoint x="-1540" y="-2980" as="sourcePoint" />
            <mxPoint x="-1540" y="-3390" as="targetPoint" />
          </mxGeometry>
        </mxCell>
        <mxCell id="QXlVbmSmWBWOAAHCpMSD-25" value="" style="endArrow=none;dashed=1;html=1;rounded=0;" edge="1" parent="1" target="QXlVbmSmWBWOAAHCpMSD-4">
          <mxGeometry width="50" height="50" relative="1" as="geometry">
            <mxPoint x="-1540" y="-2980" as="sourcePoint" />
            <mxPoint x="-1540" y="-3390" as="targetPoint" />
          </mxGeometry>
        </mxCell>
        <mxCell id="QXlVbmSmWBWOAAHCpMSD-4" value="" style="rounded=1;whiteSpace=wrap;html=1;direction=south;fillColor=#dae8fc;strokeColor=#6c8ebf;arcSize=18;" vertex="1" parent="1">
          <mxGeometry x="-1550" y="-3370" width="22.16" height="360" as="geometry" />
        </mxCell>
        <mxCell id="QXlVbmSmWBWOAAHCpMSD-26" value="verificarUsuário(email,senha,IDUsuario)" style="endArrow=classic;html=1;rounded=0;entryX=0;entryY=0.75;entryDx=0;entryDy=0;" edge="1" parent="1" target="QXlVbmSmWBWOAAHCpMSD-13">
          <mxGeometry width="50" height="50" relative="1" as="geometry">
            <mxPoint x="-1371" y="-3140" as="sourcePoint" />
            <mxPoint x="-1240" y="-3200" as="targetPoint" />
          </mxGeometry>
        </mxCell>
      </root>
    </mxGraphModel>
  </diagram>
</mxfile>
